<?xml version="1.0" standalone="no"?>
<!DOCTYPE svg PUBLIC "-//W3C//DTD SVG 1.1//EN" "http://www.w3.org/Graphics/SVG/1.1/DTD/svg11.dtd" >
<svg xmlns="http://www.w3.org/2000/svg" xmlns:xlink="http://www.w3.org/1999/xlink" version="1.1">
<metadata>
Created by FontForge 20170910 at Mon Nov 12 16:41:22 2012
 By Jimmy Wärting
Copyright (c) 2011-2012, Ana Sanfelippo (anasanfe@gmail.com), with Reserved Font Name 'Almendra'
</metadata>
<defs>
<font id="Almendra-Regular" horiz-adv-x="370" >
  <font-face 
    font-family="Almendra"
    font-weight="400"
    font-stretch="normal"
    units-per-em="1000"
    panose-1="2 0 0 0 0 0 0 0 0 0"
    ascent="800"
    descent="-200"
    x-height="485"
    cap-height="659"
    bbox="-64 -227 1029 939"
    underline-thickness="50"
    underline-position="-100"
    unicode-range="U+0020-FB06"
  />
<missing-glyph horiz-adv-x="180" 
 />
    <glyph glyph-name="ellipsis" unicode="&#x2e;&#x2e;&#x2e;" horiz-adv-x="650" 
d="M160 46q-7 -13 -24.5 -33t-29.5 -28q-12 8 -29.5 28t-24.5 33q6 12 23 27.5t31 22.5q13 -8 30 -23.5t24 -26.5zM379 46q-7 -13 -24.5 -33t-29.5 -28q-12 8 -29.5 28t-24.5 33q6 12 23 27.5t31 22.5q13 -8 30 -23.5t24 -26.5zM598 46q-7 -13 -24.5 -33t-29.5 -28
q-12 8 -29.5 28t-24.5 33q6 12 23 27.5t31 22.5q13 -8 30 -23.5t24 -26.5z" />
    <glyph glyph-name="f_h" unicode="fh" horiz-adv-x="845" 
d="M688 291q0 112 -46 112q-39 0 -92 -49t-71 -91q0 -145 11 -233q27 -6 63 -19l-2 -19q-56 8 -106 8t-101 -6l-3 19q30 13 59 20q9 67 9 157v186q0 165 -6 242q-32 21 -91 21t-117 -36q-17 -52 -17 -132l142 5l4 -4q-7 -19 -13 -47q-51 3 -134 3v-198q0 -158 12 -290
q-14 2 -22.5 2h-12.5q-29 -53 -45 -142l-18 1q12 216 12 429v199h-54l-2 2q0 16 3 22q22 9 53 17q15 96 78 158t161 83q42 -4 97 -22q46 7 97 22l5 -18q-19 -15 -47 -29q-15 -82 -15 -339l4 -1q34 47 88.5 96.5t98.5 64.5q61 0 78 -55q13 -39 13 -96v-20l-5 -281
q24 -8 54 -8v-21q-64 -3 -135 -19l-7 4q16 97 19 280q1 10 1 22z" />
    <glyph glyph-name="fi" unicode="fi" horiz-adv-x="582" 
d="M503 620q-7 -13 -24.5 -33t-29.5 -28q-12 8 -29.5 28t-24.5 33q6 12 23 27.5t31 22.5q13 -8 30 -23.5t24 -26.5zM485 274v-84q0 -108 7 -160q28 -6 63 -19l-2 -19q-56 8 -106 8t-101 -6l-3 19q30 13 59 20q9 67 9 193t-6 187q-20 11 -94 13l-134 2v-198q0 -134 12 -290
q-14 2 -22.5 2h-12.5q-30 -55 -45 -142l-18 1q12 216 12 429v199h-54l-2 2q0 16 3 22q13 5 53 17q10 78 64 145t128 96q41 -2 80 -16v-14q-38 -47 -43 -115h-22q0 39 -2 61q-16 10 -51.5 10t-57.5 -22q-21 -56 -21 -145h146q110 0 167 15l7 -4q-13 -77 -13 -207z" />
    <glyph glyph-name="fl" unicode="fl" horiz-adv-x="592" 
d="M480 230v-91.5t6 -108.5q28 -6 63 -19l-2 -19q-56 8 -106 8t-101 -6l-3 19q30 13 59 20q9 64 10 197l3 187v86t-6 115q-32 21 -91 21t-117 -36q-17 -52 -17 -132l142 5l4 -4q-7 -19 -13 -47q-51 3 -134 3v-198q0 -158 12 -290q-14 2 -22.5 2h-12.5q-29 -53 -45 -142
l-18 1q12 216 12 429v199h-54l-2 2q0 16 3 22q22 9 53 17q15 96 78 158t161 83q42 -4 97 -22q50 8 99 22l5 -18q-19 -15 -47 -29q-11 -60 -13 -247z" />
    <glyph glyph-name="s_t" unicode="st" horiz-adv-x="705" 
d="M93 110l2 -42v-4q46 -17 87 -17t68.5 18t27.5 60q0 31 -105 85q-39 20 -72 48.5t-33 55.5q0 53 56.5 106.5t106.5 64.5h18q-20 34 -27 84q27 61 80 101.5t118 40.5q124 0 124 -124q0 -9 -1 -19l-6 -97l141 5l4 -4q-7 -18 -13 -47q-51 3 -134 3l-4 -198v-35
q0 -138 30 -138q55 0 114 53l10 -10q-58 -81 -141 -115q-57 0 -74 52q-13 44 -13 152v41l4 199h-54l-2 2q0 16 3 22q22 9 53 17l8 91q1 8 1 15q0 79 -88 79q-47 0 -79.5 -26.5t-32.5 -67.5t8 -69q6 -11 37 -16l40 -7v-14q-39 -48 -43 -105h-22q0 39 -2 61q-39 12 -74 12
t-62.5 -13.5t-27.5 -43.5q0 -18 33 -42t72 -43.5t72 -48.5t33 -56q0 -61 -55.5 -117.5t-112.5 -73.5q-72 0 -138 21v14q39 48 43 105h22v-15z" />
    <glyph glyph-name="c_t" unicode="ct" horiz-adv-x="705" 
d="M235 57q55 0 114 53l10 -10q-58 -81 -141 -115q-87 0 -129 55t-42 154t56 183t146 108q-20 34 -27 84q27 61 80 101.5t118 40.5q124 0 124 -124q0 -9 -1 -19l-6 -97l141 5l4 -4q-7 -18 -13 -47q-51 3 -133 3l-5 -198v-35q0 -138 30 -138q55 0 114 53l10 -10
q-58 -81 -141 -115q-57 0 -74 52q-13 44 -13 152v41l4 199h-54l-2 2q0 16 3 22q22 9 53 17l8 91q1 8 1 15q0 79 -88 79q-47 0 -79.5 -26.5t-32.5 -67t7 -64.5q7 -13 53 -21l40 -7v-14q-39 -48 -43 -105h-22q0 39 -2 61q-41 12 -81 12t-66 -24q-29 -61 -29 -154
q0 -140 51 -173q23 -15 57 -15z" />
    <glyph glyph-name="f_k" unicode="fk" horiz-adv-x="812" 
d="M550 -8q-56 8 -106 8t-101 -6l-3 19q30 13 59 20q9 67 9 197v187q0 131 -5 201q-32 21 -91 21t-117 -36q-17 -52 -17 -132l142 5l4 -4q-7 -19 -13 -47q-51 3 -134 3v-198q0 -158 12 -290q-14 2 -22.5 2h-12.5q-29 -53 -45 -142l-18 1q12 216 12 429v199h-54l-2 2
q0 16 3 22q22 9 53 17q15 96 78 158t161 83q46 -4 98 -23q45 8 96 23l5 -18q-19 -15 -47 -29q-16 -88 -16 -338l4 -2q35 50 85 97.5t94 63.5q36 -9 58 -42t22 -72q0 -100 -100 -143l30 -64q10 -21 20.5 -45t16.5 -36q13 -29 26 -46q0 -2 21.5 -5t32.5 -3v-21
q-69 -3 -142 -20l-9 5q0 70 -57 218q-24 -2 -36 -2v21q54 3 85.5 31.5t31.5 79.5q0 17 -7.5 40.5t-19.5 31.5q-39 -7 -88.5 -57.5t-67.5 -92.5q0 -145 11 -233q27 -6 63 -19z" />
    <glyph glyph-name="f_b" unicode="fb" horiz-adv-x="828" 
d="M776 294q0 -104 -56 -190.5t-150 -118.5q-96 0 -175 36q13 116 13 318.5t-6 278.5q-32 21 -90.5 21t-116.5 -36q-17 -52 -17 -132l142 5l4 -4q-7 -19 -13 -47q-51 3 -134 3v-198q0 -158 12 -290q-14 2 -22.5 2h-12.5q-29 -53 -45 -142l-18 1q12 216 12 429v199h-54l-2 2
q0 16 3 22q22 9 53 17q15 96 78 158t161 83q42 -4 97 -22q53 10 96 22l5 -18q-19 -15 -47 -29q-15 -82 -15 -339l4 -1q35 50 83 97t91 64q55 0 87.5 -61t32.5 -130zM696 249q0 49 -17.5 101.5t-50.5 52.5q-35 0 -85 -50t-65 -90q0 -149 7 -192q53 -24 102.5 -24t75.5 24
q33 76 33 178z" />
    <glyph glyph-name="f_j" unicode="fj" horiz-adv-x="589" 
d="M503 620q-7 -13 -24.5 -33t-29.5 -28q-12 8 -29.5 28t-24.5 33q6 12 23 27.5t31 22.5q13 -8 30 -23.5t24 -26.5zM411 53v137q0 161 -6 223q-20 11 -94 13l-134 2v-198q0 -134 12 -290q-14 2 -22.5 2h-12.5q-30 -55 -45 -142l-18 1q12 216 12 429v199h-54l-2 2q0 16 3 22
q13 5 53 17q10 78 64 145t128 96q41 -2 80 -16v-14q-38 -47 -43 -115h-22q0 39 -2 61q-16 10 -51.5 10t-57.5 -22q-21 -56 -21 -145h146q110 0 167 15l7 -4q-15 -88 -15 -246.5t7 -234.5q-32 -109 -160 -215l-15 15q96 117 96 253z" />
    <glyph glyph-name="f_t" unicode="ft" horiz-adv-x="638" 
d="M464 195q0 -138 30 -138q55 0 114 53l10 -10q-58 -81 -141 -115q-57 0 -73 52q-14 44 -14 152v41l4 198h-217v-198q0 -134 12 -290q-14 2 -22.5 2h-12.5q-30 -55 -45 -142l-18 1q12 216 12 429v199h-54l-2 2q0 16 3 22q13 5 53 17q10 78 64 145t128 96q44 0 90 -16v-14
q-38 -47 -43 -115h-22q0 39 -2 61q-19 12 -56.5 12t-62.5 -24q-21 -56 -21 -145l132 4q52 1 83 22.5t58 70.5q12 3 28 3l4 -2q-10 -60 -12 -97l140 5l4 -4q-7 -18 -13 -47q-51 3 -134 3l-4 -198v-35z" />
    <glyph glyph-name="T_h" unicode="Th" horiz-adv-x="958" 
d="M801 291q0 112 -46 112q-39 0 -92 -49t-71 -91q0 -145 11 -233q27 -6 63 -19l-2 -19q-56 8 -106 8t-101 -6l-3 19q30 13 59 20q9 67 9 157v186q0 132 -6 213q-47 25 -144 25q-31 0 -64 -5q-10 -68 -10 -273t13 -301q48 -5 96 -16l-3 -26q-64 7 -148.5 7t-137.5 -8l-4 25
q45 14 96 21q11 82 11 258v59q0 103 -13 254q-17 5 -59 5t-84 -18q-13 -42 -20 -112h-25q-4 107 -33 158l6 20q96 -11 231.5 -11t191.5 1q154 5 233 34l5 -18q-19 -15 -47 -29q-15 -83 -15 -314l4 -1q34 47 88.5 96.5t98.5 64.5q61 0 79 -55q12 -39 12 -96v-20l-5 -281
q24 -8 54 -8v-21q-64 -3 -135 -19l-7 4q16 97 19 280q1 10 1 22z" />
    <glyph glyph-name="apple" unicode="ardilla" horiz-adv-x="650" 
d="M505 278q-6 -27 -6 -72t-20.5 -89t-58.5 -73l-9 8q41 69 41 122.5t-33 89.5q0 132 106 132q61 -36 93 -118l-13 -7q-26 43 -59 43t-41 -36zM262 24q20 0 38 -6q3 5 5 12q-47 31 -74 54t-40 51q-37 0 -56 3v3q17 19 47 22q-1 5 -1 15q-58 0 -109 56q20 33 34 51t36 33.5
t46 15.5v3q0 14 25 29q14 -12 14 -24t-5 -15q39 -21 78 -27q57 -8 93 -44.5t36 -87.5t-20.5 -95t-57.5 -73q-54 -6 -91 -6t-61 4v3q22 23 63 23zM176 233q21 0 30 23l-4 2q-11 -13 -26 -13t-26 13l-4 -2q9 -23 30 -23z" />
    <glyph glyph-name=".notdef" horiz-adv-x="180" 
 />
    <glyph glyph-name=".null" horiz-adv-x="0" 
 />
    <glyph glyph-name="nonmarkingreturn" horiz-adv-x="333" 
 />
    <glyph glyph-name="space" unicode=" " horiz-adv-x="180" 
 />
    <glyph glyph-name="exclam" unicode="!" horiz-adv-x="226" 
d="M160 46q-7 -13 -24.5 -33t-29.5 -28q-12 8 -29.5 28t-24.5 33q6 12 23 27.5t31 22.5q13 -8 30 -23.5t24 -26.5zM72 679q12 6 36 11.5t31.5 5.5h9.5q11 -10 32 -40q-47 -167 -62 -474l-26 -2z" />
    <glyph glyph-name="quotedbl" unicode="&#x22;" horiz-adv-x="315" 
d="M63 649q12 6 36 11.5t31.5 5.5h9.5l12 -13q-31 -80 -46 -219l-30 -2zM198 649q12 6 36 11.5t31.5 5.5h9.5l12 -13q-31 -80 -46 -219l-30 -2z" />
    <glyph glyph-name="numbersign" unicode="#" horiz-adv-x="550" 
d="M380 371q67 -1 91 -1h32l7 -6l-10 -48l-127 3l-15 -131q64 -1 87.5 -1h30.5l7 -5l-10 -49l-121 3l-27 -228h-5q-24 5 -41 21q18 99 31 208l-108 3l-27 -232h-5q-24 5 -41 21q18 99 31 208v4l-112 3l-8 7l10 52l46 -4q18 -2 71 -4l16 129l-108 3l-8 6l10 53l45 -4
q16 -2 67 -4l26 209q19 0 44 5l4 -3q-21 -112 -33 -213q33 -2 109 -4l26 215q19 0 44 5l4 -3q-21 -113 -33 -217v-1zM208 193q32 -2 108 -4l16 131l-108 3z" />
    <glyph glyph-name="dollar" unicode="$" horiz-adv-x="450" 
d="M93 342q0 43 41.5 91t101.5 78l3 77q16 2 27 6l4 -3q-6 -35 -7 -68q76 0 139 -16v-14q-37 -46 -43 -113h-22q0 40 -3 63q-38 14 -74 15l-6 -147q102 -59 124 -91q10 -15 10 -31q0 -52 -43.5 -105t-110.5 -86l-1 -90h-5q-17 5 -27 15l5 62q-79 0 -151 26v13q37 46 43 112
h22q0 -39 2 -61q41 -22 87 -25l9 174q-39 23 -61.5 38t-43 37.5t-20.5 42.5zM328 132q0 27 -85 77l-7 -159q39 4 65.5 23.5t26.5 58.5zM153 399q0 -26 76 -73l5 131q-81 -9 -81 -58z" />
    <glyph glyph-name="percent" unicode="%" horiz-adv-x="744" 
d="M178 570q22 0 114 -15t158 -15t89 38l6 10q38 2 65 10l3 -3q-68 -97 -145 -217l-305 -478h-5q-26 12 -39 32q101 137 122 170l175 274q48 72 94 151l-4 1q-24 -25 -76 -25t-170 36l-3 -3q47 -44 62 -128q-14 -88 -57 -134.5t-87.5 -46.5t-85.5 42.5t-55 119.5
q14 88 58 134.5t86 46.5zM483 281.5q44 46.5 88.5 46.5t84.5 -42.5t54 -119.5q-14 -88 -57 -134.5t-87.5 -46.5t-85.5 42.5t-55 119.5q14 88 58 134.5zM249 399q0 46 -19 87.5t-52 53.5q-32 -12 -52 -54t-20 -87t20 -87t52 -54q33 12 52 53.5t19 87.5zM640 157
q0 46 -19 87.5t-52 53.5q-32 -12 -52 -54t-20 -87t20 -87t52 -54q33 12 52 53.5t19 87.5z" />
    <glyph glyph-name="ampersand" unicode="&#x26;" horiz-adv-x="604" 
d="M425 407q70 -25 70 -102.5t-63 -163.5q60 -70 98 -104q48 -2 98 -13l-2 -25q-15 1 -88 1t-139 -15l-4 14q6 10 6 30t-24 48q-65 -62 -130 -92q-89 0 -151 59t-62 147q0 124 132 188q-6 5 -12.5 21t-13.5 29t-9 18.5t-7.5 17.5t-7 19t-4.5 18q-5 17 -5 36q20 36 74.5 76
t96.5 52q136 0 136 -98q0 -39 -21.5 -74t-56.5 -51l1 -5l231 18l4 -4q-7 -18 -13 -47q-76 5 -134 7v-5zM414 163q29 46 29 113.5t-36.5 103t-99.5 37.5l-7 19q48 40 48 90q0 35 -26.5 53t-70 18t-65.5 -19q-4 -11 -4 -27q0 -59 82.5 -185t149.5 -203zM156 111
q42 -48 107 -48t99 33q-96 110 -186 265q-62 -50 -62 -126t42 -124z" />
    <glyph glyph-name="quotesingle" unicode="'" horiz-adv-x="180" 
d="M63 649q12 6 36 11.5t31.5 5.5h9.5l12 -13q-31 -80 -46 -219l-30 -2z" />
    <glyph glyph-name="parenleft" unicode="(" horiz-adv-x="297" 
d="M102 -6.5q-54 128.5 -54 266t53 254t149 197.5l10 -10q-140 -191 -140 -439q0 -127 36 -250.5t104 -216.5l-10 -10q-94 80 -148 208.5z" />
    <glyph glyph-name="parenright" unicode=")" horiz-adv-x="297" 
d="M196 513.5q53 -116.5 53 -254t-54 -266t-148 -208.5l-10 10q68 93 104 216.5t36 250.5q0 248 -140 439l10 10q96 -81 149 -197.5z" />
    <glyph glyph-name="asterisk" unicode="*" horiz-adv-x="371" 
d="M203 672l26 6l2 -2q-29 -47 -36 -112q52 39 78 87h3q2 -4 5 -14.5t3 -11.5q27 5 34.5 5t8.5 -1q0 -3 -25 -35l8 -8q8 -8 10 -12l-1 -2h-7q-49 0 -109 -25q56 -25 108 -25h8l1 -2q-2 -4 -10 -12l-8 -8q1 -2 8 -10q17 -19 17 -25q-1 -1 -8.5 -1t-34.5 5q0 -1 -3 -11.5
t-5 -14.5h-3q-27 49 -78 87q7 -65 36 -112l-2 -2l-26 6q-13 -36 -18 -39q-5 2 -18 39l-26 -6l-2 2q28 47 36 112q-51 -38 -78 -87h-3q-2 4 -5 14.5t-3 11.5q-27 -5 -34.5 -5t-8.5 1q0 3 25 35l-8 8q-8 8 -10 12l1 2h8q51 0 107 25q-60 25 -108 25h-7l-1 2q2 4 10 12l8 8
q-1 2 -8 10q-17 19 -17 25q1 1 8.5 1t34.5 -5q0 1 3 11.5t5 14.5h3q26 -48 78 -87q-9 65 -36 112l2 2l26 -6q13 36 18 39q5 -2 18 -39z" />
    <glyph glyph-name="plus" unicode="+" horiz-adv-x="550" 
d="M299 222q0 -127 9 -222l-46 -9l-10 7v224h-186l-8 7l9 51q122 -6 185 -7v203l47 9l5 -6q-5 -132 -5 -206v-1q37 -1 97 -1t99 3l6 -6l-9 -46h-193z" />
    <glyph glyph-name="comma" unicode="," horiz-adv-x="213" 
d="M160 46q0 -50 -34 -102t-80 -83l-10 10q21 25 38 61.5t18 63.5q-26 24 -40 50q6 12 23 27.5t31 22.5q13 -8 30 -23.5t24 -26.5z" />
    <glyph glyph-name="hyphen" unicode="-" horiz-adv-x="286" 
d="M80 288q88 0 172 10l8 -5l-6 -42l-217 -15l-9 6l6 46h46z" />
    <glyph glyph-name="period" unicode="." horiz-adv-x="212" 
d="M160 46q-7 -13 -24.5 -33t-29.5 -28q-12 8 -29.5 28t-24.5 33q6 12 23 27.5t31 22.5q13 -8 30 -23.5t24 -26.5z" />
    <glyph glyph-name="slash" unicode="/" horiz-adv-x="354" 
d="M61 -41h-5q-23 10 -40 30q45 100 79 189l114 299q40 104 78 221q28 2 55 8l4 -3q-26 -59 -83 -212z" />
    <glyph glyph-name="zero" unicode="0" horiz-adv-x="499" 
d="M126.5 417q63.5 68 128.5 68t122.5 -62t79.5 -175q-21 -128 -83.5 -195.5t-127.5 -67.5t-123.5 62t-80.5 174q21 128 84.5 196zM141 235q0 -71 30 -136t80 -82q50 17 80 82t30 136t-30 136t-80 82q-50 -17 -80 -82t-30 -136z" />
    <glyph glyph-name="one" unicode="1" horiz-adv-x="333" 
d="M266 -6q-51 6 -110 6t-112 -8l-2 19q40 13 78 22q9 74 9 157v84q0 101 -7 159q-47 13 -78 29l3 20q57 -12 118 -12t102 5l4 -20q-29 -8 -59 -21q-9 -67 -9 -160v-84q0 -102 7 -154q32 -9 59 -23z" />
    <glyph glyph-name="two" unicode="2" horiz-adv-x="444" 
d="M165 85q14 1 55 1t132 -12q10 22 23 58l21 -7q-11 -39 -11 -71t7 -61l-12 -8q-159 36 -296 36q-13 -13 -31 -36l-19 10q33 66 144 177q38 38 68 87t30 88t-24 57.5t-61 18.5t-65 -14q-7 -12 -7 -32t10 -29l-1 -7q-26 -16 -48 -40q-12 1 -19 9.5t-7 19.5q0 46 53.5 92.5
t108.5 62.5q81 0 118.5 -39t37.5 -120q-95 -126 -236 -247l2 -4q15 7 27 10z" />
    <glyph glyph-name="three" unicode="3" horiz-adv-x="450" 
d="M93 49q0 -39 2 -61q24 -17 63.5 -29t74.5 -12t55 24q15 38 15 85q0 71 -37 111.5t-105 40.5l-4 6l135 183l-2 4q-15 -7 -27 -10q-58 0 -147 7q-9 -22 -20 -61l-21 7q7 40 7 69.5t-10 62.5l11 9q120 -27 280 -27q25 16 36 27l17 -15q-38 -35 -177 -203q72 -12 112 -64.5
t40 -136.5q-20 -55 -73.5 -107.5t-108.5 -73.5q-41 0 -93 11t-88 28v13q38 43 43 112h22z" />
    <glyph glyph-name="four" unicode="4" horiz-adv-x="471" 
d="M332 274q0 -130 1 -165q38 0 53.5 7.5t27.5 36.5l16 -3q-9 -45 -9 -92l-4 -2q-35 3 -83 3q0 -67 8 -126q21 -11 51 -18l-4 -20q-57 5 -103.5 5t-108.5 -12l-3 20q34 15 79 26q7 57 7 125h-253l-4 14q161 187 261 387q42 10 73 25l8 -4q-13 -77 -13 -207zM256 379
q-62 -136 -148 -259q62 -6 152 -8l3 267h-7z" />
    <glyph glyph-name="five" unicode="5" horiz-adv-x="461" 
d="M105 49q0 -39 2 -61q24 -17 63.5 -29t74.5 -12t55 24q15 38 15 85q0 70 -36.5 111t-104.5 41q-39 0 -70 -17l-12 9l10 175q2 27 2 55t-4 52l21 4q5 -18 9 -27q128 4 229 26l11 -9q-12 -35 -12 -69t5 -64l-22 -5q-9 37 -18 60q-70 -7 -153 -7l-23 10l-4 -5l-11 -155
q45 25 65 30q98 -3 152 -56t54 -149q-20 -55 -73.5 -107.5t-108.5 -73.5q-41 0 -93 11t-88 28v13q38 43 43 112h22z" />
    <glyph glyph-name="six" unicode="6" horiz-adv-x="451" 
d="M143 215q0 -168 106 -168q49 0 69 24q15 38 15 75q0 152 -131 152q-15 0 -30 -3v7q28 20 57 48q192 0 192 -194q-22 -51 -81 -103.5t-112 -67.5q-174 0 -174 197q0 124 78.5 239t194.5 164l13 -18q-90 -59 -143.5 -152t-53.5 -200z" />
    <glyph glyph-name="seven" unicode="7" horiz-adv-x="390" 
d="M268 -106q-58 6 -108.5 6t-103.5 -11l-5 20q32 10 50 21q13 144 140 358l65 110l-3 4q-14 -7 -26 -11q-21 -1 -65 -1t-117 7q-9 -23 -18 -60l-22 5q5 30 5 63.5t-12 68.5l11 9q125 -26 287 -26q8 9 17 24l20 -10q-192 -329 -193 -535q48 -9 80 -22z" />
    <glyph glyph-name="eight" unicode="8" horiz-adv-x="476" 
d="M397 485q0 -34 -35 -77t-74 -71q40 -25 64 -44t45 -53t21 -74q-22 -57 -76.5 -109.5t-112.5 -71.5q-66 0 -118.5 41.5t-52.5 103.5q0 43 36 92t81 80q-95 69 -95 152q23 37 79.5 78.5t98.5 52.5q58 0 98.5 -25.5t40.5 -74.5zM315 71q15 35 15 62.5t-6.5 41.5t-13.5 24
t-24 24.5t-26.5 21t-33 22t-32.5 21.5q-62 -48 -62 -132q0 -45 35.5 -77t81.5 -32t66 24zM174 500q-7 -12 -7 -40t25 -53.5t75 -56.5q56 51 56 109q0 64 -86 64q-42 0 -63 -23z" />
    <glyph glyph-name="nine" unicode="9" horiz-adv-x="451" 
d="M308 255q0 168 -106 168q-49 0 -69 -24q-15 -38 -15 -75q0 -152 131 -152q15 0 30 3v-7q-28 -20 -57 -48q-192 0 -192 194q22 51 81 103.5t112 67.5q174 0 174 -197q0 -124 -78.5 -239t-194.5 -164l-13 18q90 59 143.5 152t53.5 200z" />
    <glyph glyph-name="colon" unicode=":" horiz-adv-x="212" 
d="M160 46q-7 -13 -24.5 -33t-29.5 -28q-12 8 -29.5 28t-24.5 33q6 12 23 27.5t31 22.5q13 -8 30 -23.5t24 -26.5zM160 435q-7 -13 -24.5 -33t-29.5 -28q-12 8 -29.5 28t-24.5 33q6 12 23 27.5t31 22.5q13 -8 30 -23.5t24 -26.5z" />
    <glyph glyph-name="semicolon" unicode=";" horiz-adv-x="212" 
d="M160 46q0 -50 -34 -102t-80 -83l-10 10q21 25 38 61.5t18 63.5q-26 24 -40 50q6 12 23 27.5t31 22.5q13 -8 30 -23.5t24 -26.5zM160 435q-7 -13 -24.5 -33t-29.5 -28q-12 8 -29.5 28t-24.5 33q6 12 23 27.5t31 22.5q13 -8 30 -23.5t24 -26.5z" />
    <glyph glyph-name="less" unicode="&#x3c;" horiz-adv-x="550" 
d="M472 55q-212 105 -420 167l14 64q56 17 183 65t225 98l24 -46l-5 -10l-359 -139v-4l359 -138l5 -10z" />
    <glyph glyph-name="equal" unicode="=" horiz-adv-x="550" 
d="M62 203q170 -9 279.5 -9t148.5 3l6 -6l-9 -46h-426l-8 7zM62 357q170 -9 279.5 -9t148.5 3l6 -6l-9 -46h-426l-8 7z" />
    <glyph glyph-name="greater" unicode="&#x3e;" horiz-adv-x="550" 
d="M498 222q-208 -62 -420 -167l-26 47l5 10l359 138v4l-359 139l-5 10l24 46q98 -50 225 -98t183 -65z" />
    <glyph glyph-name="question" unicode="?" horiz-adv-x="335" 
d="M239 560q0 37 -24 55.5t-61 18.5t-65 -14q-7 -12 -7 -32t10 -29l-1 -7q-26 -16 -48 -40q-12 1 -19 9.5t-7 19.5q0 46 53.5 92.5t108.5 62.5q81 0 118.5 -39t37.5 -120q-63 -90 -158 -185q-7 -89 -11 -170l-26 -2l-21 139v19q120 120 120 222zM205 49q-7 -13 -24.5 -33
t-29.5 -28q-12 8 -29.5 28t-24.5 33q6 12 23 27.5t31 22.5q13 -8 30 -23.5t24 -26.5z" />
    <glyph glyph-name="at" unicode="@" horiz-adv-x="860" 
d="M241 176q0 104 56 190.5t150 118.5q67 0 140 -21q14 21 23 53l21 -6q-22 -92 -22 -251.5t17 -228.5q66 38 99.5 122t33.5 176q0 287 -301 287q-102 0 -177 -46q-73 -70 -116.5 -181t-43.5 -217q0 -150 72 -231t216 -81q62 0 119 22l7 -13q-60 -42 -134 -59
q-176 0 -261 84.5t-85 260.5q0 201 113 342.5t306 168.5q349 0 349 -303q0 -139 -64 -243.5t-186 -134.5q-15 18 -24.5 70t-9.5 90l-4 1q-35 -50 -83 -97t-91 -64q-55 0 -87.5 61t-32.5 130zM321 221q0 -49 17.5 -101.5t50.5 -52.5q35 0 85 50t65 90q0 149 -7 192
q-53 24 -102.5 24t-75.5 -24q-33 -76 -33 -178z" />
    <glyph glyph-name="A" unicode="A" horiz-adv-x="599" 
d="M98 662q114 -11 238 -11t238 11l4 -25q-45 -14 -96 -21q-13 -96 -13 -290.5t13 -290.5q53 -5 110 -19l-3 -24q-74 8 -160.5 8t-139.5 -8l-4 25q45 14 96 21q8 66 11 213q-52 6 -114.5 6t-105.5 -6q-24 -98 -24 -157t43 -84l-4 -14q-31 4 -104.5 4t-132.5 -8l-4 25
q45 14 96 21l164 581q-56 6 -111 19zM183 301q45 -7 106.5 -7t102.5 7q0 242 -10 310q-31 3 -61.5 3t-62.5 -3z" />
    <glyph glyph-name="B" unicode="B" horiz-adv-x="576" 
d="M16 649l288 9q121 0 159 -30q37 -28 37 -85t-39 -102.5t-95 -68.5v-4q72 0 117 -33t45 -98q0 -80 -74.5 -154.5t-161.5 -97.5q-63 0 -147 38q-17 -26 -23 -45l-21 5q24 109 24 320t-11 305q-48 16 -98 16v25zM263 382q74 0 107 21q36 40 36 106q0 112 -119 112
q-40 0 -76 -13q-9 -94 -9 -264.5t5 -258.5q52 -28 111.5 -28t94.5 24q23 49 23 110q0 154 -190 154l5 37h12z" />
    <glyph glyph-name="C" unicode="C" horiz-adv-x="498" 
d="M304 64q81 0 163 78l14 -13q-83 -106 -198 -144q-120 0 -180.5 75.5t-60.5 209t73.5 248t197.5 148.5q101 0 206 -19l-1 -22q-26 0 -48 -9q-25 -59 -33 -138h-25q-9 40 -9 93q-47 25 -112.5 25t-108.5 -36q-51 -87 -51 -221q0 -200 86 -253q36 -22 87 -22z" />
    <glyph glyph-name="D" unicode="D" horiz-adv-x="619" 
d="M16 649l288 9q134 0 203.5 -69t69.5 -205.5t-73 -249.5t-198 -149q-72 0 -161 38q-17 -26 -23 -45l-21 5q24 109 24 320t-11 305q-48 16 -98 16v25zM383.5 596.5q-40.5 24.5 -88.5 24.5t-84 -13q-9 -94 -9 -264.5t5 -258.5q54 -28 123 -28t107 34q51 93 51 229
q0 124 -42 208q-22 44 -62.5 68.5z" />
    <glyph glyph-name="E" unicode="E" horiz-adv-x="512" 
d="M304 64q81 0 163 78l14 -13q-83 -106 -198 -144q-120 0 -180.5 75.5t-60.5 209t73.5 248t197.5 148.5q101 0 206 -19l-1 -22q-26 0 -48 -9q-25 -59 -33 -138h-25q-9 40 -9 93q-47 25 -112.5 25t-108.5 -36q-45 -77 -50 -187q43 -8 112 -8q111 0 132 43l20 -4
q-9 -32 -9 -76t6 -88l-23 -4q-15 38 -20 89q-38 3 -108.5 3t-110.5 -5q3 -188 89 -239q34 -20 84 -20z" />
    <glyph glyph-name="F" unicode="F" horiz-adv-x="488" 
d="M409 593q-43 21 -101 21t-91 -5q-10 -68 -10 -243q43 -8 84 -8q78 0 99 43l20 -4q-9 -32 -9 -76.5t6 -87.5l-23 -4q-15 38 -20 89q-37 3 -77 3t-80 -5q1 -204 13 -281q50 -5 110 -19l-3 -24q-74 8 -160.5 8t-139.5 -8l-4 25q45 14 96 21q11 82 11 258v59q0 110 -13 258
q-40 5 -96 23l4 25q104 -10 239 -10t234 11l4 -20q-52 -53 -59 -158h-25q-9 43 -9 109z" />
    <glyph glyph-name="G" unicode="G" horiz-adv-x="557" 
d="M216 86q35 -22 89 -22t98 29v83q0 23 -4 67q-35 10 -91 20l3 21q23 -3 44 -3q88 0 161 49l9 -18q-23 -18 -36 -36q-12 -120 -20 -280h-21q-10 43 -24 71q-65 -57 -141 -82q-120 0 -180.5 75.5t-60.5 209t73.5 248t197.5 148.5q104 0 209 -19l-1 -22q-25 0 -48 -9
q-27 -64 -33 -139h-25q-9 41 -9 93q-47 26 -114 26t-110 -36q-51 -87 -51 -221q0 -201 85 -253z" />
    <glyph glyph-name="H" unicode="H" horiz-adv-x="708" 
d="M398 659q61 -8 148.5 -8t151.5 8l3 -24q-57 -14 -110 -19q-13 -74 -13 -261v-59q0 -187 13 -261q53 -5 110 -19l-3 -24q-64 8 -151.5 8t-148.5 -8l-4 25q45 14 96 21q10 101 11 290q-74 7 -147 7t-147 -7q1 -214 13 -293q53 -5 110 -19l-3 -24q-74 8 -160.5 8t-139.5 -8
l-4 25q45 14 96 21q11 82 11 258v59q0 162 -13 258q-51 7 -96 21l4 25q53 -8 139.5 -8t160.5 8l3 -24q-57 -14 -110 -19q-9 -59 -11 -234q76 -10 151 -10t143 9q-1 132 -11 232q-51 7 -96 21z" />
    <glyph glyph-name="I" unicode="I" horiz-adv-x="337" 
d="M218 616q-11 -75 -11 -280t13 -301q53 -5 110 -19l-3 -24q-74 8 -160.5 8t-139.5 -8l-4 25q45 14 96 21q11 82 11 258v59q0 162 -13 258q-51 7 -96 21l4 25q53 -8 139.5 -8t160.5 8l3 -24q-57 -14 -110 -19z" />
    <glyph glyph-name="J" unicode="J" horiz-adv-x="337" 
d="M12 659q74 -8 160.5 -8t139.5 8l4 -25q-45 -14 -96 -21q-13 -96 -13 -258v-59q0 -185 8 -263q-56 -126 -206 -213l-17 19q76 64 107 137.5t31 177.5v201q0 186 -11 261q-53 5 -110 19z" />
    <glyph glyph-name="K" unicode="K" horiz-adv-x="606" 
d="M623 -8q-59 8 -127.5 8t-99.5 -4l-4 14q17 17 17 57q0 81 -102 277q-56 -51 -100 -87q3 -155 12 -222q59 -6 113 -19l-3 -24q-74 8 -162 8t-141 -8l-4 25q45 14 96 21q11 82 11 258v59q0 162 -13 258q-51 7 -96 21l4 25q53 -8 134.5 -8t155.5 8l3 -24q-64 -15 -100 -19
q-11 -75 -11 -266v-56q126 133 165 197t39 98.5t-17 51.5l4 14q31 -4 88.5 -4t116.5 8l4 -25q-45 -14 -96 -21q-9 -85 -146 -216l167 -359q51 -7 96 -21z" />
    <glyph glyph-name="L" unicode="L" horiz-adv-x="456" 
d="M471 -11q-100 11 -228.5 11t-217.5 -10l-4 25q39 13 96 23q11 82 11 258v59q0 175 -11 258q-51 7 -96 21l4 25q53 -8 139.5 -8t160.5 8l3 -24q-60 -14 -110 -19q-13 -88 -13 -294t10 -280q33 -5 89 -5t96 18q12 37 19 112h25q4 -106 33 -158z" />
    <glyph glyph-name="M" unicode="M" horiz-adv-x="864" 
d="M362 70q0 134 -130 531l-4 -1l-32 -233q-20 -143 -20 -258q0 -37 8.5 -61t34.5 -38l-4 -14q-31 4 -105.5 4t-133.5 -8l-4 25q45 14 96 21l116 579q-60 6 -110 18l3 24q74 -8 157 -8t123 4l2 -14q-34 -12 -34 -31q0 -66 79 -317l31 -98l7 2q1 22 124 412q0 10 -11 19.5
t-23 12.5l3 14q50 -4 137 -4t139 8l5 -25q-48 -15 -97 -21q-5 -24 -5 -85.5t16.5 -246.5t30.5 -246q53 -5 110 -19l-3 -24q-74 8 -160 8t-139 -8l-4 25q45 14 96 21q0 95 -11.5 267.5t-28.5 291.5l-3 1q-141 -390 -149 -493q-65 -39 -97 -76l-12 8q2 22 2 33z" />
    <glyph glyph-name="N" unicode="N" horiz-adv-x="706" 
d="M25 659q50 -8 129.5 -8t123.5 6l5 -16q-12 -4 -23 -12.5t-11 -18.5q0 -24 51 -112t224 -358l4 2v144q0 168 -17 254t-60 101l4 14q31 -4 101 -4t129 8l3 -23q-71 -17 -99 -20q-13 -98 -13 -261v-59q0 -187 13 -261q51 -6 96 -18l-4 -25q-53 8 -106.5 8t-86.5 -3
q0 69 -301 538l-4 -2v-168q0 -255 37 -330q55 -5 109 -19l-2 -24q-74 8 -160.5 8t-139.5 -8l-4 25q45 14 96 21q11 82 11 258v59q0 162 -13 258q-51 7 -96 21z" />
    <glyph glyph-name="O" unicode="O" horiz-adv-x="602" 
d="M113 62.5q-71 77.5 -71 209.5t74.5 246.5t196.5 147.5q122 0 184.5 -73t62.5 -208.5t-68.5 -244t-190.5 -155.5q-117 0 -188 77.5zM276 594q-56 0 -94 -34q-51 -90 -51 -221q0 -156 84 -238q45 -44 105.5 -44t100.5 35q50 92 50 218q0 117 -40 196q-44 88 -155 88z" />
    <glyph glyph-name="P" unicode="P" horiz-adv-x="512" 
d="M21 649l290 9q206 0 206 -164q0 -89 -73 -144t-170 -55q-15 0 -22 1l4 32h12q75 0 115 38t40 111t-31 108.5t-98 35.5q-40 0 -78 -13q-9 -94 -9 -289t12 -284q53 -5 110 -19l-3 -24q-74 8 -160.5 8t-139.5 -8l-4 25q45 14 96 21q12 82 12 279t-11 291q-48 16 -98 16v25z
" />
    <glyph glyph-name="Q" unicode="Q" horiz-adv-x="602" 
d="M286 -73q-63 0 -107 -34l-17 16q42 44 119 77q-109 7 -174 83.5t-65 205.5t74.5 243.5t196.5 147.5q122 0 184.5 -73t62.5 -204.5t-61.5 -236t-172.5 -156.5q50 0 149 -44.5t126 -50.5q44 17 86 41l11 -17q-71 -45 -115 -127l-28 20q-152 109 -269 109zM276 594
q-56 0 -94 -34q-51 -90 -51 -221q0 -156 84 -238q45 -44 105.5 -44t100.5 35q50 92 50 218q0 117 -40 196q-44 88 -155 88z" />
    <glyph glyph-name="R" unicode="R" horiz-adv-x="619" 
d="M35 649l288 9q101 0 152 -33t51 -121q0 -122 -125 -170l140 -296q51 -7 96 -21l-4 -25q-59 8 -127.5 8t-99.5 -4l-4 14q17 17 17 57q0 80 -94 255q-25 5 -58 5l3 22h12q72 0 111 35.5t39 103.5t-30.5 100.5t-95.5 32.5q-40 0 -76 -13q-9 -94 -9 -294.5t11 -275.5
q51 -7 96 -21l-4 -25q-53 8 -139.5 8t-160.5 -8l-3 24q57 14 110 19q13 96 13 287.5t-11 285.5q-48 16 -98 16v25z" />
    <glyph glyph-name="S" unicode="S" horiz-adv-x="465" 
d="M114 130l2 -40v-3q57 -23 114 -23t90.5 26.5t33.5 77.5q0 30 -43 67.5t-95 67.5t-95 68.5t-43 70.5q0 70 64.5 135.5t141.5 88.5q86 0 163 -17v-20q-52 -48 -58 -148h-25q0 53 -5 93q-43 20 -95.5 20t-85.5 -22t-33 -63q0 -30 43 -67t94.5 -66.5t94.5 -67.5t43 -70
q0 -73 -64.5 -148t-140.5 -105q-79 0 -147 18q-21 -10 -42 -30l-15 14q69 73 77 193h25v-14z" />
    <glyph glyph-name="T" unicode="T" horiz-adv-x="519" 
d="M352 614q-27 0 -44 -5q-10 -68 -10 -273t13 -301q50 -5 110 -19l-3 -24q-74 8 -160.5 8t-139.5 -8l-4 25q45 14 96 21q11 82 11 258v59q0 103 -13 254q-17 5 -59 5t-84 -18q-13 -42 -20 -112h-25q-4 107 -33 158l6 20q96 -11 275.5 -11t275.5 11l4 -20q-33 -35 -44.5 -69
t-14.5 -89h-25q-9 43 -9 109q-43 21 -103 21z" />
    <glyph glyph-name="U" unicode="U" horiz-adv-x="665" 
d="M197 549q-14 -126 -14 -219.5t3 -123t12 -57.5t24 -46q34 -39 106 -39t125 48q5 130 5 260t-11 244q-51 7 -96 21l4 22q61 -8 148.5 -8t151.5 8l3 -21q-57 -14 -110 -19q-13 -74 -13 -264v-59q0 -187 13 -261q53 -5 110 -19l-3 -24q-64 8 -130 8t-84 -1l-3 14q9 11 13 71
q-58 -65 -146 -99q-111 0 -156.5 65.5t-45.5 190.5q0 57 7 181t7 147t-7 44q-51 7 -96 21l4 25q59 -8 127.5 -8t99.5 4l4 -14q-45 -25 -52 -92z" />
    <glyph glyph-name="V" unicode="V" horiz-adv-x="599" 
d="M423 -8q-59 8 -131.5 8t-103.5 -4l-4 14q12 4 23 12.5t11 18.5q0 73 -133 488q-18 55 -31 84q-56 7 -96 21l4 25q53 -8 143.5 -8t164.5 8l3 -24q-57 -14 -110 -19q7 -81 50.5 -244.5t93.5 -302.5q84 186 112.5 282.5t28.5 166.5q0 94 -50 123l4 14q31 -4 99.5 -4t127.5 8
l4 -25q-45 -14 -96 -21q5 -35 5 -58q0 -88 -43.5 -189t-167.5 -331q51 -7 96 -21z" />
    <glyph glyph-name="W" unicode="W" horiz-adv-x="906" 
d="M373 -4q-48 4 -101 4t-84 -4l-4 14q12 4 23 12.5t11 18.5q0 73 -133 488q-18 55 -31 84q-57 10 -96 23l4 25q97 -10 323.5 -10t323.5 10l4 -25q-44 -14 -96 -23q5 -35 5 -63.5t-8 -71.5q38 -170 120 -409q74 187 97.5 283.5t23.5 165.5q0 94 -50 123l4 14q31 -4 99.5 -4
t127.5 8l4 -25q-45 -14 -96 -21q5 -35 5 -58q0 -84 -41.5 -193t-150.5 -328q17 -9 46 -17l-3 -21q-48 4 -101 4t-84 -4l-4 14q12 4 23 12.5t11 18.5q0 59 -71 299h-4q-47 -121 -140 -306q17 -9 46 -17zM404.5 352.5q23.5 96.5 23.5 165t-25 89t-102.5 20.5t-136.5 -18
q9 -82 51.5 -243t91.5 -297q74 187 97.5 283.5z" />
    <glyph glyph-name="X" unicode="X" horiz-adv-x="645" 
d="M452 609q0 22 -20 32l4 14q50 -4 105.5 -4t107.5 8l5 -25q-48 -15 -97 -21q-53 -84 -190 -265l196 -310q51 -7 96 -21l-4 -25q-59 8 -127.5 8t-99.5 -4l-4 14q4 8 4 22q0 65 -115 254q-129 -215 -129 -251q53 -5 110 -19l-3 -24q-80 8 -161.5 8t-138.5 -8l-5 25
q48 15 97 21q60 95 204 289l-180 286q-51 7 -96 21l4 25q63 -8 158.5 -8t175.5 8l3 -24q-57 -14 -110 -19q0 -62 100 -229q110 180 110 222z" />
    <glyph glyph-name="Y" unicode="Y" horiz-adv-x="545" 
d="M402 609q0 22 -20 32l4 14q50 -4 105.5 -4t107.5 8l5 -25q-48 -15 -97 -21l-196 -315q0 -167 13 -263q53 -5 110 -19l-3 -24q-74 8 -160.5 8t-139.5 -8l-4 25q45 14 96 21q11 82 11 207v26q-100 212 -127 266.5t-45 75.5q-56 7 -96 21l4 25q53 -8 143.5 -8t164.5 8l3 -24
q-57 -14 -110 -19q47 -140 120 -279q111 217 111 272z" />
    <glyph glyph-name="Z" unicode="Z" horiz-adv-x="491" 
d="M169.5 653q134.5 -13 192.5 -13t77 7.5t42 28.5l21 -16q-34 -33 -79 -111l-268 -476l4 -3h144q58 0 83 19q6 38 6 93h26q7 -113 79 -187l-19 -15q-8 10 -20 18q-142 23 -339 23q-81 0 -113 -38l-21 17q50 50 90 118l284 469l-3 3h-135q-63 0 -107 -19q-11 -57 -25 -91
l-24 4q2 38 2 72.5t-9 70.5q-16 9 -47 17l3 22q21 0 155.5 -13z" />
    <glyph glyph-name="bracketleft" unicode="[" horiz-adv-x="326" 
d="M270 -193q-108 0 -169 -15l-7 5q10 69 10 451t-10 451l7 5q61 -15 169 -15h26v-21q-78 -2 -132 -17v-806q54 -15 132 -17v-21h-26z" />
    <glyph glyph-name="backslash" unicode="\" horiz-adv-x="351" 
d="M282 -45h-5l-178 523q-46 137 -78 218q32 11 48 21h4q26 -95 69 -224l109 -318q32 -93 72 -192q-14 -16 -41 -28z" />
    <glyph glyph-name="bracketright" unicode="]" horiz-adv-x="326" 
d="M56 689q108 0 169 15l7 -5q-10 -69 -10 -451t10 -451l-7 -5q-61 15 -169 15h-26v21q78 2 132 17v806q-54 15 -132 17v21h26z" />
    <glyph glyph-name="asciicircum" unicode="^" horiz-adv-x="518" 
d="M259 580l-180 -289l-29 15q92 158 181 380l53 10q95 -238 184 -390l-29 -15z" />
    <glyph glyph-name="underscore" unicode="_" horiz-adv-x="615" 
d="M5 -134q170 -9 369.5 -9t238.5 3l6 -6l-8 -39h-606l-8 7z" />
    <glyph glyph-name="grave" unicode="`" horiz-adv-x="200" 
d="M25 693q10 2 21.5 2t21.5 -1q24 -42 59.5 -84t72.5 -67l-11 -18l-189 109q1 10 9.5 30.5t15.5 28.5z" />
    <glyph glyph-name="a" unicode="a" horiz-adv-x="514" 
d="M50 176q0 104 56 190.5t150 118.5q67 0 140 -21q14 21 23 53l21 -6q-22 -90 -22 -318q0 -102 7 -160q24 -8 54 -8v-21q-64 -3 -135 -19l-7 4q11 69 11 156l-4 1q-35 -50 -83 -97t-91 -64q-55 0 -87.5 61t-32.5 130zM130 221q0 -49 17.5 -101.5t50.5 -52.5q35 0 85 50
t65 90q0 149 -7 192q-53 24 -102.5 24t-75.5 -24q-33 -76 -33 -178z" />
    <glyph glyph-name="b" unicode="b" horiz-adv-x="511" 
d="M459 294q0 -104 -56 -190.5t-150 -118.5q-96 0 -175 36q13 116 13 367t-24 346l21 6q9 -32 23 -53q55 9 107 24l5 -18q-19 -15 -47 -29q-15 -82 -15 -339l4 -1q35 50 83 97t91 64q55 0 87.5 -61t32.5 -130zM379 249q0 49 -17.5 101.5t-50.5 52.5q-35 0 -85 -50t-65 -90
q0 -149 7 -192q53 -24 102.5 -24t75.5 24q33 76 33 178z" />
    <glyph glyph-name="c" unicode="c" horiz-adv-x="387" 
d="M238 57q55 0 114 53l10 -10q-58 -81 -141 -115q-87 0 -129 55t-42 154t56 183t146 108q61 0 121 -16v-14q-39 -48 -43 -105h-22q0 39 -2 61q-41 12 -81 12t-66 -24q-29 -61 -29 -154q0 -140 51 -173q23 -15 57 -15z" />
    <glyph glyph-name="d" unicode="d" horiz-adv-x="514" 
d="M50 176q0 104 56 190.5t150 118.5q54 0 98 -10q0 130 -7 188q-24 8 -54 8v21q64 3 135 19l7 -5q-17 -98 -17 -330v-183q0 -102 7 -160q24 -8 54 -8v-21q-64 -3 -135 -19l-7 4q11 69 11 156l-4 1q-35 -50 -83 -97t-91 -64q-55 0 -87.5 61t-32.5 130zM130 221
q0 -50 17.5 -102t50.5 -52q35 0 85 50t65 90q0 149 -7 192q-53 24 -102.5 24t-75.5 -24q-33 -76 -33 -178z" />
    <glyph glyph-name="e" unicode="e" horiz-adv-x="426" 
d="M238 57q63 0 123 53l11 -10q-57 -78 -146 -115q-88 0 -132 55t-44 153t55 182.5t147 109.5q67 0 94 -26.5t27 -93.5q0 -38 -10 -65q21 -8 49 -8l-1 -21h-13q-112 0 -268 -33q0 -133 52 -166q22 -15 56 -15zM280.5 397q-12.5 26 -52.5 26t-69 -24q-27 -56 -29 -135
q82 27 163 41q0 66 -12.5 92z" />
    <glyph glyph-name="f" unicode="f" horiz-adv-x="325" 
d="M177 428v-198q0 -134 12 -290q-14 2 -22.5 2h-12.5q-30 -55 -45 -142l-18 1q12 216 12 429v199h-54l-2 2q0 16 3 22q13 5 53 17q10 78 64 145t128 96q44 0 90 -16v-14q-38 -47 -43 -115h-22q0 39 -2 61q-19 12 -56.5 12t-62.5 -24q-21 -56 -21 -144l142 5l4 -4
q-7 -18 -13 -47q-51 3 -134 3z" />
    <glyph glyph-name="g" unicode="g" horiz-adv-x="503" 
d="M53 185q0 102 54 185.5t147 114.5q67 0 140 -21q44 9 77 19l5 -18q-19 -15 -47 -29q-13 -121 -13 -257.5t7 -212.5q-22 -55 -83 -108.5t-121 -72.5q-93 0 -178 31v19q19 67 112 167v4q-46 13 -73 67.5t-27 111.5zM133 229q0 -47 17.5 -97t50 -50t81 52.5t64.5 91.5
q0 131 -7 173q-53 24 -101 24t-75 -24q-30 -73 -30 -170zM243 -153q44 0 69 24q23 60 28.5 116t5.5 183l-4 1q-27 -57 -98 -119q-28 -24 -54 -50q-63 -63 -70 -127q55 -28 123 -28z" />
    <glyph glyph-name="h" unicode="h" horiz-adv-x="542" 
d="M385 291q0 112 -46 112q-39 0 -92 -49t-71 -91q0 -145 11 -233q27 -6 63 -19l-2 -19q-56 8 -106 8t-101 -6l-3 19q30 13 59 20q9 68 9 157v186q0 263 -24 358l21 6q9 -32 23 -53q55 9 107 24l5 -18q-19 -15 -47 -29q-15 -82 -15 -339l4 -1q34 47 88.5 96.5t98.5 64.5
q61 0 79 -55q12 -39 12 -96v-20l-5 -281q24 -8 54 -8v-21q-64 -3 -135 -19l-7 4q16 97 19 280q1 10 1 22z" />
    <glyph glyph-name="i" unicode="i" horiz-adv-x="287" 
d="M190 274v-84q0 -108 7 -160q28 -6 63 -19l-2 -19q-56 8 -106 8t-101 -6l-3 19q30 13 59 20q9 68 9 157v84q0 81 -8 162q-26 8 -54 8v21q77 5 142 20l7 -4q-13 -77 -13 -207zM208 620q-7 -13 -24.5 -33t-29.5 -28q-12 8 -29.5 28t-24.5 33q6 12 23 27.5t31 22.5
q13 -8 30 -23.5t24 -26.5z" />
    <glyph glyph-name="j" unicode="j" horiz-adv-x="291" 
d="M113 53v137q0 165 -8 246q-26 8 -54 8v21q77 5 142 20l7 -4q-15 -88 -15 -246.5t7 -234.5q-32 -109 -160 -215l-15 15q96 117 96 253zM206 620q-7 -13 -24.5 -33t-29.5 -28q-12 8 -29.5 28t-24.5 33q6 12 23 27.5t31 22.5q13 -8 30 -23.5t24 -26.5z" />
    <glyph glyph-name="k" unicode="k" horiz-adv-x="515" 
d="M253 -8q-56 8 -106 8t-101 -6l-3 19q30 13 59 20q9 68 9 197v187q0 151 -8 232q-26 8 -54 8v21q99 7 190 33l5 -18q-19 -15 -47 -29q-16 -88 -16 -338l4 -2q35 50 85 97.5t94 63.5q36 -9 58 -42t22 -72q0 -100 -100 -143l30 -64q10 -21 20.5 -45t15.5 -36q14 -29 27 -46
q0 -2 21.5 -5t32.5 -3v-21q-69 -3 -142 -20l-9 5q0 70 -57 218q-24 -2 -36 -2v21q54 3 85.5 31.5t31.5 79.5q0 17 -7.5 40.5t-19.5 31.5q-39 -7 -88.5 -57.5t-67.5 -92.5q0 -145 11 -233q28 -6 63 -19z" />
    <glyph glyph-name="l" unicode="l" horiz-adv-x="298" 
d="M186 230v-91.5t6 -108.5q28 -6 63 -19l-2 -19q-56 8 -106 8t-101 -6l-3 19q30 13 59 20q9 64 10 197l2 187v93.5t-7 138.5q-26 8 -54 8v21q100 7 191 33l5 -18q-19 -15 -47 -29q-12 -66 -14 -247z" />
    <glyph glyph-name="m" unicode="m" horiz-adv-x="809" 
d="M771 -6q-48 6 -81.5 6t-61.5 -2v14q15 78 19 257v16q0 118 -42 118q-36 0 -88 -49t-70 -91l-4 -232q34 -7 69 -20l-2 -19q-56 8 -91 8t-63 -2v14q15 78 19 257v16q0 118 -42 118q-36 0 -87.5 -49t-69.5 -91q0 -145 11 -233q27 -6 63 -19l-2 -19q-56 8 -106 8t-101 -6
l-3 19q30 13 59 20q9 68 9 157v84q0 92 -7 163q-24 8 -54 8v21q64 3 135 19l7 -4q-11 -69 -11 -156l4 -1q32 47 84 96.5t94 64.5q90 0 90 -160l4 -1q32 47 84 96.5t94 64.5q90 0 90 -157v-14l-5 -281q29 -7 59 -20z" />
    <glyph glyph-name="n" unicode="n" horiz-adv-x="547" 
d="M385 291q0 112 -46 112q-39 0 -92 -49t-71 -91q0 -145 11 -233q27 -6 63 -19l-2 -19q-56 8 -106 8t-101 -6l-3 19q30 13 59 20q9 68 9 157v84q0 92 -7 163q-24 8 -54 8v21q64 3 135 19l7 -4q-11 -69 -11 -156l4 -1q34 47 88.5 96.5t98.5 64.5q61 0 79 -55q12 -39 12 -96
v-20l-5 -281q29 -7 59 -20l-3 -19q-48 6 -81.5 6t-63.5 -2v14q16 78 20 257q1 10 1 22z" />
    <glyph glyph-name="o" unicode="o" horiz-adv-x="488" 
d="M101 43.5q-56 58.5 -56 153.5t57.5 179.5t151.5 108.5q93 0 141 -54t48 -149t-56 -179t-143 -118q-87 0 -143 58.5zM227 423q-42 0 -69 -24q-33 -63 -33 -145t37 -144.5t99 -62.5q42 0 70 25q32 61 32 148.5t-33.5 145t-102.5 57.5z" />
    <glyph glyph-name="p" unicode="p" horiz-adv-x="513" 
d="M463 294q0 -104 -56 -190.5t-150 -118.5q-54 0 -98 10q0 -109 7 -161q45 -11 79 -26l-3 -20q-62 12 -104.5 12t-99.5 -5l-4 20q30 7 51 18q10 86 10 281v163q0 102 -7 160q-24 8 -54 8v21q64 3 135 19l7 -4q-11 -69 -11 -156l4 -1q35 50 83 97t91 64q55 0 87.5 -61
t32.5 -130zM383 249q0 49 -17.5 101.5t-50.5 52.5q-35 0 -85 -50t-65 -90q0 -149 7 -192q53 -24 102.5 -24t75.5 24q33 76 33 178z" />
    <glyph glyph-name="q" unicode="q" horiz-adv-x="516" 
d="M50 176q0 104 56 190.5t150 118.5q67 0 140 -21q44 9 77 19l5 -18q-19 -15 -47 -29q-13 -104 -13 -319.5t8 -279.5q33 -6 54 -12l2 -19q-96 -6 -198 -33l-7 20q47 15 60 29q10 94 11 323l-4 1q-35 -50 -83 -97t-91 -64q-55 0 -87.5 61t-32.5 130zM130 221
q0 -49 17.5 -101.5t50.5 -52.5q35 0 85 50t65 90q0 149 -7 192q-53 24 -102.5 24t-75.5 -24q-33 -76 -33 -178z" />
    <glyph glyph-name="r" unicode="r" horiz-adv-x="381" 
d="M269 -8q-51 8 -111 8t-117 -6l-3 19q30 13 59 20q9 68 9 157v84q0 92 -7 163q-24 8 -54 8v21q64 3 135 19l7 -4q-11 -69 -11 -156l4 -1q14 40 51.5 92.5t69.5 68.5q45 0 88 -16v-14q-38 -48 -43 -125h-22q0 39 -2 61q-13 10 -34 10q-30 0 -63.5 -47.5t-48.5 -90.5
q0 -145 11 -233q50 -7 84 -19z" />
    <glyph glyph-name="s" unicode="s" horiz-adv-x="391" 
d="M93 110l2 -42v-4q46 -17 87 -17t68.5 18t27.5 60q0 31 -105 85q-39 20 -72 48.5t-33 55.5q0 53 56.5 106.5t106.5 64.5q64 0 124 -16v-14q-39 -48 -43 -105h-22q0 39 -2 61q-39 12 -74 12t-62.5 -13.5t-27.5 -43.5q0 -18 33 -42t72 -43.5t72 -48.5t33 -56
q0 -61 -55.5 -117.5t-112.5 -73.5q-72 0 -138 21v14q39 48 43 105h22v-15z" />
    <glyph glyph-name="t" unicode="t" horiz-adv-x="344" 
d="M170 195q0 -138 30 -138q55 0 114 53l10 -10q-58 -81 -141 -115q-57 0 -73 52q-14 44 -14 152v41l4 199h-54l-2 2q0 16 3 22q84 55 110 114q12 3 28 3l4 -2q-10 -60 -12 -97l140 5l4 -4q-7 -18 -13 -47q-51 3 -134 3l-4 -198v-35z" />
    <glyph glyph-name="u" unicode="u" horiz-adv-x="542" 
d="M157 179q0 -112 46 -112q39 0 92 49t71 91q0 145 -11 233q-27 6 -63 19l2 19q56 -8 106 -8t101 6l3 -19q-30 -13 -59 -20q-9 -68 -9 -157v-84q0 -92 7 -163q24 -8 54 -8v-21q-64 -3 -135 -19l-7 2q11 69 11 158l-4 1q-34 -47 -88.5 -96.5t-98.5 -64.5q-61 0 -79 55
q-12 39 -12 96v20l5 281q-24 8 -54 8v21q64 3 135 19l7 -4q-16 -97 -19 -280q-1 -10 -1 -22z" />
    <glyph glyph-name="v" unicode="v" horiz-adv-x="479" 
d="M443 395q0 -94 -53 -202.5t-127 -184.5q-27 -13 -59 -23q-44 10 -80 173q-15 71 -29 157.5t-23 120.5q-24 8 -54 8v21q67 3 142 20l7 -4q-8 -28 -8 -62.5t14.5 -122t32 -154t27 -81.5t20.5 -15q57 70 83.5 139.5t26.5 156.5q0 50 -21 92q-29 9 -56 9l1 21q102 4 192 27
l4 -18q-13 -10 -48 -28q8 -26 8 -50z" />
    <glyph glyph-name="w" unicode="w" horiz-adv-x="728" 
d="M688 395q0 -94 -51 -202.5t-122 -184.5q-25 -13 -56 -23q-46 11 -83 203q-47 -101 -120 -180q-25 -13 -56 -23q-17 4 -31.5 28t-35 103.5t-36.5 182.5t-25 137q-24 8 -54 8v21q67 3 142 20l7 -4q-8 -28 -8 -62.5t14 -122t30 -154t25 -81.5t19 -15q53 70 77.5 139.5
t24.5 141.5t-18 109q-24 8 -54 8v21q59 -4 146 -4q181 0 301 30l4 -18q-13 -10 -48 -28q8 -26 8 -50zM531 443q-81 0 -113 -20q0 -39 14 -126.5t30 -154t25 -81.5t19 -15q53 70 77.5 139.5t24.5 156.5q0 50 -21 92q-29 9 -56 9z" />
    <glyph glyph-name="x" unicode="x" horiz-adv-x="490" 
d="M405 330q0 39 -2 61q-13 10 -34.5 10t-72.5 -97l-20 -38l58 -102q54 -95 82 -131q0 -2 21.5 -5t32.5 -3v-21q-63 -3 -133 -19l-8 2q0 28 -60 138l-36 64q-24 -56 -65.5 -123t-69.5 -81q-45 0 -88 16v14q38 48 43 125h22q0 -39 2 -61q13 -10 34.5 -10t84.5 120l18 35
l-42 76q-38 65 -87 136q-24 8 -54 8v21q67 3 142 20l7 -4q0 -28 9 -51t48 -93l21 -37q28 59 63 115.5t61 69.5q45 0 88 -16v-14q-38 -48 -43 -125h-22z" />
    <glyph glyph-name="y" unicode="y" horiz-adv-x="530" 
d="M178 481q-19 -116 -19 -296q0 -118 42 -118q36 0 88.5 50.5t67.5 89.5q0 145 -11 233q-27 6 -63 19l2 19q56 -8 106 -8t101 6l3 -19q-30 -13 -59 -20q-9 -68 -9 -157v-84q0 -159 7 -230q-19 -55 -80 -107.5t-121 -73.5q-92 0 -168 29v13q37 44 42 112h21q0 -39 2 -61
q56 -31 128 -31q40 0 65 24q23 61 28.5 110.5t5.5 163.5l-4 1q-30 -45 -83 -95.5t-95 -65.5q-58 0 -75 55q-13 39 -13 96v20l5 281q-24 8 -54 8v21q63 3 133 19z" />
    <glyph glyph-name="z" unicode="z" horiz-adv-x="412" 
d="M386 126q-11 -39 -11 -71.5t7 -61.5l-12 -8q-154 46 -286 46q-31 -17 -60 -46l-17 15q32 32 73 90l209 295l-64 3q-74 3 -101 3t-36 -1q-20 -20 -37 -49l-19 11q29 53 36 126l13 7q25 -12 48 -16.5t103 -10.5l108 -9q31 17 50 36l17 -15q-42 -42 -73 -90l-192 -291l2 -4
q15 7 27 10q86 0 171 -20q10 22 23 58z" />
    <glyph glyph-name="braceleft" unicode="{" horiz-adv-x="300" 
d="M132.5 -159q-43.5 42 -43.5 88t13.5 128.5t13.5 129.5q0 36 -68 49l-4 19q72 16 72 54q0 47 -13.5 130t-13.5 128.5t43.5 87.5t91.5 56l4 -14q-27 -14 -51 -40t-33 -53q0 -47 22.5 -141t22.5 -134q-14 -34 -91 -79v-4q77 -45 91 -79q0 -40 -22.5 -134t-22.5 -141
q9 -27 33 -53t51 -40l-4 -14q-48 14 -91.5 56z" />
    <glyph glyph-name="bar" unicode="|" horiz-adv-x="238" 
d="M144 -199q-18 -10 -41 -17l-7 3q0 689 -7 936q34 14 52 27l5 -1q-2 -142 -2 -948z" />
    <glyph glyph-name="braceright" unicode="}" horiz-adv-x="288" 
d="M167.5 655q43.5 -42 43.5 -87.5t-13.5 -128.5t-13.5 -130q0 -38 72 -54l-4 -19q-68 -13 -68 -49q0 -47 13.5 -129.5t13.5 -128.5t-43.5 -88t-91.5 -56l-4 14q27 14 51 40t33 53q0 47 -22.5 141t-22.5 134q14 34 91 79v4q-77 45 -91 79q0 40 22.5 134t22.5 141
q-9 27 -33 53t-51 40l4 14q48 -14 91.5 -56z" />
    <glyph glyph-name="asciitilde" unicode="~" horiz-adv-x="590" 
d="M404 258q69 0 118 58l18 -11q-20 -38 -64 -71.5t-87 -45.5q-33 0 -110 33t-110 33q-66 0 -101 -54l-18 11q22 41 69.5 76.5t91.5 40.5q43 -29 96 -49.5t97 -20.5z" />
    <glyph glyph-name="nbspace" unicode="&#xa0;" horiz-adv-x="180" 
 />
    <glyph glyph-name="exclamdown" unicode="&#xa1;" horiz-adv-x="226" 
d="M66 436q7 11 24 26.5t30 23.5q14 -7 31 -22.5t23 -27.5q-7 -13 -24.5 -33t-29.5 -28q-12 8 -29.5 28t-24.5 33zM154 -183q-12 -6 -36 -11.5t-31.5 -5.5h-9.5q-11 10 -32 40q47 157 62 459l26 2z" />
    <glyph glyph-name="cent" unicode="&#xa2;" horiz-adv-x="450" 
d="M264 72q55 0 114 53l10 -10q-52 -74 -127 -109l-1 -98h-5q-16 5 -27 15l6 77q-81 4 -119.5 58.5t-38.5 147.5t47.5 172.5t126.5 111.5l4 98q15 2 28 6l4 -3q-5 -34 -8 -91q61 0 121 -16v-14q-39 -48 -43 -105h-22q0 39 -2 61q-38 10 -56 11l-13 -365h1zM194 98
q17 -17 42 -23l12 363q-38 -2 -63 -24q-29 -61 -29 -169.5t38 -146.5z" />
    <glyph glyph-name="sterling" unicode="&#xa3;" horiz-adv-x="450" 
d="M104 136l-5 105v1l-39 -3l-9 6l6 46h46q14 86 70 155.5t139 91.5q69 0 128 -16v-14q-37 -46 -43 -113h-22q0 41 -3 64q-42 14 -86 14t-74 -26q-31 -65 -31 -154q57 2 144 12l8 -5l-6 -42l-148 -11q-7 -97 -49 -159l3 -3q15 7 27 10h16q93 0 188 -21q10 22 23 58l21 -7
q-11 -39 -11 -71.5t7 -61.5l-12 -8q-154 46 -289 46q-31 -17 -60 -46l-17 15q37 37 72 89q6 21 6 48z" />
    <glyph glyph-name="currency" unicode="&#xa4;" horiz-adv-x="567" 
d="M430 487l77 81q42 -14 53 -16l2 -4l-99 -93q33 -42 33 -105q0 -89 -57 -152q85 -81 123 -115l-2 -4q-11 -2 -53 -16l-101 105q-51 -39 -117 -52q-82 0 -137 36l-91 -89h-5q-19 21 -24 47q25 21 83 75q-34 42 -34 101q0 84 52 145q-55 50 -101 90q5 26 24 47h5l105 -104
q56 45 135 59q76 0 129 -36zM385 426.5q-38 42.5 -104 42.5t-95 -26q-32 -45 -32 -116t38 -114t104 -43t95 26q32 45 32 116.5t-38 114z" />
    <glyph glyph-name="yen" unicode="&#xa5;" horiz-adv-x="450" 
d="M-19 529q60 -6 110 -6t110 11l5 -20q-32 -10 -50 -21q13 -59 93 -222q86 168 86 220q0 19 -13 32l3 7q29 -7 70.5 -7t69.5 4l2 -22q-35 -4 -54 -13l-144 -246v-1l44 2q63 3 84 5q4 -20 9 -31v-5l-137 -2q0 -34 1 -49l43 2q63 3 84 5q4 -20 9 -31v-5l-135 -2q1 -49 9 -104
q28 -6 63 -19l-2 -19q-56 8 -106 8t-101 -6l-3 19q30 13 59 20q4 34 7 99h-11q-72 -2 -118 -9l-3 4q6 20 7 32l126 4l1 49h-13q-72 -2 -118 -9l-3 4q6 20 7 32l118 4q-86 178 -131 244q-48 9 -80 22z" />
    <glyph glyph-name="brokenbar" unicode="&#xa6;" horiz-adv-x="245" 
d="M149 340q-18 -10 -41 -17l-7 3q-1 182 -7 399q34 14 52 27l5 -1q-2 -142 -2 -411zM149 -198q-18 -10 -41 -17l-7 3q-1 182 -7 399q34 14 52 27l5 -1q-2 -142 -2 -411z" />
    <glyph glyph-name="section" unicode="&#xa7;" horiz-adv-x="467" 
d="M347 144q18 24 18 57.5t-29 66t-70 63t-82 62.5q-99 77 -99 142q23 37 79.5 78.5t98.5 52.5q64 0 124 -16v-14q-39 -48 -43 -105h-22q0 39 -2 61q-39 12 -78.5 12t-62.5 -23q-7 -12 -7 -34q0 -35 39.5 -75t88 -70.5t92.5 -71t51 -74.5q-8 -25 -34.5 -64t-47.5 -61z
M125 10l2 -42v-4q46 -17 89 -17t66 23q7 12 7 34q0 35 -39.5 75t-88 70.5t-92.5 71t-51 74.5q8 25 34.5 64t47.5 61l14 -13q-18 -24 -18 -57.5t29 -66t70 -63t82 -62.5q99 -77 99 -142q-23 -37 -79.5 -78.5t-98.5 -52.5q-72 0 -138 21v14q39 48 43 105h22v-15z" />
    <glyph glyph-name="dieresis" unicode="&#xa8;" horiz-adv-x="293" 
d="M108 620q-7 -13 -24.5 -33t-29.5 -28q-12 8 -29.5 28t-24.5 33q6 12 23 27.5t31 22.5q13 -8 30 -23.5t24 -26.5zM293 620q-7 -13 -24.5 -33t-29.5 -28q-12 8 -29.5 28t-24.5 33q6 12 23 27.5t31 22.5q13 -8 30 -23.5t24 -26.5z" />
    <glyph glyph-name="copyright" unicode="&#xa9;" horiz-adv-x="765" 
d="M313.5 219q19.5 -42 71 -42t99.5 44l12 -13q-44 -55 -122 -89q-75 0 -113 45t-38 123.5t48.5 148.5t120.5 95q63 0 120 -13l-1 -17q-17 -2 -24 -7q-16 -35 -21 -83h-18q-7 30 -7 53q-28 15 -62 15t-57 -16q-28 -54 -28 -128t19.5 -116zM42 325q0 141 99.5 241t240.5 100
t241 -100t100 -241t-100 -240.5t-241 -99.5t-240.5 99.5t-99.5 240.5zM86 325q0 -123 86.5 -210.5t209.5 -87.5t210 87.5t87 210.5t-87 211t-210 88t-209.5 -88t-86.5 -211z" />
    <glyph glyph-name="ordfeminine" unicode="&#xaa;" horiz-adv-x="410" 
d="M38 414q0 84 47 154.5t125 97.5q56 0 117 -17q13 20 20 43l17 -5q-18 -86 -18 -212.5t6 -174.5q15 -7 40 -7v-18q-47 -2 -112 -16l-6 3q9 53 9 127h-3q-29 -40 -67.5 -78t-72.5 -52q-47 0 -74.5 49t-27.5 106zM109 451q0 -39 13.5 -81t39.5 -42q28 0 68 39.5t53 71.5
q0 119 -6 155q-37 20 -79 20t-63 -20q-26 -61 -26 -143z" />
    <glyph glyph-name="guillemotleft" unicode="&#xab;" horiz-adv-x="413" 
d="M111 283l108 -158l-20 -14q-93 107 -178 158v20q95 52 178 150l19 -13zM287 285l98 -143l-20 -14q-91 96 -168 143v20q100 55 168 135l19 -13z" />
    <glyph glyph-name="logicalnot" unicode="&#xac;" horiz-adv-x="550" 
d="M447 238h-388l-8 7l9 51q169 -9 279 -9t149 3l6 -6q0 -64 5 -196l-5 -6l-47 9v147z" />
    <glyph glyph-name="registered" unicode="&#xae;" horiz-adv-x="434" 
d="M21 500q0 82 57 139t139 57t139 -57t57 -139t-57 -139t-139 -57t-139 57t-57 139zM57 500q0 -68 46.5 -115t113.5 -47t112.5 47t45.5 115t-45.5 114t-112.5 46t-113.5 -46t-46.5 -114zM129 605l90 3q36 0 55 -9.5t19 -42.5t-37 -48l43 -88l20 -5v-11q-21 3 -42 3t-37 -2
l-2 7q6 5 6 22t-26 69q-8 3 -15 3l1 11h4q39 0 39 39q0 34 -33 34q-9 0 -17 -3q-1 -19 -1 -86t3 -81l22 -5l-1 -11q-23 3 -47 3t-48 -3v11q12 3 25 5q4 40 4 94t-3 75q-12 4 -22 4v12z" />
    <glyph glyph-name="macron" unicode="&#xaf;" horiz-adv-x="274" 
d="M54 638q49 -3 108 -3t104 4l8 -5l-9 -46l-256 -3l-9 6l9 50z" />
    <glyph glyph-name="degree" unicode="&#xb0;" horiz-adv-x="367" 
d="M85 425.5q-40 29.5 -40 87t41.5 100.5t105.5 54q58 0 94 -30t36 -87.5t-38 -99t-100 -54.5q-59 0 -99 29.5zM242 600.5q-23 27.5 -63 27.5t-58 -17q-19 -29 -19 -74.5t23.5 -73.5t63 -28t57.5 17q19 29 19 75t-23 73.5z" />
    <glyph glyph-name="plusminus" unicode="&#xb1;" horiz-adv-x="550" 
d="M299 267q0 -82 9 -177l-46 -9l-10 7v179h-186l-8 7l9 51q122 -6 185 -7v158l47 9l5 -6q-5 -88 -5 -161v-1q37 -1 97 -1t99 3l6 -6l-9 -46h-193zM59 58q170 -9 279.5 -9t148.5 3l6 -6l-9 -46h-426l-8 7z" />
    <glyph glyph-name="twosuperior" unicode="&#xb2;" horiz-adv-x="372" 
d="M143 422q14 1 49.5 1t100.5 -9q10 19 20 47l17 -6q-9 -30 -9 -56t6 -53l-10 -7q-144 30 -242 30q-14 -14 -26 -30l-17 8q18 37 70 91.5t90.5 104.5t38.5 85q0 66 -70 66q-28 0 -51 -11q-5 -12 -5 -27.5t8 -20.5v-6q-12 -7 -40 -33q-23 2 -23 24q0 37 44.5 74.5t89.5 51.5
q66 0 97 -32t31 -98q-76 -99 -190 -198l2 -3q11 5 19 7z" />
    <glyph glyph-name="threesuperior" unicode="&#xb3;" horiz-adv-x="334" 
d="M78 460q0 -27 1 -42q48 -27 84 -27t46 12q9 23 9 61t-23.5 64.5t-69.5 26.5l-3 4l85 119l-2 3q-11 -5 -19 -7q-45 0 -95 5q-10 -18 -16 -42l-17 6q5 28 5 51t-7 45l9 6q86 -18 203 -18q14 8 23 18l13 -11q-21 -19 -119 -134q104 -19 104 -138q-13 -37 -51 -73t-78 -50
q-71 0 -130 26v12q23 32 30 83h18z" />
    <glyph glyph-name="acute" unicode="&#xb4;" horiz-adv-x="200" 
d="M132 694q10 1 21.5 1t21.5 -2q7 -8 15.5 -28.5t9.5 -30.5l-189 -109l-11 18q37 25 72.5 67t59.5 84z" />
    <glyph glyph-name="mu" unicode="&#xb5;" horiz-adv-x="529" 
d="M451 480q-20 -69 -20 -222.5t7 -224.5q24 -8 54 -8v-21q-64 -3 -135 -19l-7 2q11 69 11 158l-4 1q-34 -48 -87 -97.5t-97 -63.5q-25 0 -37 14q0 -105 21 -195l-3 -3q-44 -8 -76 -20l-9 7q9 63 19 355l4 188v52.5t-6 83.5l4 3q57 6 92 15l6 -5q-35 -143 -35 -308
q0 -80 21 -96q10 -9 27 -9q38 0 90 48.5t70 91.5q0 189 -14 263q60 6 98 15z" />
    <glyph glyph-name="paragraph" unicode="&#xb6;" horiz-adv-x="574" 
d="M317 325v-144q0 -167 -45 -232q-18 -27 -53 -45.5t-83 -18.5q-12 0 -21 7.5t-10 19.5q27 25 42 50l7 1q11 -10 41 -10t44 7q28 76 28 171v165q-12 -1 -34 -1q-105 0 -171.5 64t-66.5 137t51 117.5t150 44.5q16 0 137 -7v-7q-16 -113 -16 -319zM365.5 90.5
q3.5 55.5 3.5 260t12 298.5q43 -4 136 -4h36v-25q-50 0 -98 -16q-11 -93 -11 -288.5t12 -277.5q51 -7 96 -21l-4 -25q-61 8 -117.5 8t-76.5 -1l-2 4q10 32 13.5 87.5z" />
    <glyph glyph-name="periodcentered" unicode="&#xb7;" horiz-adv-x="212" 
d="M160 284q-7 -13 -24.5 -33t-29.5 -28q-12 8 -29.5 28t-24.5 33q6 12 23 27.5t31 22.5q13 -8 30 -23.5t24 -26.5z" />
    <glyph glyph-name="cedilla" unicode="&#xb8;" horiz-adv-x="184" 
d="M88 -178q18 0 26 5q9 13 9 31q0 45 -83 45l-6 4l38 107l29 2l-24 -62l4 -3q46 0 74.5 -21t28.5 -63q-14 -27 -40.5 -49.5t-55.5 -32.5q-44 0 -88 21q10 19 16 39l4 2q32 -25 68 -25z" />
    <glyph glyph-name="onesuperior" unicode="&#xb9;" horiz-adv-x="303" 
d="M133 507v67q0 44 -3 91h-60l-2 2q0 11 2 17q72 20 110 60q12 2 26 2l3 -2q-11 -81 -11 -170v-67q0 -81 6 -127q25 -8 45 -17l-3 -17q-40 6 -85 6t-84 -7l-2 17q25 11 50 16q8 69 8 129z" />
    <glyph glyph-name="ordmasculine" unicode="&#xba;" horiz-adv-x="395" 
d="M79 307q-47 48 -47 125t48 145.5t126 88.5q77 0 117 -44t40 -121t-46.5 -145t-118.5 -97q-72 0 -119 48zM184 613q-34 0 -54 -19q-27 -53 -27 -118t29.5 -114t79.5 -49q32 0 54 20q26 47 26 117.5t-27 116.5t-81 46z" />
    <glyph glyph-name="guillemotright" unicode="&#xbb;" horiz-adv-x="413" 
d="M194 125l108 158l-105 143l17 13q83 -98 178 -150v-20q-85 -51 -178 -158zM28 142l98 143l-95 128l17 13q68 -80 168 -135v-20q-77 -47 -168 -143z" />
    <glyph glyph-name="onequarter" unicode="&#xbc;" horiz-adv-x="830" 
d="M729 263v-107q55 0 66 32l14 -4q-5 -25 -5 -44.5v-28.5l-4 -2q-24 2 -70 2q0 -45 5 -70q13 -7 45 -16l-3 -18q-40 6 -89 6t-82 -8l-2 17q27 12 54 17q5 29 5 72h-189l-4 12q137 160 191 266q36 4 71 17l6 -2q-9 -48 -9 -141zM151 -42l-5 1q-17 14 -29 40q93 118 125 161
l254 351q59 82 132 193q22 -5 53 -7l4 -3q-32 -40 -136 -184zM133 427v67q0 44 -3 91h-60l-2 2q0 11 2 17q72 20 110 60q12 2 26 2l3 -2q-11 -81 -11 -170v-67q0 -81 6 -127q25 -8 45 -17l-3 -17q-40 6 -85 6t-84 -7l-2 17q25 11 50 16q8 69 8 129zM660 331
q-33 -70 -105 -168q44 -6 108 -6l2 174h-5z" />
    <glyph glyph-name="onehalf" unicode="&#xbd;" horiz-adv-x="830" 
d="M151 -42l-5 1q-17 14 -29 40q93 118 125 161l254 351q59 82 132 193q22 -5 53 -7l4 -3q-32 -40 -136 -184zM133 427v67q0 44 -3 91h-60l-2 2q0 11 2 17q72 20 110 60q12 2 26 2l3 -2q-11 -81 -11 -170v-67q0 -81 6 -127q25 -8 45 -17l-3 -17q-40 6 -85 6t-84 -7l-2 17
q25 11 50 16q8 69 8 129zM600 83q15 1 50.5 1t99.5 -9q10 19 20 47l17 -6q-9 -30 -9 -56t6 -53l-10 -7q-144 30 -242 30q-14 -14 -26 -30l-17 8q18 37 70 91.5t90.5 104.5t38.5 86q0 65 -70 65q-28 0 -51 -11q-5 -12 -5 -27.5t8 -20.5v-6q-12 -7 -40 -33q-23 2 -23 24
q0 37 44.5 74.5t89.5 51.5q66 0 97 -32t31 -98q-76 -99 -190 -198l2 -3q11 5 19 7z" />
    <glyph glyph-name="threequarters" unicode="&#xbe;" horiz-adv-x="830" 
d="M729 263v-107q55 0 66 32l14 -4q-5 -25 -5 -44.5v-28.5l-4 -2q-24 2 -70 2q0 -45 5 -70q13 -7 45 -16l-3 -18q-40 6 -89 6t-82 -8l-2 17q27 12 54 17q5 29 5 72h-189l-4 12q137 160 191 266q36 4 71 17l6 -2q-9 -48 -9 -141zM78 380q0 -27 1 -42q48 -27 84 -27t46 12
q9 23 9 61t-23.5 64.5t-69.5 26.5l-3 4l85 119l-2 3q-11 -5 -19 -7q-45 0 -95 5q-10 -18 -16 -42l-17 6q5 28 5 51t-7 45l9 6q86 -18 203 -18q14 8 23 18l13 -11q-21 -19 -119 -134q104 -19 104 -138q-13 -37 -51 -73t-78 -50q-71 0 -130 26v12q23 32 30 83h18zM151 -42
l-5 1q-17 14 -29 40q93 118 125 161l254 351q59 82 132 193q22 -5 53 -7l4 -3q-32 -40 -136 -184zM660 331q-33 -70 -105 -168q44 -6 108 -6l2 174h-5z" />
    <glyph glyph-name="questiondown" unicode="&#xbf;" horiz-adv-x="335" 
d="M128 436q7 11 24 26.5t30 23.5q14 -7 31 -22.5t23 -27.5q-7 -13 -24.5 -33t-29.5 -28q-12 8 -29.5 28t-24.5 33zM96 -79q0 -37 24 -55.5t61 -18.5t65 14q7 12 7 32t-10 29l1 7q26 16 48 40q12 -1 19 -9.5t7 -19.5q0 -46 -53.5 -92.5t-108.5 -62.5q-81 0 -118.5 39
t-37.5 120q63 90 158 185q7 89 11 170l26 2l21 -139v-19q-120 -120 -120 -222z" />
    <glyph glyph-name="Agrave" unicode="&#xc0;" horiz-adv-x="599" 
d="M98 662q114 -11 238 -11t238 11l4 -25q-45 -14 -96 -21q-13 -96 -13 -290.5t13 -290.5q53 -5 110 -19l-3 -24q-74 8 -160.5 8t-139.5 -8l-4 25q45 14 96 21q8 66 11 213q-52 6 -114.5 6t-105.5 -6q-24 -98 -24 -157t43 -84l-4 -14q-31 4 -104.5 4t-132.5 -8l-4 25
q45 14 96 21l164 581q-56 6 -111 19zM183 301q45 -7 106.5 -7t102.5 7q0 242 -10 310q-31 3 -61.5 3t-62.5 -3zM370 731l-206 75q-1 10 4.5 31.5t10.5 30.5q20 7 42 9q75 -90 157 -126z" />
    <glyph glyph-name="Aacute" unicode="&#xc1;" horiz-adv-x="599" 
d="M98 662q114 -11 238 -11t238 11l4 -25q-45 -14 -96 -21q-13 -96 -13 -290.5t13 -290.5q53 -5 110 -19l-3 -24q-74 8 -160.5 8t-139.5 -8l-4 25q45 14 96 21q8 66 11 213q-52 6 -114.5 6t-105.5 -6q-24 -98 -24 -157t43 -84l-4 -14q-31 4 -104.5 4t-132.5 -8l-4 25
q45 14 96 21l164 581q-56 6 -111 19zM183 301q45 -7 106.5 -7t102.5 7q0 242 -10 310q-31 3 -61.5 3t-62.5 -3zM529 797l-206 -75l-8 20q82 36 157 126q22 -2 42 -9q5 -9 10.5 -30.5t4.5 -31.5z" />
    <glyph glyph-name="Acircumflex" unicode="&#xc2;" horiz-adv-x="599" 
d="M98 662q114 -11 238 -11t238 11l4 -25q-45 -14 -96 -21q-13 -96 -13 -290.5t13 -290.5q53 -5 110 -19l-3 -24q-74 8 -160.5 8t-139.5 -8l-4 25q45 14 96 21q8 66 11 213q-52 6 -114.5 6t-105.5 -6q-24 -98 -24 -157t43 -84l-4 -14q-31 4 -104.5 4t-132.5 -8l-4 25
q45 14 96 21l164 581q-56 6 -111 19zM183 301q45 -7 106.5 -7t102.5 7q0 242 -10 310q-31 3 -61.5 3t-62.5 -3zM509 715l-161 75l-161 -75l-10 19q92 58 161 151h20q69 -93 161 -151z" />
    <glyph glyph-name="Atilde" unicode="&#xc3;" horiz-adv-x="599" 
d="M98 662q114 -11 238 -11t238 11l4 -25q-45 -14 -96 -21q-13 -96 -13 -290.5t13 -290.5q53 -5 110 -19l-3 -24q-74 8 -160.5 8t-139.5 -8l-4 25q45 14 96 21q8 66 11 213q-52 6 -114.5 6t-105.5 -6q-24 -98 -24 -157t43 -84l-4 -14q-31 4 -104.5 4t-132.5 -8l-4 25
q45 14 96 21l164 581q-56 6 -111 19zM183 301q45 -7 106.5 -7t102.5 7q0 242 -10 310q-31 3 -61.5 3t-62.5 -3zM311 837q59 -31 111.5 -31t72.5 24l18 -11q-56 -61 -104 -82q-21 0 -72.5 15.5t-72.5 15.5q-43 0 -63 -24l-18 11q56 61 128 82z" />
    <glyph glyph-name="Adieresis" unicode="&#xc4;" horiz-adv-x="599" 
d="M98 662q114 -11 238 -11t238 11l4 -25q-45 -14 -96 -21q-13 -96 -13 -290.5t13 -290.5q53 -5 110 -19l-3 -24q-74 8 -160.5 8t-139.5 -8l-4 25q45 14 96 21q8 66 11 213q-52 6 -114.5 6t-105.5 -6q-24 -98 -24 -157t43 -84l-4 -14q-31 4 -104.5 4t-132.5 -8l-4 25
q45 14 96 21l164 581q-56 6 -111 19zM183 301q45 -7 106.5 -7t102.5 7q0 242 -10 310q-31 3 -61.5 3t-62.5 -3zM310 803q-7 -13 -24.5 -33t-29.5 -28q-12 8 -29.5 28t-24.5 33q6 12 23 27.5t31 22.5q13 -8 30 -23.5t24 -26.5zM495 803q-7 -13 -24.5 -33t-29.5 -28
q-12 8 -29.5 28t-24.5 33q6 12 23 27.5t31 22.5q13 -8 30 -23.5t24 -26.5z" />
    <glyph glyph-name="Aring" unicode="&#xc5;" horiz-adv-x="599" 
d="M98 662q114 -11 238 -11t238 11l4 -25q-45 -14 -96 -21q-13 -96 -13 -290.5t13 -290.5q53 -5 110 -19l-3 -24q-74 8 -160.5 8t-139.5 -8l-4 25q45 14 96 21q8 66 11 213q-52 6 -114.5 6t-105.5 -6q-24 -98 -24 -157t43 -84l-4 -14q-31 4 -104.5 4t-132.5 -8l-4 25
q45 14 96 21l164 581q-56 6 -111 19zM183 301q45 -7 106.5 -7t102.5 7q0 242 -10 310q-31 3 -61.5 3t-62.5 -3zM271 723q-28 19 -28 56.5t29.5 67t72.5 38.5q91 0 91 -74q0 -39 -26.5 -66.5t-69.5 -40.5q-41 0 -69 19zM373.5 834q-15.5 16 -38.5 16t-34 -9q-11 -17 -11 -43
t16 -42.5t39 -16.5t33 9q11 16 11 43t-15.5 43z" />
    <glyph glyph-name="AE" unicode="&#xc6;" horiz-adv-x="748" 
d="M134 662q135 -11 294.5 -11t294.5 11l4 -20q-52 -53 -59 -158h-25q-9 43 -9 109q-43 21 -99.5 21t-84.5 -5q-17 -52 -25 -244q32 -7 77 -7q89 0 109 43l20 -4q-9 -32 -9 -76.5t6 -87.5l-23 -4q-15 38 -20 89q-37 3 -82 3t-79 -5v-43q0 -95 24 -149q26 -60 112 -60
q72 0 148 78l14 -13q-83 -110 -183 -144q-111 0 -154 68t-43 188v11l1 63q-32 6 -77.5 6t-70.5 -6l-14 -46q-38 -126 -38 -181.5t38 -77.5l-4 -14q-31 4 -104.5 4t-132.5 -8l-4 25q45 14 96 21l210 581q-57 6 -111 19zM213 364q23 -6 65 -6t67 7q6 110 8.5 146t2.5 60t-3 40
q-13 3 -32 3t-36 -3z" />
    <glyph glyph-name="Ccedilla" unicode="&#xc7;" horiz-adv-x="498" 
d="M304 64q-51 0 -87 22q-86 53 -86 253q0 134 51 221q43 36 108.5 36t112.5 -25q0 -53 9 -93h25q8 79 33 138q22 9 48 9l1 22q-105 19 -206 19q-124 -34 -197.5 -148.5t-73.5 -248t60.5 -209t180.5 -75.5q115 38 198 144l-14 13q-82 -78 -163 -78zM263 -178q18 0 26 5
q9 13 9 31q0 45 -83 45l-6 4l38 107l29 2l-24 -62l4 -3q46 0 74.5 -21t28.5 -63q-14 -27 -40.5 -49.5t-55.5 -32.5q-44 0 -88 21q10 19 16 39l4 2q32 -25 68 -25z" />
    <glyph glyph-name="Egrave" unicode="&#xc8;" horiz-adv-x="512" 
d="M304 64q81 0 163 78l14 -13q-83 -106 -198 -144q-120 0 -180.5 75.5t-60.5 209t73.5 248t197.5 148.5q101 0 206 -19l-1 -22q-26 0 -48 -9q-25 -59 -33 -138h-25q-9 40 -9 93q-47 25 -112.5 25t-108.5 -36q-45 -77 -50 -187q43 -8 112 -8q111 0 132 43l20 -4
q-9 -32 -9 -76t6 -88l-23 -4q-15 38 -20 89q-38 3 -108.5 3t-110.5 -5q3 -188 89 -239q34 -20 84 -20zM362 731l-206 75q-1 10 4.5 31.5t10.5 30.5q20 7 42 9q75 -90 157 -126z" />
    <glyph glyph-name="Eacute" unicode="&#xc9;" horiz-adv-x="512" 
d="M304 64q81 0 163 78l14 -13q-83 -106 -198 -144q-120 0 -180.5 75.5t-60.5 209t73.5 248t197.5 148.5q101 0 206 -19l-1 -22q-26 0 -48 -9q-25 -59 -33 -138h-25q-9 40 -9 93q-47 25 -112.5 25t-108.5 -36q-45 -77 -50 -187q43 -8 112 -8q111 0 132 43l20 -4
q-9 -32 -9 -76t6 -88l-23 -4q-15 38 -20 89q-38 3 -108.5 3t-110.5 -5q3 -188 89 -239q34 -20 84 -20zM456 797l-206 -75l-8 20q82 36 157 126q22 -2 42 -9q5 -9 10.5 -30.5t4.5 -31.5z" />
    <glyph glyph-name="Ecircumflex" unicode="&#xca;" horiz-adv-x="512" 
d="M304 64q81 0 163 78l14 -13q-83 -106 -198 -144q-120 0 -180.5 75.5t-60.5 209t73.5 248t197.5 148.5q101 0 206 -19l-1 -22q-26 0 -48 -9q-25 -59 -33 -138h-25q-9 40 -9 93q-47 25 -112.5 25t-108.5 -36q-45 -77 -50 -187q43 -8 112 -8q111 0 132 43l20 -4
q-9 -32 -9 -76t6 -88l-23 -4q-15 38 -20 89q-38 3 -108.5 3t-110.5 -5q3 -188 89 -239q34 -20 84 -20zM472 715l-161 75l-161 -75l-10 19q92 58 161 151h20q69 -93 161 -151z" />
    <glyph glyph-name="Edieresis" unicode="&#xcb;" horiz-adv-x="512" 
d="M304 64q81 0 163 78l14 -13q-83 -106 -198 -144q-120 0 -180.5 75.5t-60.5 209t73.5 248t197.5 148.5q101 0 206 -19l-1 -22q-26 0 -48 -9q-25 -59 -33 -138h-25q-9 40 -9 93q-47 25 -112.5 25t-108.5 -36q-45 -77 -50 -187q43 -8 112 -8q111 0 132 43l20 -4
q-9 -32 -9 -76t6 -88l-23 -4q-15 38 -20 89q-38 3 -108.5 3t-110.5 -5q3 -188 89 -239q34 -20 84 -20zM272 803q-7 -13 -24.5 -33t-29.5 -28q-12 8 -29.5 28t-24.5 33q6 12 23 27.5t31 22.5q13 -8 30 -23.5t24 -26.5zM457 803q-7 -13 -24.5 -33t-29.5 -28q-12 8 -29.5 28
t-24.5 33q6 12 23 27.5t31 22.5q13 -8 30 -23.5t24 -26.5z" />
    <glyph glyph-name="Igrave" unicode="&#xcc;" horiz-adv-x="337" 
d="M218 616q-11 -75 -11 -280t13 -301q53 -5 110 -19l-3 -24q-74 8 -160.5 8t-139.5 -8l-4 25q45 14 96 21q11 82 11 258v59q0 162 -13 258q-51 7 -96 21l4 25q53 -8 139.5 -8t160.5 8l3 -24q-57 -14 -110 -19zM243 731l-206 75q-1 10 4.5 31.5t10.5 30.5q20 7 42 9
q75 -90 157 -126z" />
    <glyph glyph-name="Iacute" unicode="&#xcd;" horiz-adv-x="337" 
d="M218 616q-11 -75 -11 -280t13 -301q53 -5 110 -19l-3 -24q-74 8 -160.5 8t-139.5 -8l-4 25q45 14 96 21q11 82 11 258v59q0 162 -13 258q-51 7 -96 21l4 25q53 -8 139.5 -8t160.5 8l3 -24q-57 -14 -110 -19zM315 797l-206 -75l-8 20q82 36 157 126q22 -2 42 -9
q5 -9 10.5 -30.5t4.5 -31.5z" />
    <glyph glyph-name="Icircumflex" unicode="&#xce;" horiz-adv-x="337" 
d="M218 616q-11 -75 -11 -280t13 -301q53 -5 110 -19l-3 -24q-74 8 -160.5 8t-139.5 -8l-4 25q45 14 96 21q11 82 11 258v59q0 162 -13 258q-51 7 -96 21l4 25q53 -8 139.5 -8t160.5 8l3 -24q-57 -14 -110 -19zM335 715l-161 75l-161 -75l-10 19q92 58 161 151h20
q69 -93 161 -151z" />
    <glyph glyph-name="Idieresis" unicode="&#xcf;" horiz-adv-x="337" 
d="M218 616q-11 -75 -11 -280t13 -301q53 -5 110 -19l-3 -24q-74 8 -160.5 8t-139.5 -8l-4 25q45 14 96 21q11 82 11 258v59q0 162 -13 258q-51 7 -96 21l4 25q53 -8 139.5 -8t160.5 8l3 -24q-57 -14 -110 -19zM135 803q-7 -13 -24.5 -33t-29.5 -28q-12 8 -29.5 28t-24.5 33
q6 12 23 27.5t31 22.5q13 -8 30 -23.5t24 -26.5zM320 803q-7 -13 -24.5 -33t-29.5 -28q-12 8 -29.5 28t-24.5 33q6 12 23 27.5t31 22.5q13 -8 30 -23.5t24 -26.5z" />
    <glyph glyph-name="Eth" unicode="&#xd0;" horiz-adv-x="619" 
d="M16 649l288 9q134 0 203.5 -69t69.5 -205.5t-73 -249.5t-198 -149q-72 0 -161 38q-17 -26 -23 -45l-21 5q24 108 24 341q-62 -3 -106 -9l-3 4q6 20 7 32l102 3q-1 150 -11 254q-48 16 -98 16v25zM207 85q54 -28 123 -28t107 34q51 93 51 229q0 124 -42 208
q-22 44 -62.5 68.5t-88.5 24.5t-84 -13q-9 -87 -9 -251l62 2q64 3 84 5q4 -20 9 -31v-5l-122 -2l-33 -1q0 -152 5 -240z" />
    <glyph glyph-name="Ntilde" unicode="&#xd1;" horiz-adv-x="706" 
d="M25 659q50 -8 129.5 -8t123.5 6l5 -16q-12 -4 -23 -12.5t-11 -18.5q0 -24 51 -112t224 -358l4 2v144q0 168 -17 254t-60 101l4 14q31 -4 101 -4t129 8l3 -23q-71 -17 -99 -20q-13 -98 -13 -261v-59q0 -187 13 -261q51 -6 96 -18l-4 -25q-53 8 -106.5 8t-86.5 -3
q0 69 -301 538l-4 -2v-168q0 -255 37 -330q55 -5 109 -19l-2 -24q-74 8 -160.5 8t-139.5 -8l-4 25q45 14 96 21q11 82 11 258v59q0 162 -13 258q-51 7 -96 21zM329 837q59 -31 111.5 -31t72.5 24l18 -11q-56 -61 -104 -82q-21 0 -72.5 15.5t-72.5 15.5q-43 0 -63 -24l-18 11
q56 61 128 82z" />
    <glyph glyph-name="Ograve" unicode="&#xd2;" horiz-adv-x="602" 
d="M113 62.5q-71 77.5 -71 209.5t74.5 246.5t196.5 147.5q122 0 184.5 -73t62.5 -208.5t-68.5 -244t-190.5 -155.5q-117 0 -188 77.5zM276 594q-56 0 -94 -34q-51 -90 -51 -221q0 -156 84 -238q45 -44 105.5 -44t100.5 35q50 92 50 218q0 117 -40 196q-44 88 -155 88z
M385 731l-206 75q-1 10 4.5 31.5t10.5 30.5q20 7 42 9q75 -90 157 -126z" />
    <glyph glyph-name="Oacute" unicode="&#xd3;" horiz-adv-x="602" 
d="M113 62.5q-71 77.5 -71 209.5t74.5 246.5t196.5 147.5q122 0 184.5 -73t62.5 -208.5t-68.5 -244t-190.5 -155.5q-117 0 -188 77.5zM276 594q-56 0 -94 -34q-51 -90 -51 -221q0 -156 84 -238q45 -44 105.5 -44t100.5 35q50 92 50 218q0 117 -40 196q-44 88 -155 88z
M485 797l-206 -75l-8 20q82 36 157 126q22 -2 42 -9q5 -9 10.5 -30.5t4.5 -31.5z" />
    <glyph glyph-name="Ocircumflex" unicode="&#xd4;" horiz-adv-x="602" 
d="M113 62.5q-71 77.5 -71 209.5t74.5 246.5t196.5 147.5q122 0 184.5 -73t62.5 -208.5t-68.5 -244t-190.5 -155.5q-117 0 -188 77.5zM276 594q-56 0 -94 -34q-51 -90 -51 -221q0 -156 84 -238q45 -44 105.5 -44t100.5 35q50 92 50 218q0 117 -40 196q-44 88 -155 88z
M482 715l-161 75l-161 -75l-10 19q92 58 161 151h20q69 -93 161 -151z" />
    <glyph glyph-name="Otilde" unicode="&#xd5;" horiz-adv-x="602" 
d="M113 62.5q-71 77.5 -71 209.5t74.5 246.5t196.5 147.5q122 0 184.5 -73t62.5 -208.5t-68.5 -244t-190.5 -155.5q-117 0 -188 77.5zM276 594q-56 0 -94 -34q-51 -90 -51 -221q0 -156 84 -238q45 -44 105.5 -44t100.5 35q50 92 50 218q0 117 -40 196q-44 88 -155 88z
M285 837q59 -31 111.5 -31t72.5 24l18 -11q-56 -61 -104 -82q-21 0 -72.5 15.5t-72.5 15.5q-43 0 -63 -24l-18 11q56 61 128 82z" />
    <glyph glyph-name="Odieresis" unicode="&#xd6;" horiz-adv-x="602" 
d="M113 62.5q-71 77.5 -71 209.5t74.5 246.5t196.5 147.5q122 0 184.5 -73t62.5 -208.5t-68.5 -244t-190.5 -155.5q-117 0 -188 77.5zM276 594q-56 0 -94 -34q-51 -90 -51 -221q0 -156 84 -238q45 -44 105.5 -44t100.5 35q50 92 50 218q0 117 -40 196q-44 88 -155 88z
M283 803q-7 -13 -24.5 -33t-29.5 -28q-12 8 -29.5 28t-24.5 33q6 12 23 27.5t31 22.5q13 -8 30 -23.5t24 -26.5zM468 803q-7 -13 -24.5 -33t-29.5 -28q-12 8 -29.5 28t-24.5 33q6 12 23 27.5t31 22.5q13 -8 30 -23.5t24 -26.5z" />
    <glyph glyph-name="multiply" unicode="&#xd7;" horiz-adv-x="550" 
d="M427 425l38 -35l-154 -151q37 -38 94.5 -89t69.5 -61l-28 -39h-11l-158 155l-158 -155h-11l-28 39q130 116 163 150l-153 151l38 35l8 -1q43 -48 141 -151l141 151z" />
    <glyph glyph-name="Oslash" unicode="&#xd8;" horiz-adv-x="602" 
d="M42 265q0 139 74.5 253.5t196.5 147.5q44 0 83 -11l25 77q23 2 38 7l4 -3q-14 -32 -37 -91q134 -59 134 -258q0 -138 -68.5 -246.5t-190.5 -155.5q-60 0 -117 25l-36 -97h-5q-16 9 -26 24l39 89q-54 36 -84 98t-30 141zM217 97q45 -40 104.5 -40t99.5 35q50 92 50 218
q0 177 -79 246zM368 573q-39 21 -93.5 21t-92.5 -34q-51 -90 -51 -223t64 -216z" />
    <glyph glyph-name="Ugrave" unicode="&#xd9;" horiz-adv-x="665" 
d="M197 549q-14 -126 -14 -219.5t3 -123t12 -57.5t24 -46q34 -39 106 -39t125 48q5 130 5 260t-11 244q-51 7 -96 21l4 22q61 -8 148.5 -8t151.5 8l3 -21q-57 -14 -110 -19q-13 -74 -13 -264v-59q0 -187 13 -261q53 -5 110 -19l-3 -24q-64 8 -130 8t-84 -1l-3 14q9 11 13 71
q-58 -65 -146 -99q-111 0 -156.5 65.5t-45.5 190.5q0 57 7 181t7 147t-7 44q-51 7 -96 21l4 25q59 -8 127.5 -8t99.5 4l4 -14q-45 -25 -52 -92zM394 731l-206 75q-1 10 4.5 31.5t10.5 30.5q20 7 42 9q75 -90 157 -126z" />
    <glyph glyph-name="Uacute" unicode="&#xda;" horiz-adv-x="665" 
d="M197 549q-14 -126 -14 -219.5t3 -123t12 -57.5t24 -46q34 -39 106 -39t125 48q5 130 5 260t-11 244q-51 7 -96 21l4 22q61 -8 148.5 -8t151.5 8l3 -21q-57 -14 -110 -19q-13 -74 -13 -264v-59q0 -187 13 -261q53 -5 110 -19l-3 -24q-64 8 -130 8t-84 -1l-3 14q9 11 13 71
q-58 -65 -146 -99q-111 0 -156.5 65.5t-45.5 190.5q0 57 7 181t7 147t-7 44q-51 7 -96 21l4 25q59 -8 127.5 -8t99.5 4l4 -14q-45 -25 -52 -92zM519 797l-206 -75l-8 20q82 36 157 126q22 -2 42 -9q5 -9 10.5 -30.5t4.5 -31.5z" />
    <glyph glyph-name="Ucircumflex" unicode="&#xdb;" horiz-adv-x="665" 
d="M197 549q-14 -126 -14 -219.5t3 -123t12 -57.5t24 -46q34 -39 106 -39t125 48q5 130 5 260t-11 244q-51 7 -96 21l4 22q61 -8 148.5 -8t151.5 8l3 -21q-57 -14 -110 -19q-13 -74 -13 -264v-59q0 -187 13 -261q53 -5 110 -19l-3 -24q-64 8 -130 8t-84 -1l-3 14q9 11 13 71
q-58 -65 -146 -99q-111 0 -156.5 65.5t-45.5 190.5q0 57 7 181t7 147t-7 44q-51 7 -96 21l4 25q59 -8 127.5 -8t99.5 4l4 -14q-45 -25 -52 -92zM504 715l-161 75l-161 -75l-10 19q92 58 161 151h20q69 -93 161 -151z" />
    <glyph glyph-name="Udieresis" unicode="&#xdc;" horiz-adv-x="665" 
d="M197 549q-14 -126 -14 -219.5t3 -123t12 -57.5t24 -46q34 -39 106 -39t125 48q5 130 5 260t-11 244q-51 7 -96 21l4 22q61 -8 148.5 -8t151.5 8l3 -21q-57 -14 -110 -19q-13 -74 -13 -264v-59q0 -187 13 -261q53 -5 110 -19l-3 -24q-64 8 -130 8t-84 -1l-3 14q9 11 13 71
q-58 -65 -146 -99q-111 0 -156.5 65.5t-45.5 190.5q0 57 7 181t7 147t-7 44q-51 7 -96 21l4 25q59 -8 127.5 -8t99.5 4l4 -14q-45 -25 -52 -92zM305 803q-7 -13 -24.5 -33t-29.5 -28q-12 8 -29.5 28t-24.5 33q6 12 23 27.5t31 22.5q13 -8 30 -23.5t24 -26.5zM490 803
q-7 -13 -24.5 -33t-29.5 -28q-12 8 -29.5 28t-24.5 33q6 12 23 27.5t31 22.5q13 -8 30 -23.5t24 -26.5z" />
    <glyph glyph-name="Yacute" unicode="&#xdd;" horiz-adv-x="545" 
d="M402 609q0 22 -20 32l4 14q50 -4 105.5 -4t107.5 8l5 -25q-48 -15 -97 -21l-196 -315q0 -167 13 -263q53 -5 110 -19l-3 -24q-74 8 -160.5 8t-139.5 -8l-4 25q45 14 96 21q11 82 11 207v26q-100 212 -127 266.5t-45 75.5q-56 7 -96 21l4 25q53 -8 143.5 -8t164.5 8l3 -24
q-57 -14 -110 -19q47 -140 120 -279q111 217 111 272zM476 797l-206 -75l-8 20q82 36 157 126q22 -2 42 -9q5 -9 10.5 -30.5t4.5 -31.5z" />
    <glyph glyph-name="Thorn" unicode="&#xde;" horiz-adv-x="510" 
d="M211 525l94 3q206 0 206 -164q0 -89 -73 -144t-170 -55q-15 0 -22 1l4 32h12q75 0 115 38t40 111t-31 108.5t-98 35.5q-40 0 -78 -13h-1q-2 -40 -2 -193.5t13 -249.5q53 -5 110 -19l-3 -24q-74 8 -160.5 8t-139.5 -8l-4 25q45 14 96 21q11 82 11 258v59q0 162 -13 258
q-51 7 -96 21l4 25q53 -8 139.5 -8t160.5 8l3 -24q-57 -14 -110 -19q-4 -19 -7 -91z" />
    <glyph glyph-name="germandbls" unicode="&#xdf;" horiz-adv-x="525" 
d="M287 110l2 -42v-4q28 -17 68 -17t62 20t22 58q0 34 -87 127q-33 34 -60.5 74t-27.5 67v9q118 71 118 164q0 83 -94 83q-55 0 -86 -28q-16 -36 -21.5 -76.5t-5.5 -115.5v-199q0 -134 12 -290q-14 2 -22.5 2h-12.5q-30 -55 -45 -142l-18 1q12 216 12 429v199h-54l-2 2
q0 16 3 22q13 5 53 17q13 87 69 151t141 90q62 0 103.5 -24.5t41.5 -76.5q0 -37 -18.5 -72t-40 -56t-40 -39t-18.5 -23q0 -35 78 -114q29 -30 53.5 -66.5t24.5 -63.5q0 -56 -50 -114t-108 -77q-62 0 -117 21v14q39 48 43 105h22v-15z" />
    <glyph glyph-name="agrave" unicode="&#xe0;" horiz-adv-x="514" 
d="M153 693q10 2 21.5 2t21.5 -1q24 -42 59.5 -84t72.5 -67l-11 -18l-189 109q1 10 9.5 30.5t15.5 28.5zM50 176q0 104 56 190.5t150 118.5q67 0 140 -21q14 21 23 53l21 -6q-22 -90 -22 -318q0 -102 7 -160q24 -8 54 -8v-21q-64 -3 -135 -19l-7 4q11 69 11 156l-4 1
q-35 -50 -83 -97t-91 -64q-55 0 -87.5 61t-32.5 130zM130 221q0 -49 17.5 -101.5t50.5 -52.5q35 0 85 50t65 90q0 149 -7 192q-53 24 -102.5 24t-75.5 -24q-33 -76 -33 -178z" />
    <glyph glyph-name="aacute" unicode="&#xe1;" horiz-adv-x="514" 
d="M50 176q0 104 56 190.5t150 118.5q67 0 140 -21q14 21 23 53l21 -6q-22 -90 -22 -318q0 -102 7 -160q24 -8 54 -8v-21q-64 -3 -135 -19l-7 4q11 69 11 156l-4 1q-35 -50 -83 -97t-91 -64q-55 0 -87.5 61t-32.5 130zM130 221q0 -49 17.5 -101.5t50.5 -52.5q35 0 85 50
t65 90q0 149 -7 192q-53 24 -102.5 24t-75.5 -24q-33 -76 -33 -178zM359 694q10 1 21.5 1t21.5 -2q7 -8 15.5 -28.5t9.5 -30.5l-189 -109l-11 18q37 25 72.5 67t59.5 84z" />
    <glyph glyph-name="acircumflex" unicode="&#xe2;" horiz-adv-x="514" 
d="M277 612l-134 -90l-13 17q84 71 137 168h20q55 -92 137 -158l-13 -17zM50 176q0 104 56 190.5t150 118.5q67 0 140 -21q14 21 23 53l21 -6q-22 -90 -22 -318q0 -102 7 -160q24 -8 54 -8v-21q-64 -3 -135 -19l-7 4q11 69 11 156l-4 1q-35 -50 -83 -97t-91 -64
q-55 0 -87.5 61t-32.5 130zM130 221q0 -49 17.5 -101.5t50.5 -52.5q35 0 85 50t65 90q0 149 -7 192q-53 24 -102.5 24t-75.5 -24q-33 -76 -33 -178z" />
    <glyph glyph-name="atilde" unicode="&#xe3;" horiz-adv-x="514" 
d="M50 176q0 104 56 190.5t150 118.5q67 0 140 -21q14 21 23 53l21 -6q-22 -90 -22 -318q0 -102 7 -160q24 -8 54 -8v-21q-64 -3 -135 -19l-7 4q11 69 11 156l-4 1q-35 -50 -83 -97t-91 -64q-55 0 -87.5 61t-32.5 130zM130 221q0 -49 17.5 -101.5t50.5 -52.5q35 0 85 50
t65 90q0 149 -7 192q-53 24 -102.5 24t-75.5 -24q-33 -76 -33 -178zM258 663q59 -31 111.5 -31t72.5 24l18 -11q-56 -61 -104 -82q-21 0 -72.5 15.5t-72.5 15.5q-43 0 -63 -24l-18 11q56 61 128 82z" />
    <glyph glyph-name="adieresis" unicode="&#xe4;" horiz-adv-x="514" 
d="M50 176q0 104 56 190.5t150 118.5q67 0 140 -21q14 21 23 53l21 -6q-22 -90 -22 -318q0 -102 7 -160q24 -8 54 -8v-21q-64 -3 -135 -19l-7 4q11 69 11 156l-4 1q-35 -50 -83 -97t-91 -64q-55 0 -87.5 61t-32.5 130zM130 221q0 -49 17.5 -101.5t50.5 -52.5q35 0 85 50
t65 90q0 149 -7 192q-53 24 -102.5 24t-75.5 -24q-33 -76 -33 -178zM238 620q-7 -13 -24.5 -33t-29.5 -28q-12 8 -29.5 28t-24.5 33q6 12 23 27.5t31 22.5q13 -8 30 -23.5t24 -26.5zM423 620q-7 -13 -24.5 -33t-29.5 -28q-12 8 -29.5 28t-24.5 33q6 12 23 27.5t31 22.5
q13 -8 30 -23.5t24 -26.5z" />
    <glyph glyph-name="aring" unicode="&#xe5;" horiz-adv-x="514" 
d="M50 176q0 104 56 190.5t150 118.5q67 0 140 -21q14 21 23 53l21 -6q-22 -90 -22 -318q0 -102 7 -160q24 -8 54 -8v-21q-64 -3 -135 -19l-7 4q11 69 11 156l-4 1q-35 -50 -83 -97t-91 -64q-55 0 -87.5 61t-32.5 130zM130 221q0 -49 17.5 -101.5t50.5 -52.5q35 0 85 50
t65 90q0 149 -7 192q-53 24 -102.5 24t-75.5 -24q-33 -76 -33 -178zM224 544q-28 19 -28 56.5t29.5 67t72.5 38.5q91 0 91 -74q0 -39 -26.5 -66.5t-69.5 -40.5q-41 0 -69 19zM326.5 655q-15.5 16 -39 16t-33.5 -9q-11 -16 -11 -42.5t16 -43t38.5 -16.5t33.5 9q11 17 11 43.5
t-15.5 42.5z" />
    <glyph glyph-name="ae" unicode="&#xe6;" horiz-adv-x="701" 
d="M54 156q0 120 68 213t180 116q72 -10 145 -44q40 31 87 44q67 0 94 -26.5t27 -93.5q0 -21 -4 -38q8 -2 16 -2t26 4l1 -20q-154 -27 -281 -101q4 -151 107 -151q63 0 123 53l11 -10q-57 -78 -146 -115q-132 0 -172 136q-36 -43 -89 -83t-99 -53q-48 8 -71 58.5t-23 112.5z
M139 181q0 -45 11.5 -82.5t39.5 -37.5t73 31t71 65q-2 14 -2 33q0 102 56 186v4q-66 49 -144 49q-26 0 -45 -16q-60 -99 -60 -232zM561 399.5q-13 23.5 -52 23.5t-68 -24q-27 -58 -29 -161q83 53 163 79q-1 59 -14 82.5z" />
    <glyph glyph-name="ccedilla" unicode="&#xe7;" horiz-adv-x="387" 
d="M238 57q-34 0 -57 15q-51 33 -51 173q0 93 29 154q26 24 66 24t81 -12q2 -22 2 -61h22q4 57 43 105v14q-60 16 -121 16q-90 -24 -146 -108t-56 -183t42 -154t129 -55q83 34 141 115l-10 10q-59 -53 -114 -53zM205 -178q18 0 26 5q9 13 9 31q0 45 -83 45l-6 4l38 107l29 2
l-24 -62l4 -3q46 0 74.5 -21t28.5 -63q-14 -27 -40.5 -49.5t-55.5 -32.5q-44 0 -88 21q10 19 16 39l4 2q32 -25 68 -25z" />
    <glyph glyph-name="egrave" unicode="&#xe8;" horiz-adv-x="426" 
d="M238 57q63 0 123 53l11 -10q-57 -78 -146 -115q-88 0 -132 55t-44 153t55 182.5t147 109.5q67 0 94 -26.5t27 -93.5q0 -38 -10 -65q21 -8 49 -8l-1 -21h-13q-112 0 -268 -33q0 -133 52 -166q22 -15 56 -15zM280.5 397q-12.5 26 -52.5 26t-69 -24q-27 -56 -29 -135
q82 27 163 41q0 66 -12.5 92zM115 693q10 2 21.5 2t21.5 -1q24 -42 59.5 -84t72.5 -67l-11 -18l-189 109q1 10 9.5 30.5t15.5 28.5z" />
    <glyph glyph-name="eacute" unicode="&#xe9;" horiz-adv-x="426" 
d="M238 57q63 0 123 53l11 -10q-57 -78 -146 -115q-88 0 -132 55t-44 153t55 182.5t147 109.5q67 0 94 -26.5t27 -93.5q0 -38 -10 -65q21 -8 49 -8l-1 -21h-13q-112 0 -268 -33q0 -133 52 -166q22 -15 56 -15zM280.5 397q-12.5 26 -52.5 26t-69 -24q-27 -56 -29 -135
q82 27 163 41q0 66 -12.5 92zM333 694q10 1 21.5 1t21.5 -2q7 -8 15.5 -28.5t9.5 -30.5l-189 -109l-11 18q37 25 72.5 67t59.5 84z" />
    <glyph glyph-name="ecircumflex" unicode="&#xea;" horiz-adv-x="426" 
d="M238 57q63 0 123 53l11 -10q-57 -78 -146 -115q-88 0 -132 55t-44 153t55 182.5t147 109.5q67 0 94 -26.5t27 -93.5q0 -38 -10 -65q21 -8 49 -8l-1 -21h-13q-112 0 -268 -33q0 -133 52 -166q22 -15 56 -15zM280.5 397q-12.5 26 -52.5 26t-69 -24q-27 -56 -29 -135
q82 27 163 41q0 66 -12.5 92zM256 612l-134 -90l-13 17q84 71 137 168h20q53 -97 137 -168l-13 -17z" />
    <glyph glyph-name="edieresis" unicode="&#xeb;" horiz-adv-x="426" 
d="M238 57q63 0 123 53l11 -10q-57 -78 -146 -115q-88 0 -132 55t-44 153t55 182.5t147 109.5q67 0 94 -26.5t27 -93.5q0 -38 -10 -65q21 -8 49 -8l-1 -21h-13q-112 0 -268 -33q0 -133 52 -166q22 -15 56 -15zM280.5 397q-12.5 26 -52.5 26t-69 -24q-27 -56 -29 -135
q82 27 163 41q0 66 -12.5 92zM217 620q-7 -13 -24.5 -33t-29.5 -28q-12 8 -29.5 28t-24.5 33q6 12 23 27.5t31 22.5q13 -8 30 -23.5t24 -26.5zM402 620q-7 -13 -24.5 -33t-29.5 -28q-12 8 -29.5 28t-24.5 33q6 12 23 27.5t31 22.5q13 -8 30 -23.5t24 -26.5z" />
    <glyph glyph-name="igrave" unicode="&#xec;" horiz-adv-x="287" 
d="M190 274v-84q0 -108 7 -160q28 -6 63 -19l-2 -19q-56 8 -106 8t-101 -6l-3 19q30 13 59 20q9 68 9 157v84q0 81 -8 162q-26 8 -54 8v21q77 5 142 20l7 -4q-13 -77 -13 -207zM55 693q10 2 21.5 2t21.5 -1q24 -42 59.5 -84t72.5 -67l-11 -18l-189 109q1 10 9.5 30.5
t15.5 28.5z" />
    <glyph glyph-name="iacute" unicode="&#xed;" horiz-adv-x="287" 
d="M190 274v-84q0 -108 7 -160q28 -6 63 -19l-2 -19q-56 8 -106 8t-101 -6l-3 19q30 13 59 20q9 68 9 157v84q0 81 -8 162q-26 8 -54 8v21q77 5 142 20l7 -4q-13 -77 -13 -207zM216 694q10 1 21.5 1t21.5 -2q7 -8 15.5 -28.5t9.5 -30.5l-189 -109l-11 18q37 25 72.5 67
t59.5 84z" />
    <glyph glyph-name="icircumflex" unicode="&#xee;" horiz-adv-x="287" 
d="M190 274v-84q0 -108 7 -160q28 -6 63 -19l-2 -19q-56 8 -106 8t-101 -6l-3 19q30 13 59 20q9 68 9 157v84q0 81 -8 162q-26 8 -54 8v21q77 5 142 20l7 -4q-13 -77 -13 -207zM146 612l-134 -90l-13 17q84 71 137 168h20q53 -97 137 -168l-13 -17z" />
    <glyph glyph-name="idieresis" unicode="&#xef;" horiz-adv-x="287" 
d="M115 630q-7 -13 -24.5 -33t-29.5 -28q-12 8 -29.5 28t-24.5 33q6 12 23 27.5t31 22.5q13 -8 30 -23.5t24 -26.5zM286 630q-7 -13 -24.5 -33t-29.5 -28q-12 8 -29.5 28t-24.5 33q6 12 23 27.5t31 22.5q13 -8 30 -23.5t24 -26.5zM190 274v-84q0 -108 7 -160q28 -6 63 -19
l-2 -19q-56 8 -106 8t-101 -6l-3 19q30 13 59 20q9 68 9 157v84q0 81 -8 162q-26 8 -54 8v21q77 5 142 20l7 -4q-13 -77 -13 -207z" />
    <glyph glyph-name="eth" unicode="&#xf0;" horiz-adv-x="471" 
d="M429 272q0 -118 -61.5 -195.5t-173.5 -91.5q-71 12 -110 65.5t-39 137t57.5 147.5t149.5 84q48 -11 81 -65h5q-36 103 -101 182l-22 -13q-62 -36 -97 -68l-5 3q-8 27 -10 31l113 70q-64 69 -165 129l14 23q109 -55 194 -125l49 31q54 33 70 46q8 -11 23 -22l3 -4
l-105 -65l-14 -8q144 -134 144 -292zM349 231q0 33 -7 60q-43 69 -119 85q-47 0 -72 -45t-25 -119.5t33 -123t94 -48.5q31 0 53 14q43 60 43 177z" />
    <glyph glyph-name="ntilde" unicode="&#xf1;" horiz-adv-x="547" 
d="M385 291q0 112 -46 112q-39 0 -92 -49t-71 -91q0 -145 11 -233q27 -6 63 -19l-2 -19q-56 8 -106 8t-101 -6l-3 19q30 13 59 20q9 68 9 157v84q0 92 -7 163q-24 8 -54 8v21q64 3 135 19l7 -4q-11 -69 -11 -156l4 -1q34 47 88.5 96.5t98.5 64.5q61 0 79 -55q12 -39 12 -96
v-20l-5 -281q29 -7 59 -20l-3 -19q-48 6 -81.5 6t-63.5 -2v14q16 78 20 257q1 10 1 22zM257 663q59 -31 111.5 -31t72.5 24l18 -11q-56 -61 -104 -82q-21 0 -72.5 15.5t-72.5 15.5q-43 0 -63 -24l-18 11q56 61 128 82z" />
    <glyph glyph-name="ograve" unicode="&#xf2;" horiz-adv-x="488" 
d="M101 43.5q-56 58.5 -56 153.5t57.5 179.5t151.5 108.5q93 0 141 -54t48 -149t-56 -179t-143 -118q-87 0 -143 58.5zM227 423q-42 0 -69 -24q-33 -63 -33 -145t37 -144.5t99 -62.5q42 0 70 25q32 61 32 148.5t-33.5 145t-102.5 57.5zM138 693q10 2 21.5 2t21.5 -1
q24 -42 59.5 -84t72.5 -67l-11 -18l-189 109q1 10 9.5 30.5t15.5 28.5z" />
    <glyph glyph-name="oacute" unicode="&#xf3;" horiz-adv-x="488" 
d="M101 43.5q-56 58.5 -56 153.5t57.5 179.5t151.5 108.5q93 0 141 -54t48 -149t-56 -179t-143 -118q-87 0 -143 58.5zM227 423q-42 0 -69 -24q-33 -63 -33 -145t37 -144.5t99 -62.5q42 0 70 25q32 61 32 148.5t-33.5 145t-102.5 57.5zM351 694q10 1 21.5 1t21.5 -2
q7 -8 15.5 -28.5t9.5 -30.5l-189 -109l-11 18q37 25 72.5 67t59.5 84z" />
    <glyph glyph-name="ocircumflex" unicode="&#xf4;" horiz-adv-x="488" 
d="M101 43.5q-56 58.5 -56 153.5t57.5 179.5t151.5 108.5q93 0 141 -54t48 -149t-56 -179t-143 -118q-87 0 -143 58.5zM227 423q-42 0 -69 -24q-33 -63 -33 -145t37 -144.5t99 -62.5q42 0 70 25q32 61 32 148.5t-33.5 145t-102.5 57.5zM259 612l-134 -90l-13 17
q84 71 137 168h20q53 -97 137 -168l-13 -17z" />
    <glyph glyph-name="otilde" unicode="&#xf5;" horiz-adv-x="488" 
d="M101 43.5q-56 58.5 -56 153.5t57.5 179.5t151.5 108.5q93 0 141 -54t48 -149t-56 -179t-143 -118q-87 0 -143 58.5zM227 423q-42 0 -69 -24q-33 -63 -33 -145t37 -144.5t99 -62.5q42 0 70 25q32 61 32 148.5t-33.5 145t-102.5 57.5zM216 663q59 -31 111.5 -31t72.5 24
l18 -11q-56 -61 -104 -82q-21 0 -72.5 15.5t-72.5 15.5q-43 0 -63 -24l-18 11q56 61 128 82z" />
    <glyph glyph-name="odieresis" unicode="&#xf6;" horiz-adv-x="488" 
d="M101 43.5q-56 58.5 -56 153.5t57.5 179.5t151.5 108.5q93 0 141 -54t48 -149t-56 -179t-143 -118q-87 0 -143 58.5zM227 423q-42 0 -69 -24q-33 -63 -33 -145t37 -144.5t99 -62.5q42 0 70 25q32 61 32 148.5t-33.5 145t-102.5 57.5zM221 620q-7 -13 -24.5 -33t-29.5 -28
q-12 8 -29.5 28t-24.5 33q6 12 23 27.5t31 22.5q13 -8 30 -23.5t24 -26.5zM406 620q-7 -13 -24.5 -33t-29.5 -28q-12 8 -29.5 28t-24.5 33q6 12 23 27.5t31 22.5q13 -8 30 -23.5t24 -26.5z" />
    <glyph glyph-name="divide" unicode="&#xf7;" horiz-adv-x="550" 
d="M318 385q0 -17 -14 -31.5t-30 -14.5t-30.5 14.5t-14.5 31.5t14.5 31t30.5 14t30 -14t14 -31zM318 112q0 -17 -14 -31.5t-30 -14.5t-30.5 14.5t-14.5 31t14.5 31t30.5 14.5t30 -14t14 -31zM62 280q170 -9 279.5 -9t148.5 3l6 -6l-9 -46h-426l-8 7z" />
    <glyph glyph-name="oslash" unicode="&#xf8;" horiz-adv-x="488" 
d="M45 190q0 102 57.5 186.5t151.5 108.5q30 0 61 -7q7 21 21 70q19 2 34 7l4 -3q-2 -4 -34 -83q103 -42 103 -189q0 -93 -56 -177t-143 -118q-42 0 -82 16l-29 -78h-5q-15 8 -23 23l31 69q-91 59 -91 175zM331 72q32 61 32 163t-53 155l-120 -315q31 -28 72 -28t69 25z
M290 406q-26 17 -65.5 17t-66.5 -24q-33 -63 -33 -152t45 -149z" />
    <glyph glyph-name="ugrave" unicode="&#xf9;" horiz-adv-x="542" 
d="M157 179q0 -112 46 -112q39 0 92 49t71 91q0 145 -11 233q-27 6 -63 19l2 19q56 -8 106 -8t101 6l3 -19q-30 -13 -59 -20q-9 -68 -9 -157v-84q0 -92 7 -163q24 -8 54 -8v-21q-64 -3 -135 -19l-7 2q11 69 11 158l-4 1q-34 -47 -88.5 -96.5t-98.5 -64.5q-61 0 -79 55
q-12 39 -12 96v20l5 281q-24 8 -54 8v21q64 3 135 19l7 -4q-16 -97 -19 -280q-1 -10 -1 -22zM157 693q10 2 21.5 2t21.5 -1q24 -42 59.5 -84t72.5 -67l-11 -18l-189 109q1 10 9.5 30.5t15.5 28.5z" />
    <glyph glyph-name="uacute" unicode="&#xfa;" horiz-adv-x="542" 
d="M157 179q0 -112 46 -112q39 0 92 49t71 91q0 145 -11 233q-27 6 -63 19l2 19q56 -8 106 -8t101 6l3 -19q-30 -13 -59 -20q-9 -68 -9 -157v-84q0 -92 7 -163q24 -8 54 -8v-21q-64 -3 -135 -19l-7 2q11 69 11 158l-4 1q-34 -47 -88.5 -96.5t-98.5 -64.5q-61 0 -79 55
q-12 39 -12 96v20l5 281q-24 8 -54 8v21q64 3 135 19l7 -4q-16 -97 -19 -280q-1 -10 -1 -22zM383 694q10 1 21.5 1t21.5 -2q7 -8 15.5 -28.5t9.5 -30.5l-189 -109l-11 18q37 25 72.5 67t59.5 84z" />
    <glyph glyph-name="ucircumflex" unicode="&#xfb;" horiz-adv-x="542" 
d="M157 179q0 -112 46 -112q39 0 92 49t71 91q0 145 -11 233q-27 6 -63 19l2 19q56 -8 106 -8t101 6l3 -19q-30 -13 -59 -20q-9 -68 -9 -157v-84q0 -92 7 -163q24 -8 54 -8v-21q-64 -3 -135 -19l-7 2q11 69 11 158l-4 1q-34 -47 -88.5 -96.5t-98.5 -64.5q-61 0 -79 55
q-12 39 -12 96v20l5 281q-24 8 -54 8v21q64 3 135 19l7 -4q-16 -97 -19 -280q-1 -10 -1 -22zM284 612l-134 -90l-13 17q84 71 137 168h20q53 -97 137 -168l-13 -17z" />
    <glyph glyph-name="udieresis" unicode="&#xfc;" horiz-adv-x="542" 
d="M157 179q0 -112 46 -112q39 0 92 49t71 91q0 145 -11 233q-27 6 -63 19l2 19q56 -8 106 -8t101 6l3 -19q-30 -13 -59 -20q-9 -68 -9 -157v-84q0 -92 7 -163q24 -8 54 -8v-21q-64 -3 -135 -19l-7 2q11 69 11 158l-4 1q-34 -47 -88.5 -96.5t-98.5 -64.5q-61 0 -79 55
q-12 39 -12 96v20l5 281q-24 8 -54 8v21q64 3 135 19l7 -4q-16 -97 -19 -280q-1 -10 -1 -22zM246 620q-7 -13 -24.5 -33t-29.5 -28q-12 8 -29.5 28t-24.5 33q6 12 23 27.5t31 22.5q13 -8 30 -23.5t24 -26.5zM431 620q-7 -13 -24.5 -33t-29.5 -28q-12 8 -29.5 28t-24.5 33
q6 12 23 27.5t31 22.5q13 -8 30 -23.5t24 -26.5z" />
    <glyph glyph-name="yacute" unicode="&#xfd;" horiz-adv-x="542" 
d="M190 481q-19 -116 -19 -296q0 -118 42 -118q36 0 88.5 50.5t67.5 89.5q0 145 -11 233q-28 6 -63 19l2 19q56 -8 106 -8t101 6l3 -19q-30 -13 -59 -20q-9 -68 -9 -157v-84q0 -159 7 -230q-19 -55 -80 -107.5t-121 -73.5q-92 0 -168 29v13q37 44 42 112h21q0 -39 2 -61
q56 -31 128 -31q40 0 65 24q23 61 28.5 110.5t5.5 163.5l-4 1q-30 -45 -83 -95.5t-95 -65.5q-58 0 -75 55q-13 39 -13 96v20l5 281q-24 8 -54 8v21q63 3 133 19zM389 694q10 1 21.5 1t21.5 -2q7 -8 15.5 -28.5t9.5 -30.5l-189 -109l-11 18q37 25 72.5 67t59.5 84z" />
    <glyph glyph-name="thorn" unicode="&#xfe;" horiz-adv-x="522" 
d="M472 294q0 -104 -56 -190.5t-150 -118.5q-54 0 -98 10q0 -109 7 -161q45 -11 79 -26l-3 -20q-62 12 -105.5 12t-100.5 -5l-4 20q30 7 51 18q8 72 10 311l2 273v107t-7 137q-24 8 -54 8v21q60 3 141 21l7 -4q-19 -119 -19 -290v-95h4q35 50 84 98t92 65q55 0 87.5 -61
t32.5 -130zM392 249q0 49 -17.5 101.5t-50.5 52.5q-35 0 -85 -50t-65 -90q0 -149 7 -192q53 -24 102.5 -24t75.5 24q33 76 33 178z" />
    <glyph glyph-name="ydieresis" unicode="&#xff;" horiz-adv-x="542" 
d="M190 481q-19 -116 -19 -296q0 -118 42 -118q36 0 88.5 50.5t67.5 89.5q0 145 -11 233q-28 6 -63 19l2 19q56 -8 106 -8t101 6l3 -19q-30 -13 -59 -20q-9 -68 -9 -157v-84q0 -159 7 -230q-19 -55 -80 -107.5t-121 -73.5q-92 0 -168 29v13q37 44 42 112h21q0 -39 2 -61
q56 -31 128 -31q40 0 65 24q23 61 28.5 110.5t5.5 163.5l-4 1q-30 -45 -83 -95.5t-95 -65.5q-58 0 -75 55q-13 39 -13 96v20l5 281q-24 8 -54 8v21q63 3 133 19zM248 620q-7 -13 -24.5 -33t-29.5 -28q-12 8 -29.5 28t-24.5 33q6 12 23 27.5t31 22.5q13 -8 30 -23.5t24 -26.5
zM433 620q-7 -13 -24.5 -33t-29.5 -28q-12 8 -29.5 28t-24.5 33q6 12 23 27.5t31 22.5q13 -8 30 -23.5t24 -26.5z" />
    <glyph glyph-name="Amacron" unicode="&#x100;" horiz-adv-x="599" 
d="M265 826q49 -3 108 -3t104 4l8 -5l-9 -46l-256 -3l-9 6l9 50zM98 662q114 -11 238 -11t238 11l4 -25q-45 -14 -96 -21q-13 -96 -13 -290.5t13 -290.5q53 -5 110 -19l-3 -24q-74 8 -160.5 8t-139.5 -8l-4 25q45 14 96 21q8 66 11 213q-52 6 -114.5 6t-105.5 -6
q-24 -98 -24 -157t43 -84l-4 -14q-31 4 -104.5 4t-132.5 -8l-4 25q45 14 96 21l164 581q-56 6 -111 19zM183 301q45 -7 106.5 -7t102.5 7q0 242 -10 310q-31 3 -61.5 3t-62.5 -3z" />
    <glyph glyph-name="amacron" unicode="&#x101;" horiz-adv-x="514" 
d="M50 176q0 104 56 190.5t150 118.5q67 0 140 -21q14 21 23 53l21 -6q-22 -90 -22 -318q0 -102 7 -160q24 -8 54 -8v-21q-64 -3 -135 -19l-7 4q11 69 11 156l-4 1q-35 -50 -83 -97t-91 -64q-55 0 -87.5 61t-32.5 130zM130 221q0 -49 17.5 -101.5t50.5 -52.5q35 0 85 50
t65 90q0 149 -7 192q-53 24 -102.5 24t-75.5 -24q-33 -76 -33 -178zM193 638q50 -3 108.5 -3t103.5 4l8 -5l-9 -46l-256 -3l-9 6l9 50z" />
    <glyph glyph-name="Abreve" unicode="&#x102;" horiz-adv-x="599" 
d="M381 785q70 0 107 69l18 -11q-21 -43 -58 -76t-81 -48q-49 0 -103 33t-73 77l1 9q43 2 71 16h4q14 -33 45 -51t69 -18zM98 662q114 -11 238 -11t238 11l4 -25q-45 -14 -96 -21q-13 -96 -13 -290.5t13 -290.5q53 -5 110 -19l-3 -24q-74 8 -160.5 8t-139.5 -8l-4 25
q45 14 96 21q8 66 11 213q-52 6 -114.5 6t-105.5 -6q-24 -98 -24 -157t43 -84l-4 -14q-31 4 -104.5 4t-132.5 -8l-4 25q45 14 96 21l164 581q-56 6 -111 19zM183 301q45 -7 106.5 -7t102.5 7q0 242 -10 310q-31 3 -61.5 3t-62.5 -3z" />
    <glyph glyph-name="abreve" unicode="&#x103;" horiz-adv-x="514" 
d="M50 176q0 104 56 190.5t150 118.5q67 0 140 -21q14 21 23 53l21 -6q-22 -90 -22 -318q0 -102 7 -160q24 -8 54 -8v-21q-64 -3 -135 -19l-7 4q11 69 11 156l-4 1q-35 -50 -83 -97t-91 -64q-55 0 -87.5 61t-32.5 130zM130 221q0 -49 17.5 -101.5t50.5 -52.5q35 0 85 50
t65 90q0 149 -7 192q-53 24 -102.5 24t-75.5 -24q-33 -76 -33 -178zM310 614q70 0 107 69l18 -11q-21 -43 -58 -76t-81 -48q-49 0 -103 33t-73 77l1 9q43 2 71 16h4q14 -33 45 -51t69 -18z" />
    <glyph glyph-name="Aogonek" unicode="&#x104;" horiz-adv-x="599" 
d="M98 662q114 -11 238 -11t238 11l4 -25q-45 -14 -96 -21q-13 -96 -13 -290.5t13 -290.5q53 -5 110 -19l-3 -24q-74 8 -156 8q-49 0 -89 -29t-40 -73q0 -62 66 -62q22 0 37 4v-9q-31 -21 -49 -46q-60 0 -90 23t-30 79q17 44 95 110l48 41q8 66 11 213q-52 6 -114.5 6
t-105.5 -6q-24 -98 -24 -157t43 -84l-4 -14q-31 4 -104.5 4t-132.5 -8l-4 25q45 14 96 21l164 581q-56 6 -111 19zM183 301q45 -7 106.5 -7t102.5 7q0 242 -10 310q-31 3 -61.5 3t-62.5 -3z" />
    <glyph glyph-name="aogonek" unicode="&#x105;" horiz-adv-x="514" 
d="M50 176q0 104 56 190.5t150 118.5q67 0 140 -21q14 21 23 53l21 -6q-22 -90 -22 -318q0 -102 7 -160q24 -8 54 -8v-21q-114 -3 -151 -56q-16 -25 -16 -50q0 -62 66 -62q22 0 37 4v-9q-31 -21 -49 -46q-60 0 -90 23t-30 79q23 57 91 102q11 69 11 156l-4 1
q-35 -50 -83 -97t-91 -64q-55 0 -87.5 61t-32.5 130zM130 221q0 -49 17.5 -101.5t50.5 -52.5q35 0 85 50t65 90q0 149 -7 192q-53 24 -102.5 24t-75.5 -24q-33 -76 -33 -178z" />
    <glyph glyph-name="Cacute" unicode="&#x106;" horiz-adv-x="498" 
d="M477 797l-206 -75l-8 20q82 36 157 126q22 -2 42 -9q5 -9 10.5 -30.5t4.5 -31.5zM304 64q81 0 163 78l14 -13q-83 -106 -198 -144q-120 0 -180.5 75.5t-60.5 209t73.5 248t197.5 148.5q101 0 206 -19l-1 -22q-26 0 -48 -9q-25 -59 -33 -138h-25q-9 40 -9 93
q-47 25 -112.5 25t-108.5 -36q-51 -87 -51 -221q0 -200 86 -253q36 -22 87 -22z" />
    <glyph glyph-name="cacute" unicode="&#x107;" horiz-adv-x="387" 
d="M238 57q55 0 114 53l10 -10q-58 -81 -141 -115q-87 0 -129 55t-42 154t56 183t146 108q61 0 121 -16v-14q-39 -48 -43 -105h-22q0 39 -2 61q-41 12 -81 12t-66 -24q-29 -61 -29 -154q0 -140 51 -173q23 -15 57 -15zM333 694q10 1 21.5 1t21.5 -2q7 -8 15.5 -28.5
t9.5 -30.5l-189 -109l-11 18q37 25 72.5 67t59.5 84z" />
    <glyph glyph-name="Ccircumflex" unicode="&#x108;" horiz-adv-x="498" 
d="M465 715l-161 75l-161 -75l-10 19q92 58 161 151h20q69 -93 161 -151zM304 64q81 0 163 78l14 -13q-83 -106 -198 -144q-120 0 -180.5 75.5t-60.5 209t73.5 248t197.5 148.5q101 0 206 -19l-1 -22q-26 0 -48 -9q-25 -59 -33 -138h-25q-9 40 -9 93q-47 25 -112.5 25
t-108.5 -36q-51 -87 -51 -221q0 -200 86 -253q36 -22 87 -22z" />
    <glyph glyph-name="ccircumflex" unicode="&#x109;" horiz-adv-x="387" 
d="M238 57q55 0 114 53l10 -10q-58 -81 -141 -115q-87 0 -129 55t-42 154t56 183t146 108q61 0 121 -16v-14q-39 -48 -43 -105h-22q0 39 -2 61q-41 12 -81 12t-66 -24q-29 -61 -29 -154q0 -140 51 -173q23 -15 57 -15zM242 612l-134 -90l-13 17q84 71 137 168h20
q53 -97 137 -168l-13 -17z" />
    <glyph glyph-name="Cdotaccent" unicode="&#x10a;" horiz-adv-x="498" 
d="M304 64q81 0 163 78l14 -13q-83 -106 -198 -144q-120 0 -180.5 75.5t-60.5 209t73.5 248t197.5 148.5q101 0 206 -19l-1 -22q-26 0 -48 -9q-25 -59 -33 -138h-25q-9 40 -9 93q-47 25 -112.5 25t-108.5 -36q-51 -87 -51 -221q0 -200 86 -253q36 -22 87 -22zM358 803
q-7 -13 -24.5 -33t-29.5 -28q-12 8 -29.5 28t-24.5 33q6 12 23 27.5t31 22.5q13 -8 30 -23.5t24 -26.5z" />
    <glyph glyph-name="cdotaccent" unicode="&#x10b;" horiz-adv-x="387" 
d="M238 57q55 0 114 53l10 -10q-58 -81 -141 -115q-87 0 -129 55t-42 154t56 183t146 108q61 0 121 -16v-14q-39 -48 -43 -105h-22q0 39 -2 61q-41 12 -81 12t-66 -24q-29 -61 -29 -154q0 -140 51 -173q23 -15 57 -15zM296 620q-7 -13 -24.5 -33t-29.5 -28q-12 8 -29.5 28
t-24.5 33q6 12 23 27.5t31 22.5q13 -8 30 -23.5t24 -26.5z" />
    <glyph glyph-name="Ccaron" unicode="&#x10c;" horiz-adv-x="498" 
d="M304 810l161 75l10 -19q-92 -58 -161 -151h-20q-69 93 -161 151l10 19zM304 64q81 0 163 78l14 -13q-83 -106 -198 -144q-120 0 -180.5 75.5t-60.5 209t73.5 248t197.5 148.5q101 0 206 -19l-1 -22q-26 0 -48 -9q-25 -59 -33 -138h-25q-9 40 -9 93q-47 25 -112.5 25
t-108.5 -36q-51 -87 -51 -221q0 -200 86 -253q36 -22 87 -22z" />
    <glyph glyph-name="ccaron" unicode="&#x10d;" horiz-adv-x="387" 
d="M238 57q55 0 114 53l10 -10q-58 -81 -141 -115q-87 0 -129 55t-42 154t56 183t146 108q61 0 121 -16v-14q-39 -48 -43 -105h-22q0 39 -2 61q-41 12 -81 12t-66 -24q-29 -61 -29 -154q0 -140 51 -173q23 -15 57 -15zM110 705l134 -90l134 90l13 -17q-84 -71 -137 -168h-20
q-53 97 -137 168z" />
    <glyph glyph-name="Dcaron" unicode="&#x10e;" horiz-adv-x="619" 
d="M308 810l161 75l10 -19q-92 -58 -161 -151h-20q-69 93 -161 151l10 19zM16 649l288 9q134 0 203.5 -69t69.5 -205.5t-73 -249.5t-198 -149q-72 0 -161 38q-17 -26 -23 -45l-21 5q24 109 24 320t-11 305q-48 16 -98 16v25zM383.5 596.5q-40.5 24.5 -88.5 24.5t-84 -13
q-9 -94 -9 -264.5t5 -258.5q54 -28 123 -28t107 34q51 93 51 229q0 124 -42 208q-22 44 -62.5 68.5z" />
    <glyph glyph-name="Emacron" unicode="&#x112;" horiz-adv-x="513" 
d="M397 566q-48 28 -115.5 28t-108.5 -34q-1 -14 -1 -27q0 -160 171 -160l-5 -37h-12q-79 0 -130.5 -31.5t-51.5 -101.5t48 -108.5t113 -38.5t102 24q7 14 7 44t-10 41l1 7q25 15 50 42q12 -1 19.5 -10t7.5 -21q0 -61 -57.5 -118.5t-125.5 -79.5q-107 0 -178 52t-71 148
q0 69 58 115t132 46v4q-68 4 -113.5 38t-45.5 94q36 64 95.5 115t127.5 69q72 0 141 -19q21 10 42 30l19 -13q-74 -81 -81 -191h-25q0 48 -3 93zM221 826q49 -3 108 -3t104 4l8 -5l-9 -46l-256 -3l-9 6l9 50z" />
    <glyph glyph-name="emacron" unicode="&#x113;" horiz-adv-x="426" 
d="M238 57q63 0 123 53l11 -10q-57 -78 -146 -115q-88 0 -132 55t-44 153t55 182.5t147 109.5q67 0 94 -26.5t27 -93.5q0 -38 -10 -65q21 -8 49 -8l-1 -21h-13q-112 0 -268 -33q0 -133 52 -166q22 -15 56 -15zM280.5 397q-12.5 26 -52.5 26t-69 -24q-27 -56 -29 -135
q82 27 163 41q0 66 -12.5 92zM172 638q49 -3 108 -3t104 4l8 -5l-9 -46l-256 -3l-9 6l9 50z" />
    <glyph glyph-name="Ebreve" unicode="&#x114;" horiz-adv-x="513" 
d="M397 566q-48 28 -115.5 28t-108.5 -34q-1 -14 -1 -27q0 -160 171 -160l-5 -37h-12q-79 0 -130.5 -31.5t-51.5 -101.5t48 -108.5t113 -38.5t102 24q7 14 7 44t-10 41l1 7q25 15 50 42q12 -1 19.5 -10t7.5 -21q0 -61 -57.5 -118.5t-125.5 -79.5q-107 0 -178 52t-71 148
q0 69 58 115t132 46v4q-68 4 -113.5 38t-45.5 94q36 64 95.5 115t127.5 69q72 0 141 -19q21 10 42 30l19 -13q-74 -81 -81 -191h-25q0 48 -3 93zM337 785q70 0 107 69l18 -11q-21 -43 -58 -76t-81 -48q-49 0 -103 33t-73 77l1 9q43 2 71 16h4q14 -33 45 -51t69 -18z" />
    <glyph glyph-name="ebreve" unicode="&#x115;" horiz-adv-x="426" 
d="M238 57q63 0 123 53l11 -10q-57 -78 -146 -115q-88 0 -132 55t-44 153t55 182.5t147 109.5q67 0 94 -26.5t27 -93.5q0 -38 -10 -65q21 -8 49 -8l-1 -21h-13q-112 0 -268 -33q0 -133 52 -166q22 -15 56 -15zM280.5 397q-12.5 26 -52.5 26t-69 -24q-27 -56 -29 -135
q82 27 163 41q0 66 -12.5 92zM289 614q70 0 107 69l18 -11q-21 -43 -58 -76t-81 -48q-49 0 -103 33t-73 77l1 9q43 2 71 16h4q14 -33 45 -51t69 -18z" />
    <glyph glyph-name="Edotaccent" unicode="&#x116;" horiz-adv-x="513" 
d="M397 566q-48 28 -115.5 28t-108.5 -34q-1 -14 -1 -27q0 -160 171 -160l-5 -37h-12q-79 0 -130.5 -31.5t-51.5 -101.5t48 -108.5t113 -38.5t102 24q7 14 7 44t-10 41l1 7q25 15 50 42q12 -1 19.5 -10t7.5 -21q0 -61 -57.5 -118.5t-125.5 -79.5q-107 0 -178 52t-71 148
q0 69 58 115t132 46v4q-68 4 -113.5 38t-45.5 94q36 64 95.5 115t127.5 69q72 0 141 -19q21 10 42 30l19 -13q-74 -81 -81 -191h-25q0 48 -3 93zM358 803q-7 -13 -24.5 -33t-29.5 -28q-12 8 -29.5 28t-24.5 33q6 12 23 27.5t31 22.5q13 -8 30 -23.5t24 -26.5z" />
    <glyph glyph-name="Eogonek" unicode="&#x118;" horiz-adv-x="513" 
d="M397 566q-48 28 -115.5 28t-108.5 -34q-1 -14 -1 -27q0 -160 171 -160l-5 -37h-12q-79 0 -130.5 -31.5t-51.5 -101.5t48 -108.5t113 -38.5t102 24q7 14 7 44t-10 41l1 7q25 15 50 42q12 -1 19.5 -10t7.5 -21q0 -35 -20 -68.5t-41 -52.5t-72 -59t-67 -62t-16 -43
q0 -62 66 -62q22 0 37 4v-9q-31 -21 -49 -46q-60 0 -90 23t-30 79q20 51 85 98q-102 4 -168.5 55.5t-66.5 144.5q0 69 58 115t132 46v4q-68 4 -113.5 38t-45.5 94q36 64 95.5 115t127.5 69q72 0 141 -19q21 10 42 30l19 -13q-74 -81 -81 -191h-25q0 48 -3 93z" />
    <glyph glyph-name="eogonek" unicode="&#x119;" horiz-adv-x="426" 
d="M93.5 41q-43.5 55 -43.5 152.5t55 182t147 109.5q67 0 94 -26.5t27 -93.5q0 -38 -10 -65q21 -8 49 -8l-1 -21h-13q-112 0 -268 -33q0 -133 52 -166q22 -15 56 -15q63 0 123 53l11 -10q-33 -49 -108 -106q-24 -18 -42 -43.5t-18 -52.5q0 -62 66 -62q22 0 37 4v-9
q-31 -21 -49 -46q-60 0 -90 23t-30 79q21 53 85 98q-86 1 -129.5 56zM280.5 397q-12.5 26 -52.5 26t-69 -24q-27 -56 -29 -135q82 27 163 41q0 66 -12.5 92z" />
    <glyph glyph-name="Ecaron" unicode="&#x11a;" horiz-adv-x="513" 
d="M397 566q-48 28 -115.5 28t-108.5 -34q-1 -14 -1 -27q0 -160 171 -160l-5 -37h-12q-79 0 -130.5 -31.5t-51.5 -101.5t48 -108.5t113 -38.5t102 24q7 14 7 44t-10 41l1 7q25 15 50 42q12 -1 19.5 -10t7.5 -21q0 -61 -57.5 -118.5t-125.5 -79.5q-107 0 -178 52t-71 148
q0 69 58 115t132 46v4q-68 4 -113.5 38t-45.5 94q36 64 95.5 115t127.5 69q72 0 141 -19q21 10 42 30l19 -13q-74 -81 -81 -191h-25q0 48 -3 93zM303 810l161 75l10 -19q-92 -58 -161 -151h-20q-69 93 -161 151l10 19z" />
    <glyph glyph-name="ecaron" unicode="&#x11b;" horiz-adv-x="426" 
d="M238 57q63 0 123 53l11 -10q-57 -78 -146 -115q-88 0 -132 55t-44 153t55 182.5t147 109.5q67 0 94 -26.5t27 -93.5q0 -38 -10 -65q21 -8 49 -8l-1 -21h-13q-112 0 -268 -33q0 -133 52 -166q22 -15 56 -15zM280.5 397q-12.5 26 -52.5 26t-69 -24q-27 -56 -29 -135
q82 27 163 41q0 66 -12.5 92zM122 705l134 -90l134 90l13 -17q-84 -71 -137 -168h-20q-53 97 -137 168z" />
    <glyph glyph-name="Gcircumflex" unicode="&#x11c;" horiz-adv-x="557" 
d="M465 715l-161 75l-161 -75l-10 19q92 58 161 151h20q69 -93 161 -151zM216 86q35 -22 89 -22t98 29v83q0 23 -4 67q-35 10 -91 20l3 21q23 -3 44 -3q88 0 161 49l9 -18q-23 -18 -36 -36q-12 -120 -20 -280h-21q-10 43 -24 71q-65 -57 -141 -82q-120 0 -180.5 75.5
t-60.5 209t73.5 248t197.5 148.5q104 0 209 -19l-1 -22q-25 0 -48 -9q-27 -64 -33 -139h-25q-9 41 -9 93q-47 26 -114 26t-110 -36q-51 -87 -51 -221q0 -201 85 -253z" />
    <glyph glyph-name="gcircumflex" unicode="&#x11d;" horiz-adv-x="503" 
d="M53 185q0 102 54 185.5t147 114.5q67 0 140 -21q44 9 77 19l5 -18q-19 -15 -47 -29q-13 -121 -13 -257.5t7 -212.5q-22 -55 -83 -108.5t-121 -72.5q-93 0 -178 31v19q19 67 112 167v4q-46 13 -73 67.5t-27 111.5zM133 229q0 -47 17.5 -97t50 -50t81 52.5t64.5 91.5
q0 131 -7 173q-53 24 -101 24t-75 -24q-30 -73 -30 -170zM243 -153q44 0 69 24q23 60 28.5 116t5.5 183l-4 1q-27 -57 -98 -119q-28 -24 -54 -50q-63 -63 -70 -127q55 -28 123 -28zM263 612l-134 -90l-13 17q84 71 137 168h20q53 -97 137 -168l-13 -17z" />
    <glyph glyph-name="Gbreve" unicode="&#x11e;" horiz-adv-x="557" 
d="M216 86q35 -22 89 -22t98 29v83q0 23 -4 67q-35 10 -91 20l3 21q23 -3 44 -3q88 0 161 49l9 -18q-23 -18 -36 -36q-12 -120 -20 -280h-21q-10 43 -24 71q-65 -57 -141 -82q-120 0 -180.5 75.5t-60.5 209t73.5 248t197.5 148.5q104 0 209 -19l-1 -22q-25 0 -48 -9
q-27 -64 -33 -139h-25q-9 41 -9 93q-47 26 -114 26t-110 -36q-51 -87 -51 -221q0 -201 85 -253zM337 785q70 0 107 69l18 -11q-21 -43 -58 -76t-81 -48q-49 0 -103 33t-73 77l1 9q43 2 71 16h4q14 -33 45 -51t69 -18z" />
    <glyph glyph-name="gbreve" unicode="&#x11f;" horiz-adv-x="503" 
d="M53 185q0 102 54 185.5t147 114.5q67 0 140 -21q44 9 77 19l5 -18q-19 -15 -47 -29q-13 -121 -13 -257.5t7 -212.5q-22 -55 -83 -108.5t-121 -72.5q-93 0 -178 31v19q19 67 112 167v4q-46 13 -73 67.5t-27 111.5zM133 229q0 -47 17.5 -97t50 -50t81 52.5t64.5 91.5
q0 131 -7 173q-53 24 -101 24t-75 -24q-30 -73 -30 -170zM243 -153q44 0 69 24q23 60 28.5 116t5.5 183l-4 1q-27 -57 -98 -119q-28 -24 -54 -50q-63 -63 -70 -127q55 -28 123 -28zM297 614q70 0 107 69l18 -11q-21 -43 -58 -76t-81 -48q-49 0 -103 33t-73 77l1 9
q43 2 71 16h4q14 -33 45 -51t69 -18z" />
    <glyph glyph-name="Gdotaccent" unicode="&#x120;" horiz-adv-x="557" 
d="M216 86q35 -22 89 -22t98 29v83q0 23 -4 67q-35 10 -91 20l3 21q23 -3 44 -3q88 0 161 49l9 -18q-23 -18 -36 -36q-12 -120 -20 -280h-21q-10 43 -24 71q-65 -57 -141 -82q-120 0 -180.5 75.5t-60.5 209t73.5 248t197.5 148.5q104 0 209 -19l-1 -22q-25 0 -48 -9
q-27 -64 -33 -139h-25q-9 41 -9 93q-47 26 -114 26t-110 -36q-51 -87 -51 -221q0 -201 85 -253zM358 803q-7 -13 -24.5 -33t-29.5 -28q-12 8 -29.5 28t-24.5 33q6 12 23 27.5t31 22.5q13 -8 30 -23.5t24 -26.5z" />
    <glyph glyph-name="gdotaccent" unicode="&#x121;" horiz-adv-x="503" 
d="M53 185q0 102 54 185.5t147 114.5q67 0 140 -21q44 9 77 19l5 -18q-19 -15 -47 -29q-13 -121 -13 -257.5t7 -212.5q-22 -55 -83 -108.5t-121 -72.5q-93 0 -178 31v19q19 67 112 167v4q-46 13 -73 67.5t-27 111.5zM133 229q0 -47 17.5 -97t50 -50t81 52.5t64.5 91.5
q0 131 -7 173q-53 24 -101 24t-75 -24q-30 -73 -30 -170zM243 -153q44 0 69 24q23 60 28.5 116t5.5 183l-4 1q-27 -57 -98 -119q-28 -24 -54 -50q-63 -63 -70 -127q55 -28 123 -28zM317 620q-7 -13 -24.5 -33t-29.5 -28q-12 8 -29.5 28t-24.5 33q6 12 23 27.5t31 22.5
q13 -8 30 -23.5t24 -26.5z" />
    <glyph glyph-name="Hcircumflex" unicode="&#x124;" horiz-adv-x="708" 
d="M521 715l-161 75l-161 -75l-10 19q92 58 161 151h20q69 -93 161 -151zM398 659q61 -8 148.5 -8t151.5 8l3 -24q-57 -14 -110 -19q-13 -74 -13 -261v-59q0 -187 13 -261q53 -5 110 -19l-3 -24q-64 8 -151.5 8t-148.5 -8l-4 25q45 14 96 21q10 101 11 290q-74 7 -147 7
t-147 -7q1 -214 13 -293q53 -5 110 -19l-3 -24q-74 8 -160.5 8t-139.5 -8l-4 25q45 14 96 21q11 82 11 258v59q0 162 -13 258q-51 7 -96 21l4 25q53 -8 139.5 -8t160.5 8l3 -24q-57 -14 -110 -19q-9 -59 -11 -234q76 -10 151 -10t143 9q-1 132 -11 232q-51 7 -96 21z" />
    <glyph glyph-name="hcircumflex" unicode="&#x125;" horiz-adv-x="542" 
d="M385 291q0 112 -46 112q-39 0 -92 -49t-71 -91q0 -145 11 -233q27 -6 63 -19l-2 -19q-56 8 -106 8t-101 -6l-3 19q30 13 59 20q9 68 9 157v186q0 263 -24 358l21 6q9 -32 23 -53q55 9 107 24l5 -18q-19 -15 -47 -29q-15 -82 -15 -339l4 -1q34 47 88.5 96.5t98.5 64.5
q61 0 79 -55q12 -39 12 -96v-20l-5 -281q24 -8 54 -8v-21q-64 -3 -135 -19l-7 4q16 97 19 280q1 10 1 22zM150 844l-134 -90l-13 17q84 71 137 168h20q53 -97 137 -168l-13 -17z" />
    <glyph glyph-name="Hbar" unicode="&#x126;" horiz-adv-x="708" 
d="M496 521l-6 92q-51 7 -96 21l4 25q61 -8 148.5 -8t151.5 8l3 -24q-57 -14 -110 -19q-5 -25 -8 -95l81 3l6 -6l-5 -27h-84q-3 -68 -3 -136v-59q0 -187 13 -261q53 -5 110 -19l-3 -24q-64 8 -151.5 8t-148.5 -8l-4 25q45 14 96 21q10 101 11 290q-74 7 -147 7t-147 -7
q1 -214 13 -293q53 -5 110 -19l-3 -24q-74 8 -160.5 8t-139.5 -8l-4 25q45 14 96 21q11 82 11 258v59q0 46 -4 136h-70l-8 7l5 32l71 -3q-3 52 -7 86q-51 7 -96 21l4 25q53 -8 139.5 -8t160.5 8l3 -24q-57 -14 -110 -19q-4 -19 -7 -92q150 -3 285 -3zM207 382
q76 -10 151 -10t143 9l-3 110h-289q-2 -70 -2 -109z" />
    <glyph glyph-name="hbar" unicode="&#x127;" horiz-adv-x="542" 
d="M385 291q0 112 -46 112q-39 0 -92 -49t-71 -91q0 -145 11 -233q27 -6 63 -19l-2 -19q-56 8 -106 8t-101 -6l-3 19q30 13 59 20q9 68 9 157v186q0 125 -2 175q-33 -2 -70 -7l-3 4q6 20 7 32l64 2q-5 92 -20 152l21 6q9 -32 23 -53q55 9 107 24l5 -18q-19 -15 -47 -29
q-6 -30 -9 -79l119 4q64 3 84 5q4 -20 9 -31v-5l-122 -2l-92 -3q-4 -75 -4 -228l4 -1q34 47 88.5 96.5t98.5 64.5q61 0 79 -55q12 -39 12 -96v-20l-5 -281q24 -8 54 -8v-21q-64 -3 -135 -19l-7 4q16 97 19 280q1 10 1 22z" />
    <glyph glyph-name="Itilde" unicode="&#x128;" horiz-adv-x="337" 
d="M218 616q-11 -75 -11 -280t13 -301q53 -5 110 -19l-3 -24q-74 8 -160.5 8t-139.5 -8l-4 25q45 14 96 21q11 82 11 258v59q0 162 -13 258q-51 7 -96 21l4 25q53 -8 139.5 -8t160.5 8l3 -24q-57 -14 -110 -19zM137 837q59 -31 111.5 -31t72.5 24l18 -11q-56 -61 -104 -82
q-21 0 -72.5 15.5t-72.5 15.5q-43 0 -63 -24l-18 11q56 61 128 82z" />
    <glyph glyph-name="itilde" unicode="&#x129;" horiz-adv-x="287" 
d="M218 632q35 0 55 24l17 -11q-38 -56 -91 -82q-16 0 -63 15.5t-63 15.5q-35 0 -53 -24l-18 11q46 59 112 82q48 -31 104 -31zM190 274v-84q0 -108 7 -160q28 -6 63 -19l-2 -19q-56 8 -106 8t-101 -6l-3 19q30 13 59 20q9 68 9 157v84q0 81 -8 162q-26 8 -54 8v21
q77 5 142 20l7 -4q-13 -77 -13 -207z" />
    <glyph glyph-name="Imacron" unicode="&#x12a;" horiz-adv-x="337" 
d="M218 616q-11 -75 -11 -280t13 -301q53 -5 110 -19l-3 -24q-74 8 -160.5 8t-139.5 -8l-4 25q45 14 96 21q11 82 11 258v59q0 162 -13 258q-51 7 -96 21l4 25q53 -8 139.5 -8t160.5 8l3 -24q-57 -14 -110 -19zM90 826q50 -3 108.5 -3t103.5 4l8 -5l-9 -46l-256 -3l-9 6
l9 50z" />
    <glyph glyph-name="imacron" unicode="&#x12b;" horiz-adv-x="287" 
d="M83 638q42 -3 87.5 -3t84.5 4l8 -5l-9 -46l-216 -3l-9 6l9 50zM190 274v-84q0 -108 7 -160q28 -6 63 -19l-2 -19q-56 8 -106 8t-101 -6l-3 19q30 13 59 20q9 68 9 157v84q0 81 -8 162q-26 8 -54 8v21q77 5 142 20l7 -4q-13 -77 -13 -207z" />
    <glyph glyph-name="Ibreve" unicode="&#x12c;" horiz-adv-x="337" 
d="M218 616q-11 -75 -11 -280t13 -301q53 -5 110 -19l-3 -24q-74 8 -160.5 8t-139.5 -8l-4 25q45 14 96 21q11 82 11 258v59q0 162 -13 258q-51 7 -96 21l4 25q53 -8 139.5 -8t160.5 8l3 -24q-57 -14 -110 -19zM206 785q70 0 107 69l18 -11q-21 -43 -58 -76t-81 -48
q-49 0 -103 33t-73 77l1 9q43 2 71 16h4q14 -33 45 -51t69 -18z" />
    <glyph glyph-name="ibreve" unicode="&#x12d;" horiz-adv-x="287" 
d="M82 683q28 -70 91 -70t92 70l19 -11q-17 -42 -49.5 -75.5t-70.5 -48.5q-49 0 -95.5 32t-62.5 78l1 9q46 2 71 16h4zM190 274v-84q0 -108 7 -160q28 -6 63 -19l-2 -19q-56 8 -106 8t-101 -6l-3 19q30 13 59 20q9 68 9 157v84q0 81 -8 162q-26 8 -54 8v21q77 5 142 20l7 -4
q-13 -77 -13 -207z" />
    <glyph glyph-name="Iogonek" unicode="&#x12e;" horiz-adv-x="337" 
d="M226 -1q-16 1 -81 1t-118 -8l-4 25q45 14 96 21q11 82 11 258v59q0 162 -13 258q-51 7 -96 21l4 25q53 -8 139.5 -8t160.5 8l3 -24q-57 -14 -110 -19q-11 -75 -11 -280t13 -301q53 -5 110 -19l-3 -24q-28 4 -52.5 4t-51.5 -30.5t-27 -67.5q0 -62 66 -62q22 0 37 4v-9
q-31 -21 -49 -46q-60 0 -90 23t-30 79q13 31 40.5 62.5t55.5 49.5z" />
    <glyph glyph-name="iogonek" unicode="&#x12f;" horiz-adv-x="287" 
d="M153 0q-51 0 -102 -6l-3 19q30 13 59 20q9 68 9 157v84q0 81 -8 162q-26 8 -54 8v21q77 5 142 20l7 -4q-13 -77 -13 -207v-84q0 -108 7 -160q28 -6 63 -19l-2 -19q-27 5 -43 5q-31 0 -59.5 -33.5t-28.5 -65.5q0 -62 66 -62q22 0 37 4v-9q-32 -21 -49 -46q-60 0 -90 23
t-30 79q13 31 42 62.5t60 50.5h-10zM208 620q-7 -13 -24.5 -33t-29.5 -28q-12 8 -29.5 28t-24.5 33q6 12 23 27.5t31 22.5q13 -8 30 -23.5t24 -26.5z" />
    <glyph glyph-name="Idotaccent" unicode="&#x130;" horiz-adv-x="337" 
d="M218 616q-11 -75 -11 -280t13 -301q53 -5 110 -19l-3 -24q-74 8 -160.5 8t-139.5 -8l-4 25q45 14 96 21q11 82 11 258v59q0 162 -13 258q-51 7 -96 21l4 25q53 -8 139.5 -8t160.5 8l3 -24q-57 -14 -110 -19zM227 803q-7 -13 -24.5 -33t-29.5 -28q-12 8 -29.5 28t-24.5 33
q6 12 23 27.5t31 22.5q13 -8 30 -23.5t24 -26.5z" />
    <glyph glyph-name="dotlessi" unicode="&#x131;" horiz-adv-x="287" 
d="M190 274v-84q0 -108 7 -160q28 -6 63 -19l-2 -19q-56 8 -106 8t-101 -6l-3 19q30 13 59 20q9 68 9 157v84q0 81 -8 162q-26 8 -54 8v21q77 5 142 20l7 -4q-13 -77 -13 -207z" />
    <glyph glyph-name="IJ" unicode="&#x132;" horiz-adv-x="674" 
d="M218 616q-11 -75 -11 -280t13 -301q53 -5 110 -19l-3 -24q-74 8 -160.5 8t-139.5 -8l-4 25q45 14 96 21q11 82 11 258v59q0 162 -13 258q-51 7 -96 21l4 25q53 -8 139.5 -8t160.5 8l3 -24q-57 -14 -110 -19zM349 659q74 -8 160.5 -8t139.5 8l4 -25q-45 -14 -96 -21
q-13 -96 -13 -258v-59q0 -185 8 -263q-56 -126 -206 -213l-17 19q76 64 107 137.5t31 177.5v201q0 186 -11 261q-53 5 -110 19z" />
    <glyph glyph-name="ij" unicode="&#x133;" horiz-adv-x="578" 
d="M190 274v-84q0 -108 7 -160q28 -6 63 -19l-2 -19q-56 8 -106 8t-101 -6l-3 19q30 13 59 20q9 68 9 157v84q0 81 -8 162q-26 8 -54 8v21q77 5 142 20l7 -4q-13 -77 -13 -207zM208 620q-7 -13 -24.5 -33t-29.5 -28q-12 8 -29.5 28t-24.5 33q6 12 23 27.5t31 22.5
q13 -8 30 -23.5t24 -26.5zM400 53v137q0 165 -8 246q-26 8 -54 8v21q77 5 142 20l7 -4q-15 -88 -15 -246.5t7 -234.5q-32 -109 -160 -215l-15 15q96 117 96 253zM493 620q-7 -13 -24.5 -33t-29.5 -28q-12 8 -29.5 28t-24.5 33q6 12 23 27.5t31 22.5q13 -8 30 -23.5t24 -26.5
z" />
    <glyph glyph-name="Jcircumflex" unicode="&#x134;" horiz-adv-x="337" 
d="M325 715l-161 75l-161 -75l-10 19q92 58 161 151h20q69 -93 161 -151zM12 659q74 -8 160.5 -8t139.5 8l4 -25q-45 -14 -96 -21q-13 -96 -13 -258v-59q0 -185 8 -263q-56 -126 -206 -213l-17 19q76 64 107 137.5t31 177.5v201q0 186 -11 261q-53 5 -110 19z" />
    <glyph glyph-name="jcircumflex" unicode="&#x135;" horiz-adv-x="291" 
d="M143 612l-134 -90l-13 17q84 71 137 168h20q53 -97 137 -168l-13 -17zM113 53v137q0 165 -8 246q-26 8 -54 8v21q77 5 142 20l7 -4q-15 -88 -15 -246.5t7 -234.5q-32 -109 -160 -215l-15 15q96 117 96 253z" />
    <glyph glyph-name="kcommaaccent" unicode="&#x137;" horiz-adv-x="515" 
d="M253 -8q-56 8 -106 8t-101 -6l-3 19q30 13 59 20q9 68 9 197v187q0 151 -8 232q-26 8 -54 8v21q99 7 190 33l5 -18q-19 -15 -47 -29q-16 -88 -16 -338l4 -2q35 50 85 97.5t94 63.5q36 -9 58 -42t22 -72q0 -100 -100 -143l30 -64q10 -21 20.5 -45t15.5 -36q14 -29 27 -46
q0 -2 21.5 -5t32.5 -3v-21q-69 -3 -142 -20l-9 5q0 70 -57 218q-24 -2 -36 -2v21q54 3 85.5 31.5t31.5 79.5q0 17 -7.5 40.5t-19.5 31.5q-39 -7 -88.5 -57.5t-67.5 -92.5q0 -145 11 -233q28 -6 63 -19zM329 -84q-5 -79 -106 -131l-10 13q42 31 48 68q-26 24 -40 50
q6 12 23 27.5t31 22.5q13 -8 30 -23.5t24 -26.5z" />
    <glyph glyph-name="kgreenlandic" unicode="&#x138;" horiz-adv-x="506" 
d="M254 -8q-56 8 -106 8t-101 -6l-3 19q30 13 59 20q9 68 9 157v84q0 81 -8 162q-26 8 -54 8v21q77 5 142 20l7 -4q-13 -77 -13 -207v-27l4 -1q28 57 90.5 130.5t112.5 108.5q45 0 88 -16v-14q-38 -48 -43 -125h-22q0 39 -2 61q-13 10 -34 10q-31 0 -107 -93l94 -149
q54 -88 84 -126q18 -8 54 -8v-21q-63 -3 -133 -19l-8 4q0 34 -61 128l-79 126q-29 -41 -38 -58q0 -104 7 -155q28 -6 63 -19z" />
    <glyph glyph-name="lacute" unicode="&#x13a;" horiz-adv-x="298" 
d="M186 230v-91.5t6 -108.5q28 -6 63 -19l-2 -19q-56 8 -106 8t-101 -6l-3 19q30 13 59 20q9 64 10 197l2 187v93.5t-7 138.5q-26 8 -54 8v21q100 7 191 33l5 -18q-19 -15 -47 -29q-12 -66 -14 -247zM153 844l-134 -90l-13 17q84 71 137 168h20q53 -97 137 -168l-13 -17z
" />
    <glyph glyph-name="Ldotaccent" unicode="&#x13f;" horiz-adv-x="456" 
d="M471 -11q-100 11 -228.5 11t-217.5 -10l-4 25q39 13 96 23q11 82 11 258v59q0 175 -11 258q-51 7 -96 21l4 25q53 -8 139.5 -8t160.5 8l3 -24q-60 -14 -110 -19q-13 -88 -13 -294t10 -280q33 -5 89 -5t96 18q12 37 19 112h25q4 -106 33 -158zM424 354q-7 -13 -24.5 -33
t-29.5 -28q-12 8 -29.5 28t-24.5 33q6 12 23 27.5t31 22.5q13 -8 30 -23.5t24 -26.5z" />
    <glyph glyph-name="ldot" unicode="&#x140;" horiz-adv-x="510" 
d="M186 230v-91.5t6 -108.5q28 -6 63 -19l-2 -19q-56 8 -106 8t-101 -6l-3 19q30 13 59 20q9 64 10 197l2 187v93.5t-7 138.5q-26 8 -54 8v21q100 7 191 33l5 -18q-19 -15 -47 -29q-12 -66 -14 -247zM346 368q-7 -13 -24.5 -33t-29.5 -28q-12 8 -29.5 28t-24.5 33
q6 12 23 27.5t31 22.5q13 -8 30 -23.5t24 -26.5z" />
    <glyph glyph-name="Lslash" unicode="&#x141;" horiz-adv-x="456" 
d="M471 -11q-100 11 -228.5 11t-217.5 -10l-4 25q39 13 96 23q11 82 11 258v12q-60 -29 -95 -55l-4 3q-5 27 -7 32l106 54v13q0 175 -11 258q-51 7 -96 21l4 25q53 -8 139.5 -8t160.5 8l3 -24q-60 -14 -110 -19q-11 -70 -13 -235l64 33q57 30 74 40q8 -12 21 -24l2 -4
l-161 -80q0 -232 10 -304q33 -5 89 -5t96 18q12 37 19 112h25q4 -106 33 -158z" />
    <glyph glyph-name="lslash" unicode="&#x142;" horiz-adv-x="298" 
d="M186 230v-91.5t6 -108.5q28 -6 63 -19l-2 -19q-56 8 -106 8t-101 -6l-3 19q30 13 59 20q9 64 10 197l1 80q-50 -26 -80 -47l-4 3q-5 27 -7 32l91 47l1 72v93.5t-7 138.5q-26 8 -54 8v21q100 7 191 33l5 -18q-19 -15 -47 -29q-12 -66 -14 -247l-1 -34l16 8q57 30 74 40
q8 -12 21 -24l2 -4l-113 -57z" />
    <glyph glyph-name="Nacute" unicode="&#x143;" horiz-adv-x="706" 
d="M554 797l-206 -75l-8 20q82 36 157 126q22 -2 42 -9q5 -9 10.5 -30.5t4.5 -31.5zM25 659q50 -8 129.5 -8t123.5 6l5 -16q-12 -4 -23 -12.5t-11 -18.5q0 -24 51 -112t224 -358l4 2v144q0 168 -17 254t-60 101l4 14q31 -4 101 -4t129 8l3 -23q-71 -17 -99 -20
q-13 -98 -13 -261v-59q0 -187 13 -261q51 -6 96 -18l-4 -25q-53 8 -106.5 8t-86.5 -3q0 69 -301 538l-4 -2v-168q0 -255 37 -330q55 -5 109 -19l-2 -24q-74 8 -160.5 8t-139.5 -8l-4 25q45 14 96 21q11 82 11 258v59q0 162 -13 258q-51 7 -96 21z" />
    <glyph glyph-name="nacute" unicode="&#x144;" horiz-adv-x="547" 
d="M385 291q0 112 -46 112q-39 0 -92 -49t-71 -91q0 -145 11 -233q27 -6 63 -19l-2 -19q-56 8 -106 8t-101 -6l-3 19q30 13 59 20q9 68 9 157v84q0 92 -7 163q-24 8 -54 8v21q64 3 135 19l7 -4q-11 -69 -11 -156l4 -1q34 47 88.5 96.5t98.5 64.5q61 0 79 -55q12 -39 12 -96
v-20l-5 -281q29 -7 59 -20l-3 -19q-48 6 -81.5 6t-63.5 -2v14q16 78 20 257q1 10 1 22zM360 694q10 1 21.5 1t21.5 -2q7 -8 15.5 -28.5t9.5 -30.5l-189 -109l-11 18q37 25 72.5 67t59.5 84z" />
    <glyph glyph-name="Ncaron" unicode="&#x147;" horiz-adv-x="706" 
d="M360 810l161 75l10 -19q-92 -58 -161 -151h-20q-69 93 -161 151l10 19zM25 659q50 -8 129.5 -8t123.5 6l5 -16q-12 -4 -23 -12.5t-11 -18.5q0 -24 51 -112t224 -358l4 2v144q0 168 -17 254t-60 101l4 14q31 -4 101 -4t129 8l3 -23q-71 -17 -99 -20q-13 -98 -13 -261v-59
q0 -187 13 -261q51 -6 96 -18l-4 -25q-53 8 -106.5 8t-86.5 -3q0 69 -301 538l-4 -2v-168q0 -255 37 -330q55 -5 109 -19l-2 -24q-74 8 -160.5 8t-139.5 -8l-4 25q45 14 96 21q11 82 11 258v59q0 162 -13 258q-51 7 -96 21z" />
    <glyph glyph-name="ncaron" unicode="&#x148;" horiz-adv-x="547" 
d="M385 291q0 112 -46 112q-39 0 -92 -49t-71 -91q0 -145 11 -233q27 -6 63 -19l-2 -19q-56 8 -106 8t-101 -6l-3 19q30 13 59 20q9 68 9 157v84q0 92 -7 163q-24 8 -54 8v21q64 3 135 19l7 -4q-11 -69 -11 -156l4 -1q34 47 88.5 96.5t98.5 64.5q61 0 79 -55q12 -39 12 -96
v-20l-5 -281q29 -7 59 -20l-3 -19q-48 6 -81.5 6t-63.5 -2v14q16 78 20 257q1 10 1 22zM146 705l134 -90l134 90l13 -17q-84 -71 -137 -168h-20q-53 97 -137 168z" />
    <glyph glyph-name="Omacron" unicode="&#x14c;" horiz-adv-x="602" 
d="M113 62.5q-71 77.5 -71 209.5t74.5 246.5t196.5 147.5q122 0 184.5 -73t62.5 -208.5t-68.5 -244t-190.5 -155.5q-117 0 -188 77.5zM276 594q-56 0 -94 -34q-51 -90 -51 -221q0 -156 84 -238q45 -44 105.5 -44t100.5 35q50 92 50 218q0 117 -40 196q-44 88 -155 88z
M238 826q49 -3 108 -3t104 4l8 -5l-9 -46l-256 -3l-9 6l9 50z" />
    <glyph glyph-name="omacron" unicode="&#x14d;" horiz-adv-x="488" 
d="M101 43.5q-56 58.5 -56 153.5t57.5 179.5t151.5 108.5q93 0 141 -54t48 -149t-56 -179t-143 -118q-87 0 -143 58.5zM227 423q-42 0 -69 -24q-33 -63 -33 -145t37 -144.5t99 -62.5q42 0 70 25q32 61 32 148.5t-33.5 145t-102.5 57.5zM176 638q49 -3 108 -3t104 4l8 -5
l-9 -46l-256 -3l-9 6l9 50z" />
    <glyph glyph-name="Obreve" unicode="&#x14e;" horiz-adv-x="602" 
d="M113 62.5q-71 77.5 -71 209.5t74.5 246.5t196.5 147.5q122 0 184.5 -73t62.5 -208.5t-68.5 -244t-190.5 -155.5q-117 0 -188 77.5zM276 594q-56 0 -94 -34q-51 -90 -51 -221q0 -156 84 -238q45 -44 105.5 -44t100.5 35q50 92 50 218q0 117 -40 196q-44 88 -155 88z
M354 785q70 0 107 69l18 -11q-21 -43 -58 -76t-81 -48q-49 0 -103 33t-73 77l1 9q43 2 71 16h4q14 -33 45 -51t69 -18z" />
    <glyph glyph-name="obreve" unicode="&#x14f;" horiz-adv-x="488" 
d="M101 43.5q-56 58.5 -56 153.5t57.5 179.5t151.5 108.5q93 0 141 -54t48 -149t-56 -179t-143 -118q-87 0 -143 58.5zM227 423q-42 0 -69 -24q-33 -63 -33 -145t37 -144.5t99 -62.5q42 0 70 25q32 61 32 148.5t-33.5 145t-102.5 57.5zM292 614q70 0 107 69l18 -11
q-21 -43 -58 -76t-81 -48q-49 0 -103 33t-73 77l1 9q43 2 71 16h4q14 -33 45 -51t69 -18z" />
    <glyph glyph-name="Ohungarumlaut" unicode="&#x150;" horiz-adv-x="602" 
d="M113 62.5q-71 77.5 -71 209.5t74.5 246.5t196.5 147.5q122 0 184.5 -73t62.5 -208.5t-68.5 -244t-190.5 -155.5q-117 0 -188 77.5zM276 594q-56 0 -94 -34q-51 -90 -51 -221q0 -156 84 -238q45 -44 105.5 -44t100.5 35q50 92 50 218q0 117 -40 196q-44 88 -155 88z
M402 807l-191 -85l-8 20q82 36 157 126q8 -1 27 -5q15 -27 15 -56zM571 807l-191 -85l-8 20q82 36 157 126q8 -1 27 -5q15 -27 15 -56z" />
    <glyph glyph-name="ohungarumlaut" unicode="&#x151;" horiz-adv-x="488" 
d="M101 43.5q-56 58.5 -56 153.5t57.5 179.5t151.5 108.5q93 0 141 -54t48 -149t-56 -179t-143 -118q-87 0 -143 58.5zM227 423q-42 0 -69 -24q-33 -63 -33 -145t37 -144.5t99 -62.5q42 0 70 25q32 61 32 148.5t-33.5 145t-102.5 57.5zM437 694q8 1 16.5 1t16.5 -2
q18 -22 25 -49l-179 -119l-11 18q37 25 72.5 67t59.5 84zM276 694q8 1 16.5 1t16.5 -2q18 -22 25 -49l-179 -119l-11 18q37 25 72.5 67t59.5 84z" />
    <glyph glyph-name="OE" unicode="&#x152;" horiz-adv-x="825" 
d="M463 656.5q45 -5.5 133 -5.5t204 11l4 -20q-52 -53 -59 -158h-25q-9 43 -9 109q-43 21 -100 21t-84 -5q-17 -52 -25 -244q32 -7 77 -7q89 0 109 43l20 -4q-9 -32 -9 -76.5t6 -87.5l-23 -4q-15 38 -20 89q-38 3 -82.5 3t-78.5 -5v-43q0 -125 37 -171q32 -38 100.5 -38
t146.5 78l14 -13q-83 -110 -183 -144q-124 0 -170 96h-4q-73 -74 -188 -96q-99 17 -155.5 88.5t-56.5 173t45 192.5t126.5 151.5t180.5 71.5q24 0 69 -5.5zM431 577q-53 23 -106.5 23t-83.5 -22q-100 -99 -100 -297q0 -94 45.5 -162.5t126.5 -68.5q48 0 77 21
q18 24 23.5 59.5t5.5 121t6 196t6 129.5z" />
    <glyph glyph-name="oe" unicode="&#x153;" horiz-adv-x="732" 
d="M101 43.5q-56 58.5 -56 153.5t57.5 179.5t151.5 108.5q119 0 162 -98h4q56 75 138 98q67 0 94 -26.5t27 -93.5q0 -38 -10 -65q21 -8 49 -8l-1 -21h-13q-112 0 -268 -33q0 -133 52 -166q22 -15 56 -15q63 0 123 53l11 -10q-57 -78 -146 -115q-118 0 -158 102h-4
q-49 -72 -126 -102q-87 0 -143 58.5zM227 423q-42 0 -69 -24q-33 -63 -33 -145t37 -144.5t99 -62.5q35 0 63 25q32 61 32 149t-31 145t-98 57zM586.5 397q-12.5 26 -52.5 26t-69 -24q-27 -56 -29 -135q82 27 163 41q0 66 -12.5 92z" />
    <glyph glyph-name="Racute" unicode="&#x154;" horiz-adv-x="619" 
d="M35 649l288 9q101 0 152 -33t51 -121q0 -122 -125 -170l140 -296q51 -7 96 -21l-4 -25q-59 8 -127.5 8t-99.5 -4l-4 14q17 17 17 57q0 80 -94 255q-25 5 -58 5l3 22h12q72 0 111 35.5t39 103.5t-30.5 100.5t-95.5 32.5q-40 0 -76 -13q-9 -94 -9 -294.5t11 -275.5
q51 -7 96 -21l-4 -25q-53 8 -139.5 8t-160.5 -8l-3 24q57 14 110 19q13 96 13 287.5t-11 285.5q-48 16 -98 16v25zM487 797l-206 -75l-8 20q82 36 157 126q22 -2 42 -9q5 -9 10.5 -30.5t4.5 -31.5z" />
    <glyph glyph-name="racute" unicode="&#x155;" horiz-adv-x="381" 
d="M269 -8q-51 8 -111 8t-117 -6l-3 19q30 13 59 20q9 68 9 157v84q0 92 -7 163q-24 8 -54 8v21q64 3 135 19l7 -4q-11 -69 -11 -156l4 -1q14 40 51.5 92.5t69.5 68.5q45 0 88 -16v-14q-38 -48 -43 -125h-22q0 39 -2 61q-13 10 -34 10q-30 0 -63.5 -47.5t-48.5 -90.5
q0 -145 11 -233q50 -7 84 -19zM308 694q10 1 21.5 1t21.5 -2q7 -8 15.5 -28.5t9.5 -30.5l-189 -109l-11 18q37 25 72.5 67t59.5 84z" />
    <glyph glyph-name="Rcommaaccent" unicode="&#x156;" horiz-adv-x="619" 
d="M35 649l288 9q101 0 152 -33t51 -121q0 -122 -125 -170l140 -296q51 -7 96 -21l-4 -25q-59 8 -127.5 8t-99.5 -4l-4 14q17 17 17 57q0 80 -94 255q-25 5 -58 5l3 22h12q72 0 111 35.5t39 103.5t-30.5 100.5t-95.5 32.5q-40 0 -76 -13q-9 -94 -9 -294.5t11 -275.5
q51 -7 96 -21l-4 -25q-53 8 -139.5 8t-160.5 -8l-3 24q57 14 110 19q13 96 13 287.5t-11 285.5q-48 16 -98 16v25zM379 -84q-5 -79 -106 -131l-10 13q42 31 48 68q-26 24 -40 50q6 12 23 27.5t31 22.5q13 -8 30 -23.5t24 -26.5z" />
    <glyph glyph-name="rcommaaccent" unicode="&#x157;" horiz-adv-x="381" 
d="M269 -8q-51 8 -111 8t-117 -6l-3 19q30 13 59 20q9 68 9 157v84q0 92 -7 163q-24 8 -54 8v21q64 3 135 19l7 -4q-11 -69 -11 -156l4 -1q14 40 51.5 92.5t69.5 68.5q45 0 88 -16v-14q-38 -48 -43 -125h-22q0 39 -2 61q-13 10 -34 10q-30 0 -63.5 -47.5t-48.5 -90.5
q0 -145 11 -233q50 -7 84 -19zM205 -84q-5 -79 -106 -131l-10 13q42 31 48 68q-26 24 -40 50q6 12 23 27.5t31 22.5q13 -8 30 -23.5t24 -26.5z" />
    <glyph glyph-name="Rcaron" unicode="&#x158;" horiz-adv-x="619" 
d="M306 810l161 75l10 -19q-92 -58 -161 -151h-20q-69 93 -161 151l10 19zM35 649l288 9q101 0 152 -33t51 -121q0 -122 -125 -170l140 -296q51 -7 96 -21l-4 -25q-59 8 -127.5 8t-99.5 -4l-4 14q17 17 17 57q0 80 -94 255q-25 5 -58 5l3 22h12q72 0 111 35.5t39 103.5
t-30.5 100.5t-95.5 32.5q-40 0 -76 -13q-9 -94 -9 -294.5t11 -275.5q51 -7 96 -21l-4 -25q-53 8 -139.5 8t-160.5 -8l-3 24q57 14 110 19q13 96 13 287.5t-11 285.5q-48 16 -98 16v25z" />
    <glyph glyph-name="rcaron" unicode="&#x159;" horiz-adv-x="381" 
d="M269 -8q-51 8 -111 8t-117 -6l-3 19q30 13 59 20q9 68 9 157v84q0 92 -7 163q-24 8 -54 8v21q64 3 135 19l7 -4q-11 -69 -11 -156l4 -1q14 40 51.5 92.5t69.5 68.5q45 0 88 -16v-14q-38 -48 -43 -125h-22q0 39 -2 61q-13 10 -34 10q-30 0 -63.5 -47.5t-48.5 -90.5
q0 -145 11 -233q50 -7 84 -19zM95 705l134 -90l134 90l13 -17q-84 -71 -137 -168h-20q-53 97 -137 168z" />
    <glyph glyph-name="Sacute" unicode="&#x15a;" horiz-adv-x="465" 
d="M417 797l-206 -75l-8 20q82 36 157 126q22 -2 42 -9q5 -9 10.5 -30.5t4.5 -31.5zM114 130l2 -40v-3q57 -23 114 -23t90.5 26.5t33.5 77.5q0 30 -43 67.5t-95 67.5t-95 68.5t-43 70.5q0 70 64.5 135.5t141.5 88.5q86 0 163 -17v-20q-52 -48 -58 -148h-25q0 53 -5 93
q-43 20 -95.5 20t-85.5 -22t-33 -63q0 -30 43 -67t94.5 -66.5t94.5 -67.5t43 -70q0 -73 -64.5 -148t-140.5 -105q-79 0 -147 18q-21 -10 -42 -30l-15 14q69 73 77 193h25v-14z" />
    <glyph glyph-name="sacute" unicode="&#x15b;" horiz-adv-x="391" 
d="M93 110l2 -42v-4q46 -17 87 -17t68.5 18t27.5 60q0 31 -105 85q-39 20 -72 48.5t-33 55.5q0 53 56.5 106.5t106.5 64.5q64 0 124 -16v-14q-39 -48 -43 -105h-22q0 39 -2 61q-39 12 -74 12t-62.5 -13.5t-27.5 -43.5q0 -18 33 -42t72 -43.5t72 -48.5t33 -56
q0 -61 -55.5 -117.5t-112.5 -73.5q-72 0 -138 21v14q39 48 43 105h22v-15zM309 694q10 1 21.5 1t21.5 -2q7 -8 15.5 -28.5t9.5 -30.5l-189 -109l-11 18q37 25 72.5 67t59.5 84z" />
    <glyph glyph-name="Scircumflex" unicode="&#x15c;" horiz-adv-x="465" 
d="M434 715l-161 75l-161 -75l-10 19q92 58 161 151h20q69 -93 161 -151zM114 130l2 -40v-3q57 -23 114 -23t90.5 26.5t33.5 77.5q0 30 -43 67.5t-95 67.5t-95 68.5t-43 70.5q0 70 64.5 135.5t141.5 88.5q86 0 163 -17v-20q-52 -48 -58 -148h-25q0 53 -5 93q-43 20 -95.5 20
t-85.5 -22t-33 -63q0 -30 43 -67t94.5 -66.5t94.5 -67.5t43 -70q0 -73 -64.5 -148t-140.5 -105q-79 0 -147 18q-21 -10 -42 -30l-15 14q69 73 77 193h25v-14z" />
    <glyph glyph-name="scircumflex" unicode="&#x15d;" horiz-adv-x="391" 
d="M93 110l2 -42v-4q46 -17 87 -17t68.5 18t27.5 60q0 31 -105 85q-39 20 -72 48.5t-33 55.5q0 53 56.5 106.5t106.5 64.5q64 0 124 -16v-14q-39 -48 -43 -105h-22q0 39 -2 61q-39 12 -74 12t-62.5 -13.5t-27.5 -43.5q0 -18 33 -42t72 -43.5t72 -48.5t33 -56
q0 -61 -55.5 -117.5t-112.5 -73.5q-72 0 -138 21v14q39 48 43 105h22v-15zM231 612l-134 -90l-13 17q84 71 137 168h20q53 -97 137 -168l-13 -17z" />
    <glyph glyph-name="Scedilla" unicode="&#x15e;" horiz-adv-x="465" 
d="M114 130l2 -40v-3q57 -23 114 -23t90.5 26.5t33.5 77.5q0 30 -43 67.5t-95 67.5t-95 68.5t-43 70.5q0 70 64.5 135.5t141.5 88.5q86 0 163 -17v-20q-52 -48 -58 -148h-25q0 53 -5 93q-43 20 -95.5 20t-85.5 -22t-33 -63q0 -30 43 -67t94.5 -66.5t94.5 -67.5t43 -70
q0 -73 -64.5 -148t-140.5 -105q-79 0 -147 18q-21 -10 -42 -30l-15 14q69 73 77 193h25v-14zM214 -178q18 0 26 5q9 13 9 31q0 45 -83 45l-6 4l38 107l29 2l-24 -62l4 -3q46 0 74.5 -21t28.5 -63q-14 -27 -40.5 -49.5t-55.5 -32.5q-44 0 -88 21q10 19 16 39l4 2
q32 -25 68 -25z" />
    <glyph glyph-name="scedilla" unicode="&#x15f;" horiz-adv-x="391" 
d="M93 110l2 -42v-4q46 -17 87 -17t68.5 18t27.5 60q0 31 -105 85q-39 20 -72 48.5t-33 55.5q0 53 56.5 106.5t106.5 64.5q64 0 124 -16v-14q-39 -48 -43 -105h-22q0 39 -2 61q-39 12 -74 12t-62.5 -13.5t-27.5 -43.5q0 -18 33 -42t72 -43.5t72 -48.5t33 -56
q0 -61 -55.5 -117.5t-112.5 -73.5q-72 0 -138 21v14q39 48 43 105h22v-15zM176 -178q18 0 26 5q9 13 9 31q0 45 -83 45l-6 4l38 107l29 2l-24 -62l4 -3q46 0 74.5 -21t28.5 -63q-14 -27 -40.5 -49.5t-55.5 -32.5q-44 0 -88 21q10 19 16 39l4 2q32 -25 68 -25z" />
    <glyph glyph-name="Scaron" unicode="&#x160;" horiz-adv-x="465" 
d="M273 810l161 75l10 -19q-92 -58 -161 -151h-20q-69 93 -161 151l10 19zM114 130l2 -40v-3q57 -23 114 -23t90.5 26.5t33.5 77.5q0 30 -43 67.5t-95 67.5t-95 68.5t-43 70.5q0 70 64.5 135.5t141.5 88.5q86 0 163 -17v-20q-52 -48 -58 -148h-25q0 53 -5 93
q-43 20 -95.5 20t-85.5 -22t-33 -63q0 -30 43 -67t94.5 -66.5t94.5 -67.5t43 -70q0 -73 -64.5 -148t-140.5 -105q-79 0 -147 18q-21 -10 -42 -30l-15 14q69 73 77 193h25v-14z" />
    <glyph glyph-name="scaron" unicode="&#x161;" horiz-adv-x="391" 
d="M93 110l2 -42v-4q46 -17 87 -17t68.5 18t27.5 60q0 31 -105 85q-39 20 -72 48.5t-33 55.5q0 53 56.5 106.5t106.5 64.5q64 0 124 -16v-14q-39 -48 -43 -105h-22q0 39 -2 61q-39 12 -74 12t-62.5 -13.5t-27.5 -43.5q0 -18 33 -42t72 -43.5t72 -48.5t33 -56
q0 -61 -55.5 -117.5t-112.5 -73.5q-72 0 -138 21v14q39 48 43 105h22v-15zM96 705l134 -90l134 90l13 -17q-84 -71 -137 -168h-20q-53 97 -137 168z" />
    <glyph glyph-name="Tcedilla" unicode="&#x162;" horiz-adv-x="519" 
d="M352 614q-27 0 -44 -5q-10 -68 -10 -273t13 -301q50 -5 110 -19l-3 -24q-74 8 -160.5 8t-139.5 -8l-4 25q45 14 96 21q11 82 11 258v59q0 103 -13 254q-17 5 -59 5t-84 -18q-13 -42 -20 -112h-25q-4 107 -33 158l6 20q96 -11 275.5 -11t275.5 11l4 -20q-33 -35 -44.5 -69
t-14.5 -89h-25q-9 43 -9 109q-43 21 -103 21zM272 -178q18 0 26 5q9 13 9 31q0 45 -83 45l-6 4l38 107l29 2l-24 -62l4 -3q46 0 74.5 -21t28.5 -63q-14 -27 -40.5 -49.5t-55.5 -32.5q-44 0 -88 21q10 19 16 39l4 2q32 -25 68 -25z" />
    <glyph glyph-name="tcedilla" unicode="&#x163;" horiz-adv-x="344" 
d="M170 195q0 -138 30 -138q55 0 114 53l10 -10q-58 -81 -141 -115q-57 0 -73 52q-14 44 -14 152v41l4 199h-54l-2 2q0 16 3 22q84 55 110 114q12 3 28 3l4 -2q-10 -60 -12 -97l140 5l4 -4q-7 -18 -13 -47q-51 3 -134 3l-4 -198v-35zM196 -178q18 0 26 5q9 13 9 31
q0 45 -83 45l-6 4l38 107l29 2l-24 -62l4 -3q46 0 74.5 -21t28.5 -63q-14 -27 -40.5 -49.5t-55.5 -32.5q-44 0 -88 21q10 19 16 39l4 2q32 -25 68 -25z" />
    <glyph glyph-name="Tcaron" unicode="&#x164;" horiz-adv-x="519" 
d="M264 810l161 75l10 -19q-92 -58 -161 -151h-20q-69 93 -161 151l10 19zM352 614q-27 0 -44 -5q-10 -68 -10 -273t13 -301q50 -5 110 -19l-3 -24q-74 8 -160.5 8t-139.5 -8l-4 25q45 14 96 21q11 82 11 258v59q0 103 -13 254q-17 5 -59 5t-84 -18q-13 -42 -20 -112h-25
q-4 107 -33 158l6 20q96 -11 275.5 -11t275.5 11l4 -20q-33 -35 -44.5 -69t-14.5 -89h-25q-9 43 -9 109q-43 21 -103 21z" />
    <glyph glyph-name="Tbar" unicode="&#x166;" horiz-adv-x="519" 
d="M352 614q-27 0 -44 -5q-10 -64 -10 -238l39 2q63 3 84 5q4 -20 9 -31v-5l-132 -2q0 -211 13 -305q50 -5 110 -19l-3 -24q-74 8 -160.5 8t-139.5 -8l-4 25q45 14 96 21q11 82 11 258v42h-11q-72 -2 -118 -9l-3 4q6 20 7 32l125 4q-1 73 -13 240q-17 5 -59 5t-84 -18
q-13 -42 -20 -112h-25q-4 107 -33 158l6 20q96 -11 275.5 -11t275.5 11l4 -20q-33 -35 -44.5 -69t-14.5 -89h-25q-9 43 -9 109q-43 21 -103 21z" />
    <glyph glyph-name="tbar" unicode="&#x167;" horiz-adv-x="344" 
d="M170 195q0 -138 30 -138q55 0 114 53l10 -10q-58 -81 -141 -115q-57 0 -73 52q-14 44 -14 152v41l1 40q-29 -1 -50 -5l-3 4q6 20 7 32l46 1l3 127h-54l-2 2q0 16 3 22q84 55 110 114q12 3 28 3l4 -2q-10 -60 -12 -97l140 5l4 -4q-7 -18 -13 -47q-51 3 -134 3l-3 -123
l52 2q65 3 85 5q4 -20 9 -31v-5l-146 -2l-1 -44v-35z" />
    <glyph glyph-name="Utilde" unicode="&#x168;" horiz-adv-x="665" 
d="M197 549q-14 -126 -14 -219.5t3 -123t12 -57.5t24 -46q34 -39 106 -39t125 48q5 130 5 260t-11 244q-51 7 -96 21l4 22q61 -8 148.5 -8t151.5 8l3 -21q-57 -14 -110 -19q-13 -74 -13 -264v-59q0 -187 13 -261q53 -5 110 -19l-3 -24q-64 8 -130 8t-84 -1l-3 14q9 11 13 71
q-58 -65 -146 -99q-111 0 -156.5 65.5t-45.5 190.5q0 57 7 181t7 147t-7 44q-51 7 -96 21l4 25q59 -8 127.5 -8t99.5 4l4 -14q-45 -25 -52 -92zM300 846q59 -31 111.5 -31t72.5 24l18 -11q-56 -61 -104 -82q-21 0 -72.5 15.5t-72.5 15.5q-43 0 -63 -24l-18 11q56 61 128 82z
" />
    <glyph glyph-name="utilde" unicode="&#x169;" horiz-adv-x="542" 
d="M157 179q0 -112 46 -112q39 0 92 49t71 91q0 145 -11 233q-27 6 -63 19l2 19q56 -8 106 -8t101 6l3 -19q-30 -13 -59 -20q-9 -68 -9 -157v-84q0 -92 7 -163q24 -8 54 -8v-21q-64 -3 -135 -19l-7 2q11 69 11 158l-4 1q-34 -47 -88.5 -96.5t-98.5 -64.5q-61 0 -79 55
q-12 39 -12 96v20l5 281q-24 8 -54 8v21q64 3 135 19l7 -4q-16 -97 -19 -280q-1 -10 -1 -22zM247 663q59 -31 111.5 -31t72.5 24l18 -11q-56 -61 -104 -82q-21 0 -72.5 15.5t-72.5 15.5q-43 0 -63 -24l-18 11q56 61 128 82z" />
    <glyph glyph-name="Umacron" unicode="&#x16a;" horiz-adv-x="665" 
d="M197 549q-14 -126 -14 -219.5t3 -123t12 -57.5t24 -46q34 -39 106 -39t125 48q5 130 5 260t-11 244q-51 7 -96 21l4 22q61 -8 148.5 -8t151.5 8l3 -21q-57 -14 -110 -19q-13 -74 -13 -264v-59q0 -187 13 -261q53 -5 110 -19l-3 -24q-64 8 -130 8t-84 -1l-3 14q9 11 13 71
q-58 -65 -146 -99q-111 0 -156.5 65.5t-45.5 190.5q0 57 7 181t7 147t-7 44q-51 7 -96 21l4 25q59 -8 127.5 -8t99.5 4l4 -14q-45 -25 -52 -92zM260 826q49 -3 108 -3t104 4l8 -5l-9 -46l-256 -3l-9 6l9 50z" />
    <glyph glyph-name="umacron" unicode="&#x16b;" horiz-adv-x="542" 
d="M157 179q0 -112 46 -112q39 0 92 49t71 91q0 145 -11 233q-27 6 -63 19l2 19q56 -8 106 -8t101 6l3 -19q-30 -13 -59 -20q-9 -68 -9 -157v-84q0 -92 7 -163q24 -8 54 -8v-21q-64 -3 -135 -19l-7 2q11 69 11 158l-4 1q-34 -47 -88.5 -96.5t-98.5 -64.5q-61 0 -79 55
q-12 39 -12 96v20l5 281q-24 8 -54 8v21q64 3 135 19l7 -4q-16 -97 -19 -280q-1 -10 -1 -22zM201 638q49 -3 108 -3t104 4l8 -5l-9 -46l-256 -3l-9 6l9 50z" />
    <glyph glyph-name="Ubreve" unicode="&#x16c;" horiz-adv-x="665" 
d="M197 549q-14 -126 -14 -219.5t3 -123t12 -57.5t24 -46q34 -39 106 -39t125 48q5 130 5 260t-11 244q-51 7 -96 21l4 22q61 -8 148.5 -8t151.5 8l3 -21q-57 -14 -110 -19q-13 -74 -13 -264v-59q0 -187 13 -261q53 -5 110 -19l-3 -24q-64 8 -130 8t-84 -1l-3 14q9 11 13 71
q-58 -65 -146 -99q-111 0 -156.5 65.5t-45.5 190.5q0 57 7 181t7 147t-7 44q-51 7 -96 21l4 25q59 -8 127.5 -8t99.5 4l4 -14q-45 -25 -52 -92zM376 785q70 0 107 69l18 -11q-21 -43 -58 -76t-81 -48q-49 0 -103 33t-73 77l1 9q43 2 71 16h4q14 -33 45 -51t69 -18z" />
    <glyph glyph-name="ubreve" unicode="&#x16d;" horiz-adv-x="542" 
d="M157 179q0 -112 46 -112q39 0 92 49t71 91q0 145 -11 233q-27 6 -63 19l2 19q56 -8 106 -8t101 6l3 -19q-30 -13 -59 -20q-9 -68 -9 -157v-84q0 -92 7 -163q24 -8 54 -8v-21q-64 -3 -135 -19l-7 2q11 69 11 158l-4 1q-34 -47 -88.5 -96.5t-98.5 -64.5q-61 0 -79 55
q-12 39 -12 96v20l5 281q-24 8 -54 8v21q64 3 135 19l7 -4q-16 -97 -19 -280q-1 -10 -1 -22zM318 614q70 0 107 69l18 -11q-21 -43 -58 -76t-81 -48q-49 0 -103 33t-73 77l1 9q43 2 71 16h4q14 -33 45 -51t69 -18z" />
    <glyph glyph-name="Uring" unicode="&#x16e;" horiz-adv-x="665" 
d="M197 549q-14 -126 -14 -219.5t3 -123t12 -57.5t24 -46q34 -39 106 -39t125 48q5 130 5 260t-11 244q-51 7 -96 21l4 22q61 -8 148.5 -8t151.5 8l3 -21q-57 -14 -110 -19q-13 -74 -13 -264v-59q0 -187 13 -261q53 -5 110 -19l-3 -24q-64 8 -130 8t-84 -1l-3 14q9 11 13 71
q-58 -65 -146 -99q-111 0 -156.5 65.5t-45.5 190.5q0 57 7 181t7 147t-7 44q-51 7 -96 21l4 25q59 -8 127.5 -8t99.5 4l4 -14q-45 -25 -52 -92zM266 723q-28 19 -28 56.5t29.5 67t72.5 38.5q91 0 91 -74q0 -39 -26.5 -66.5t-69.5 -40.5q-41 0 -69 19zM368.5 834
q-15.5 16 -39 16t-33.5 -9q-11 -17 -11 -43t16 -42.5t39 -16.5t33 9q11 16 11 43t-15.5 43z" />
    <glyph glyph-name="uring" unicode="&#x16f;" horiz-adv-x="542" 
d="M157 179q0 -112 46 -112q39 0 92 49t71 91q0 145 -11 233q-27 6 -63 19l2 19q56 -8 106 -8t101 6l3 -19q-30 -13 -59 -20q-9 -68 -9 -157v-84q0 -92 7 -163q24 -8 54 -8v-21q-64 -3 -135 -19l-7 2q11 69 11 158l-4 1q-34 -47 -88.5 -96.5t-98.5 -64.5q-61 0 -79 55
q-12 39 -12 96v20l5 281q-24 8 -54 8v21q64 3 135 19l7 -4q-16 -97 -19 -280q-1 -10 -1 -22zM215 544q-28 19 -28 56.5t29.5 67t72.5 38.5q91 0 91 -74q0 -39 -26.5 -66.5t-69.5 -40.5q-41 0 -69 19zM317.5 655q-15.5 16 -38.5 16t-34 -9q-11 -16 -11 -42.5t16 -43t39 -16.5
t33 9q11 17 11 43.5t-15.5 42.5z" />
    <glyph glyph-name="Uhungarumlaut" unicode="&#x170;" horiz-adv-x="665" 
d="M197 549q-14 -126 -14 -219.5t3 -123t12 -57.5t24 -46q34 -39 106 -39t125 48q5 130 5 260t-11 244q-51 7 -96 21l4 22q61 -8 148.5 -8t151.5 8l3 -21q-57 -14 -110 -19q-13 -74 -13 -264v-59q0 -187 13 -261q53 -5 110 -19l-3 -24q-64 8 -130 8t-84 -1l-3 14q9 11 13 71
q-58 -65 -146 -99q-111 0 -156.5 65.5t-45.5 190.5q0 57 7 181t7 147t-7 44q-51 7 -96 21l4 25q59 -8 127.5 -8t99.5 4l4 -14q-45 -25 -52 -92zM404 807l-191 -85l-8 20q82 36 157 126q8 -1 27 -5q15 -27 15 -56zM573 807l-191 -85l-8 20q82 36 157 126q8 -1 27 -5
q15 -27 15 -56z" />
    <glyph glyph-name="uhungarumlaut" unicode="&#x171;" horiz-adv-x="542" 
d="M157 179q0 -112 46 -112q39 0 92 49t71 91q0 145 -11 233q-27 6 -63 19l2 19q56 -8 106 -8t101 6l3 -19q-30 -13 -59 -20q-9 -68 -9 -157v-84q0 -92 7 -163q24 -8 54 -8v-21q-64 -3 -135 -19l-7 2q11 69 11 158l-4 1q-34 -47 -88.5 -96.5t-98.5 -64.5q-61 0 -79 55
q-12 39 -12 96v20l5 281q-24 8 -54 8v21q64 3 135 19l7 -4q-16 -97 -19 -280q-1 -10 -1 -22zM432 694q8 1 16.5 1t16.5 -2q18 -22 25 -49l-179 -119l-11 18q37 25 72.5 67t59.5 84zM271 694q8 1 16.5 1t16.5 -2q18 -22 25 -49l-179 -119l-11 18q37 25 72.5 67t59.5 84z" />
    <glyph glyph-name="Uogonek" unicode="&#x172;" horiz-adv-x="665" 
d="M197 549q-14 -126 -14 -219.5t3 -123t12 -57.5t24 -46q34 -39 106 -39t125 48q5 130 5 260t-11 244q-51 7 -96 21l4 22q61 -8 148.5 -8t151.5 8l3 -21q-57 -14 -110 -19q-13 -74 -13 -264v-59q0 -187 13 -261q53 -5 110 -19l-3 -24q-28 4 -52.5 4t-51.5 -30.5t-27 -67.5
q0 -62 66 -62q22 0 37 4v-9q-31 -21 -49 -46q-60 0 -90 23t-30 79q13 31 40.5 62.5t55.5 49.5q-16 1 -55.5 1t-57.5 -1l-3 14q9 11 13 71q-58 -65 -146 -99q-111 0 -156.5 65.5t-45.5 190.5q0 57 7 181t7 147t-7 44q-51 7 -96 21l4 25q59 -8 127.5 -8t99.5 4l4 -14
q-45 -25 -52 -92z" />
    <glyph glyph-name="uogonek" unicode="&#x173;" horiz-adv-x="542" 
d="M157 179q0 -112 46 -112q39 0 92 49t71 91q0 145 -11 233q-27 6 -63 19l2 19q56 -8 106 -8t101 6l3 -19q-30 -13 -59 -20q-9 -68 -9 -157v-84q0 -92 7 -163q24 -8 54 -8v-21q-114 -3 -151 -56q-16 -25 -16 -50q0 -62 66 -62q22 0 37 4v-9q-31 -21 -49 -46q-60 0 -90 23
t-30 79q23 57 91 102q11 67 11 156l-4 1q-34 -47 -88.5 -96.5t-98.5 -64.5q-61 0 -79 55q-12 39 -12 96v20l5 281q-24 8 -54 8v21q64 3 135 19l7 -4q-16 -97 -19 -280q-1 -10 -1 -22z" />
    <glyph glyph-name="Wcircumflex" unicode="&#x174;" horiz-adv-x="906" 
d="M633 715l-161 75l-161 -75l-10 19q92 58 161 151h20q69 -93 161 -151zM373 -4q-48 4 -101 4t-84 -4l-4 14q12 4 23 12.5t11 18.5q0 73 -133 488q-18 55 -31 84q-57 10 -96 23l4 25q97 -10 323.5 -10t323.5 10l4 -25q-44 -14 -96 -23q5 -35 5 -63.5t-8 -71.5
q38 -170 120 -409q74 187 97.5 283.5t23.5 165.5q0 94 -50 123l4 14q31 -4 99.5 -4t127.5 8l4 -25q-45 -14 -96 -21q5 -35 5 -58q0 -84 -41.5 -193t-150.5 -328q17 -9 46 -17l-3 -21q-48 4 -101 4t-84 -4l-4 14q12 4 23 12.5t11 18.5q0 59 -71 299h-4q-47 -121 -140 -306
q17 -9 46 -17zM404.5 352.5q23.5 96.5 23.5 165t-25 89t-102.5 20.5t-136.5 -18q9 -82 51.5 -243t91.5 -297q74 187 97.5 283.5z" />
    <glyph glyph-name="wcircumflex" unicode="&#x175;" horiz-adv-x="728" 
d="M688 395q0 -94 -51 -202.5t-122 -184.5q-25 -13 -56 -23q-46 11 -83 203q-47 -101 -120 -180q-25 -13 -56 -23q-17 4 -31.5 28t-35 103.5t-36.5 182.5t-25 137q-24 8 -54 8v21q67 3 142 20l7 -4q-8 -28 -8 -62.5t14 -122t30 -154t25 -81.5t19 -15q53 70 77.5 139.5
t24.5 141.5t-18 109q-24 8 -54 8v21q59 -4 146 -4q181 0 301 30l4 -18q-13 -10 -48 -28q8 -26 8 -50zM531 443q-81 0 -113 -20q0 -39 14 -126.5t30 -154t25 -81.5t19 -15q53 70 77.5 139.5t24.5 156.5q0 50 -21 92q-29 9 -56 9zM376 612l-134 -90l-13 17q84 71 137 168h20
q53 -97 137 -168l-13 -17z" />
    <glyph glyph-name="Ycircumflex" unicode="&#x176;" horiz-adv-x="545" 
d="M456 715l-161 75l-161 -75l-10 19q92 58 161 151h20q69 -93 161 -151zM402 609q0 22 -20 32l4 14q50 -4 105.5 -4t107.5 8l5 -25q-48 -15 -97 -21l-196 -315q0 -167 13 -263q53 -5 110 -19l-3 -24q-74 8 -160.5 8t-139.5 -8l-4 25q45 14 96 21q11 82 11 207v26
q-100 212 -127 266.5t-45 75.5q-56 7 -96 21l4 25q53 -8 143.5 -8t164.5 8l3 -24q-57 -14 -110 -19q47 -140 120 -279q111 217 111 272z" />
    <glyph glyph-name="ycircumflex" unicode="&#x177;" horiz-adv-x="530" 
d="M178 481q-19 -116 -19 -296q0 -118 42 -118q36 0 88.5 50.5t67.5 89.5q0 145 -11 233q-27 6 -63 19l2 19q56 -8 106 -8t101 6l3 -19q-30 -13 -59 -20q-9 -68 -9 -157v-84q0 -159 7 -230q-19 -55 -80 -107.5t-121 -73.5q-92 0 -168 29v13q37 44 42 112h21q0 -39 2 -61
q56 -31 128 -31q40 0 65 24q23 61 28.5 110.5t5.5 163.5l-4 1q-30 -45 -83 -95.5t-95 -65.5q-58 0 -75 55q-13 39 -13 96v20l5 281q-24 8 -54 8v21q63 3 133 19zM272 612l-134 -90l-13 17q84 71 137 168h20q53 -97 137 -168l-13 -17z" />
    <glyph glyph-name="Ydieresis" unicode="&#x178;" horiz-adv-x="545" 
d="M402 609q0 22 -20 32l4 14q50 -4 105.5 -4t107.5 8l5 -25q-48 -15 -97 -21l-196 -315q0 -167 13 -263q53 -5 110 -19l-3 -24q-74 8 -160.5 8t-139.5 -8l-4 25q45 14 96 21q11 82 11 207v26q-100 212 -127 266.5t-45 75.5q-56 7 -96 21l4 25q53 -8 143.5 -8t164.5 8l3 -24
q-57 -14 -110 -19q47 -140 120 -279q111 217 111 272zM257 803q-7 -13 -24.5 -33t-29.5 -28q-12 8 -29.5 28t-24.5 33q6 12 23 27.5t31 22.5q13 -8 30 -23.5t24 -26.5zM442 803q-7 -13 -24.5 -33t-29.5 -28q-12 8 -29.5 28t-24.5 33q6 12 23 27.5t31 22.5q13 -8 30 -23.5
t24 -26.5z" />
    <glyph glyph-name="Zacute" unicode="&#x179;" horiz-adv-x="491" 
d="M415 797l-206 -75l-8 20q82 36 157 126q22 -2 42 -9q5 -9 10.5 -30.5t4.5 -31.5zM169.5 653q134.5 -13 192.5 -13t77 7.5t42 28.5l21 -16q-34 -33 -79 -111l-268 -476l4 -3h144q58 0 83 19q6 38 6 93h26q7 -113 79 -187l-19 -15q-8 10 -20 18q-142 23 -339 23
q-81 0 -113 -38l-21 17q50 50 90 118l284 469l-3 3h-135q-63 0 -107 -19q-11 -57 -25 -91l-24 4q2 38 2 72.5t-9 70.5q-16 9 -47 17l3 22q21 0 155.5 -13z" />
    <glyph glyph-name="zacute" unicode="&#x17a;" horiz-adv-x="412" 
d="M386 126q-11 -39 -11 -71.5t7 -61.5l-12 -8q-154 46 -286 46q-31 -17 -60 -46l-17 15q32 32 73 90l209 295l-64 3q-74 3 -101 3t-36 -1q-20 -20 -37 -49l-19 11q29 53 36 126l13 7q25 -12 48 -16.5t103 -10.5l108 -9q31 17 50 36l17 -15q-42 -42 -73 -90l-192 -291l2 -4
q15 7 27 10q86 0 171 -20q10 22 23 58zM327 694q10 1 21.5 1t21.5 -2q7 -8 15.5 -28.5t9.5 -30.5l-189 -109l-11 18q37 25 72.5 67t59.5 84z" />
    <glyph glyph-name="Zdotaccent" unicode="&#x17b;" horiz-adv-x="491" 
d="M169.5 653q134.5 -13 192.5 -13t77 7.5t42 28.5l21 -16q-34 -33 -79 -111l-268 -476l4 -3h144q58 0 83 19q6 38 6 93h26q7 -113 79 -187l-19 -15q-8 10 -20 18q-142 23 -339 23q-81 0 -113 -38l-21 17q50 50 90 118l284 469l-3 3h-135q-63 0 -107 -19q-11 -57 -25 -91
l-24 4q2 38 2 72.5t-9 70.5q-16 9 -47 17l3 22q21 0 155.5 -13zM337 803q-7 -13 -24.5 -33t-29.5 -28q-12 8 -29.5 28t-24.5 33q6 12 23 27.5t31 22.5q13 -8 30 -23.5t24 -26.5z" />
    <glyph glyph-name="zdotaccent" unicode="&#x17c;" horiz-adv-x="412" 
d="M386 126q-11 -39 -11 -71.5t7 -61.5l-12 -8q-154 46 -286 46q-31 -17 -60 -46l-17 15q32 32 73 90l209 295l-64 3q-74 3 -101 3t-36 -1q-20 -20 -37 -49l-19 11q29 53 36 126l13 7q25 -12 48 -16.5t103 -10.5l108 -9q31 17 50 36l17 -15q-42 -42 -73 -90l-192 -291l2 -4
q15 7 27 10q86 0 171 -20q10 22 23 58zM288 620q-7 -13 -24.5 -33t-29.5 -28q-12 8 -29.5 28t-24.5 33q6 12 23 27.5t31 22.5q13 -8 30 -23.5t24 -26.5z" />
    <glyph glyph-name="Zcaron" unicode="&#x17d;" horiz-adv-x="491" 
d="M282 810l161 75l10 -19q-92 -58 -161 -151h-20q-69 93 -161 151l10 19zM169.5 653q134.5 -13 192.5 -13t77 7.5t42 28.5l21 -16q-34 -33 -79 -111l-268 -476l4 -3h144q58 0 83 19q6 38 6 93h26q7 -113 79 -187l-19 -15q-8 10 -20 18q-142 23 -339 23q-81 0 -113 -38
l-21 17q50 50 90 118l284 469l-3 3h-135q-63 0 -107 -19q-11 -57 -25 -91l-24 4q2 38 2 72.5t-9 70.5q-16 9 -47 17l3 22q21 0 155.5 -13z" />
    <glyph glyph-name="zcaron" unicode="&#x17e;" horiz-adv-x="412" 
d="M386 126q-11 -39 -11 -71.5t7 -61.5l-12 -8q-154 46 -286 46q-31 -17 -60 -46l-17 15q32 32 73 90l209 295l-64 3q-74 3 -101 3t-36 -1q-20 -20 -37 -49l-19 11q29 53 36 126l13 7q25 -12 48 -16.5t103 -10.5l108 -9q31 17 50 36l17 -15q-42 -42 -73 -90l-192 -291l2 -4
q15 7 27 10q86 0 171 -20q10 22 23 58zM99 705l134 -90l134 90l13 -17q-84 -71 -137 -168h-20q-53 97 -137 168z" />
    <glyph glyph-name="florin" unicode="&#x192;" horiz-adv-x="450" 
d="M48 -115q-12 0 -21 7.5t-10 19.5q27 25 42 50l7 1q11 -10 41 -10t44 7q28 76 28 171l-1 125h-54l-2 2q0 16 3 22q13 5 53 17q10 78 64 145t128 96q44 0 90 -16v-14q-38 -47 -43 -115h-22q0 39 -2 61q-20 12 -57 12t-62 -24q-21 -56 -21 -144l142 5l4 -4q-7 -18 -13 -47
q-51 3 -134 3q0 -113 6 -178q-22 -68 -85 -130t-125 -62z" />
    <glyph glyph-name="AEacute" unicode="&#x1fc;" horiz-adv-x="748" 
d="M614 797l-206 -75l-8 20q82 36 157 126q22 -2 42 -9q5 -9 10.5 -30.5t4.5 -31.5zM134 662q135 -11 294.5 -11t294.5 11l4 -20q-52 -53 -59 -158h-25q-9 43 -9 109q-43 21 -99.5 21t-84.5 -5q-17 -52 -25 -244q32 -7 77 -7q89 0 109 43l20 -4q-9 -32 -9 -76.5t6 -87.5
l-23 -4q-15 38 -20 89q-37 3 -82 3t-79 -5v-43q0 -95 24 -149q26 -60 112 -60q72 0 148 78l14 -13q-83 -110 -183 -144q-111 0 -154 68t-43 188v11l1 63q-32 6 -77.5 6t-70.5 -6l-14 -46q-38 -126 -38 -181.5t38 -77.5l-4 -14q-31 4 -104.5 4t-132.5 -8l-4 25q45 14 96 21
l210 581q-57 6 -111 19zM213 364q23 -6 65 -6t67 7q6 110 8.5 146t2.5 60t-3 40q-13 3 -32 3t-36 -3z" />
    <glyph glyph-name="aeacute" unicode="&#x1fd;" horiz-adv-x="701" 
d="M54 156q0 120 68 213t180 116q72 -10 145 -44q40 31 87 44q67 0 94 -26.5t27 -93.5q0 -21 -4 -38q8 -2 16 -2t26 4l1 -20q-154 -27 -281 -101q4 -151 107 -151q63 0 123 53l11 -10q-57 -78 -146 -115q-132 0 -172 136q-36 -43 -89 -83t-99 -53q-48 8 -71 58.5t-23 112.5z
M139 181q0 -45 11.5 -82.5t39.5 -37.5t73 31t71 65q-2 14 -2 33q0 102 56 186v4q-66 49 -144 49q-26 0 -45 -16q-60 -99 -60 -232zM561 399.5q-13 23.5 -52 23.5t-68 -24q-27 -58 -29 -161q83 53 163 79q-1 59 -14 82.5zM520 694q10 1 21.5 1t21.5 -2q7 -8 15.5 -28.5
t9.5 -30.5l-189 -109l-11 18q37 25 72.5 67t59.5 84z" />
    <glyph glyph-name="Oslashacute" unicode="&#x1fe;" horiz-adv-x="602" 
d="M485 797l-206 -75l-8 20q82 36 157 126q22 -2 42 -9q5 -9 10.5 -30.5t4.5 -31.5zM42 265q0 139 74.5 253.5t196.5 147.5q44 0 83 -11l25 77q23 2 38 7l4 -3q-14 -32 -37 -91q134 -59 134 -258q0 -138 -68.5 -246.5t-190.5 -155.5q-60 0 -117 25l-36 -97h-5q-16 9 -26 24
l39 89q-54 36 -84 98t-30 141zM217 97q45 -40 104.5 -40t99.5 35q50 92 50 218q0 177 -79 246zM368 573q-39 21 -93.5 21t-92.5 -34q-51 -90 -51 -223t64 -216z" />
    <glyph glyph-name="oslashacute" unicode="&#x1ff;" horiz-adv-x="488" 
d="M45 190q0 102 57.5 186.5t151.5 108.5q30 0 61 -7q7 21 21 70q19 2 34 7l4 -3q-2 -4 -34 -83q103 -42 103 -189q0 -93 -56 -177t-143 -118q-42 0 -82 16l-29 -78h-5q-15 8 -23 23l31 69q-91 59 -91 175zM331 72q32 61 32 163t-53 155l-120 -315q31 -28 72 -28t69 25z
M290 406q-26 17 -65.5 17t-66.5 -24q-33 -63 -33 -152t45 -149zM351 694q10 1 21.5 1t21.5 -2q7 -8 15.5 -28.5t9.5 -30.5l-189 -109l-11 18q37 25 72.5 67t59.5 84z" />
    <glyph glyph-name="dotlessj" unicode="&#x237;" horiz-adv-x="291" 
d="M113 53v137q0 165 -8 246q-26 8 -54 8v21q77 5 142 20l7 -4q-15 -88 -15 -246.5t7 -234.5q-32 -109 -160 -215l-15 15q96 117 96 253z" />
    <glyph glyph-name="circumflex" unicode="&#x2c6;" horiz-adv-x="294" 
d="M147 612l-134 -90l-13 17q84 71 137 168h20q53 -97 137 -168l-13 -17z" />
    <glyph glyph-name="caron" unicode="&#x2c7;" horiz-adv-x="294" 
d="M13 705l134 -90l134 90l13 -17q-84 -71 -137 -168h-20q-53 97 -137 168z" />
    <glyph glyph-name="breve" unicode="&#x2d8;" horiz-adv-x="509" 
d="M284 614q70 0 107 69l18 -11q-21 -43 -58 -76t-81 -48q-49 0 -103 33t-73 77l1 9q43 2 71 16h4q14 -33 45 -51t69 -18z" />
    <glyph glyph-name="dotaccent" unicode="&#x2d9;" horiz-adv-x="308" 
d="M208 620q-7 -13 -24.5 -33t-29.5 -28q-12 8 -29.5 28t-24.5 33q6 12 23 27.5t31 22.5q13 -8 30 -23.5t24 -26.5z" />
    <glyph glyph-name="ring" unicode="&#x2da;" horiz-adv-x="193" 
d="M28 544q-28 19 -28 56.5t29.5 67t72.5 38.5q91 0 91 -74q0 -39 -26.5 -66.5t-69.5 -40.5q-41 0 -69 19zM130.5 655q-15.5 16 -39 16t-33.5 -9q-11 -16 -11 -42.5t16 -43t38.5 -16.5t33.5 9q11 17 11 43.5t-15.5 42.5z" />
    <glyph glyph-name="ogonek" unicode="&#x2db;" horiz-adv-x="369" 
d="M166 -102q0 -62 66 -62q22 0 37 4v-9q-31 -21 -49 -46q-60 0 -90 23t-30 79q14 36 52.5 71.5t78.5 53.5l7 -12q-72 -46 -72 -102z" />
    <glyph glyph-name="tilde" unicode="&#x2dc;" horiz-adv-x="330" 
d="M128 663q59 -31 111.5 -31t72.5 24l18 -11q-56 -61 -104 -82q-21 0 -72.5 15.5t-72.5 15.5q-43 0 -63 -24l-18 11q56 61 128 82z" />
    <glyph glyph-name="hungarumlaut" unicode="&#x2dd;" horiz-adv-x="541" 
d="M388 694q8 1 16.5 1t16.5 -2q18 -22 25 -49l-179 -119l-11 18q37 25 72.5 67t59.5 84zM227 694q8 1 16.5 1t16.5 -2q18 -22 25 -49l-179 -119l-11 18q37 25 72.5 67t59.5 84z" />
    <glyph glyph-name="dotaccentcmb" unicode="&#x307;" horiz-adv-x="108" 
d="M108 620q-7 -13 -24.5 -33t-29.5 -28q-12 8 -29.5 28t-24.5 33q6 12 23 27.5t31 22.5q13 -8 30 -23.5t24 -26.5z" />
    <glyph glyph-name="pi" unicode="&#x3c0;" horiz-adv-x="496" 
d="M480 558q-11 -39 -11 -71t7 -61l-12 -8l-76 15q-25 -95 -25 -261q0 -80 21 -96q10 -9 27 -9q32 0 58 43l13 -7q-32 -82 -93 -118q-106 0 -106 132q0 73 19.5 162t50.5 160q-119 20 -181 26q-11 -99 -11 -218q0 -208 28 -329l-3 -3q-36 -5 -83 -20l-9 7q7 46 12 164t5 181
v83q0 100 -6 139q-10 1 -24 1q-71 0 -111 -54l-18 11q22 41 69.5 76.5t91.5 40.5q186 -28 323 -37q10 22 23 58z" />
    <glyph glyph-name="endash" unicode="&#x2013;" horiz-adv-x="410" 
d="M3 296q124 -9 246.5 -9t161.5 3l6 -6l-8 -39h-406l-8 7z" />
    <glyph glyph-name="emdash" unicode="&#x2014;" horiz-adv-x="615" 
d="M5 296q170 -9 369.5 -9t238.5 3l6 -6l-8 -39h-606l-8 7z" />
    <glyph glyph-name="quoteleft" unicode="&#x2018;" horiz-adv-x="213" 
d="M53 481q0 50 34 102t80 83l10 -10q-21 -25 -38 -61.5t-18 -63.5q26 -24 40 -50q-6 -12 -23 -27.5t-31 -22.5q-13 8 -30 23.5t-24 26.5z" />
    <glyph glyph-name="quoteright" unicode="&#x2019;" horiz-adv-x="213" 
d="M160 616q0 -50 -34 -102t-80 -83l-10 10q21 25 38 61.5t18 63.5q-26 24 -40 50q6 12 23 27.5t31 22.5q13 -8 30 -23.5t24 -26.5z" />
    <glyph glyph-name="quotesinglbase" unicode="&#x201a;" horiz-adv-x="208" 
d="M160 46q0 -50 -32.5 -97t-81.5 -75l-10 11q51 49 56 111q-26 24 -40 50q6 12 23 27.5t31 22.5q13 -8 30 -23.5t24 -26.5z" />
    <glyph glyph-name="quotedblleft" unicode="&#x201c;" horiz-adv-x="366" 
d="M53 481q0 50 34 102t80 83l10 -10q-21 -25 -38 -61.5t-18 -63.5q26 -24 40 -50q-6 -12 -23 -27.5t-31 -22.5q-13 8 -30 23.5t-24 26.5zM206 481q0 50 34 102t80 83l10 -10q-21 -25 -38 -61.5t-18 -63.5q26 -24 40 -50q-6 -12 -23 -27.5t-31 -22.5q-13 8 -30 23.5
t-24 26.5z" />
    <glyph glyph-name="quotedblright" unicode="&#x201d;" horiz-adv-x="366" 
d="M313 616q0 -50 -34 -102t-80 -83l-10 10q21 25 38 61.5t18 63.5q-26 24 -40 50q6 12 23 27.5t31 22.5q13 -8 30 -23.5t24 -26.5zM160 616q0 -50 -34 -102t-80 -83l-10 10q21 25 38 61.5t18 63.5q-26 24 -40 50q6 12 23 27.5t31 22.5q13 -8 30 -23.5t24 -26.5z" />
    <glyph glyph-name="quotedblbase" unicode="&#x201e;" horiz-adv-x="361" 
d="M160 46q0 -50 -32.5 -97t-81.5 -75l-10 11q51 49 56 111q-26 24 -40 50q6 12 23 27.5t31 22.5q13 -8 30 -23.5t24 -26.5zM313 46q0 -50 -32.5 -97t-81.5 -75l-10 11q51 49 56 111q-26 24 -40 50q6 12 23 27.5t31 22.5q13 -8 30 -23.5t24 -26.5z" />
    <glyph glyph-name="dagger" unicode="&#x2020;" horiz-adv-x="378" 
d="M328 436l8 -33l-3 -3q-51 33 -131 45q2 -71 51 -129v-4q-48 -59 -51 -229l-3 -198q-5 -1 -10 -1l-10 1l-3 198q-3 170 -51 229v4q49 60 51 129q-80 -12 -131 -45l-3 3l8 33q-46 17 -49 22q5 10 49 22l-8 33l3 3q49 -33 130 -45q-7 94 -44 151l3 3l33 -8q13 44 22 49
q9 -5 22 -49l33 8l3 -3q-37 -57 -44 -151q79 12 130 45l3 -3l-8 -33q44 -12 49 -22q-3 -5 -49 -22z" />
    <glyph glyph-name="daggerdbl" unicode="&#x2021;" horiz-adv-x="378" 
d="M328 436l8 -33l-3 -3q-51 33 -131 45q1 -57 12 -90t39 -58v-4q-10 -2 -28.5 -8.5t-19.5 -9.5q1 -3 19 -9.5t29 -8.5v-4q-28 -25 -39 -58.5t-12 -90.5q77 10 131 45l3 -3l-8 -33q46 -17 49 -22q-5 -10 -49 -22l8 -33l-3 -3q-56 34 -130 44q7 -93 44 -150l-3 -3l-33 8
q-13 -44 -22 -49q-9 5 -22 49l-33 -8l-3 3q37 57 44 150q-77 -10 -130 -44l-3 3l8 33q-44 12 -49 22q3 5 49 22l-8 33l3 3q54 -35 131 -45q-1 57 -12 90t-39 59v4q11 2 29 8.5t19 9.5q-1 3 -19.5 9.5t-28.5 8.5v4q28 25 39 58t12 90q-80 -12 -131 -45l-3 3l8 33
q-46 17 -49 22q5 10 49 22l-8 33l3 3q49 -33 130 -45q-7 94 -44 151l3 3l33 -8q13 44 22 49q9 -5 22 -49l33 8l3 -3q-37 -57 -44 -151q79 12 130 45l3 -3l-8 -33q44 -12 49 -22q-3 -5 -49 -22z" />
    <glyph glyph-name="bullet" unicode="&#x2022;" horiz-adv-x="349" 
d="M297 288v-14q-77 -64 -112 -133h-20q-36 71 -113 132v14q16 12 38 31t26 23.5t12.5 13.5t13.5 16q9 12 23 36h20l12 -20t11 -16.5t13.5 -15.5t12.5 -13.5t15 -14t14 -12t17 -13.5t17 -14z" />
    <glyph glyph-name="perthousand" unicode="&#x2030;" horiz-adv-x="1063" 
d="M802 281.5q44 46.5 88.5 46.5t84.5 -42.5t54 -119.5q-14 -88 -57 -134.5t-87.5 -46.5t-85.5 42.5t-55 119.5q14 88 58 134.5zM959 157q0 46 -19 87.5t-52 53.5q-32 -12 -52 -54t-20 -87t20 -87t52 -54q33 12 52 53.5t19 87.5zM178 570q22 0 114 -15t158 -15t89 38l6 10
q38 2 65 10l3 -3q-68 -97 -145 -217l-305 -478h-5q-26 12 -39 32q101 137 122 170l175 274q48 72 94 151l-4 1q-24 -25 -76 -25t-170 36l-3 -3q47 -44 62 -128q-14 -88 -57 -134.5t-87.5 -46.5t-85.5 42.5t-55 119.5q14 88 58 134.5t86 46.5zM483 281.5q44 46.5 88.5 46.5
t84.5 -42.5t54 -119.5q-14 -88 -57 -134.5t-87.5 -46.5t-85.5 42.5t-55 119.5q14 88 58 134.5zM249 399q0 46 -19 87.5t-52 53.5q-32 -12 -52 -54t-20 -87t20 -87t52 -54q33 12 52 53.5t19 87.5zM640 157q0 46 -19 87.5t-52 53.5q-32 -12 -52 -54t-20 -87t20 -87t52 -54
q33 12 52 53.5t19 87.5z" />
    <glyph glyph-name="guilsinglleft" unicode="&#x2039;" horiz-adv-x="247" 
d="M111 283l108 -158l-20 -14q-93 107 -178 158v20q95 52 178 150l19 -13z" />
    <glyph glyph-name="guilsinglright" unicode="&#x203a;" horiz-adv-x="247" 
d="M28 125l108 158l-105 143l17 13q83 -98 178 -150v-20q-85 -51 -178 -158z" />
    <glyph glyph-name="fraction" unicode="&#x2044;" horiz-adv-x="550" 
d="M24 -42l-5 1q-17 14 -29 40q93 118 125 161l254 351q59 82 132 193q22 -5 53 -7l4 -3q-32 -40 -136 -184z" />
    <glyph glyph-name="zerosuperior" unicode="&#x2070;" horiz-adv-x="416" 
d="M106 690.5q53 55.5 106.5 55.5t100.5 -50.5t66 -142.5q-18 -104 -69 -159t-105 -55t-102.5 50.5t-65.5 141.5q16 104 69 159.5zM145 651.5q-24 -52.5 -24 -109t24 -109t64 -65.5q40 13 63.5 65.5t23.5 109.5t-23.5 109t-63.5 66q-40 -14 -64 -66.5z" />
    <glyph glyph-name="foursuperior" unicode="&#x2074;" horiz-adv-x="363" 
d="M262 602v-107q55 0 66 32l14 -4q-5 -25 -5 -44.5v-28.5l-4 -2q-24 2 -70 2q0 -45 5 -70q13 -7 45 -16l-3 -18q-40 6 -89 6t-82 -8l-2 17q27 12 54 17q5 29 5 72h-189l-4 12q137 160 191 266q36 4 71 17l6 -2q-9 -48 -9 -141zM193 670q-33 -70 -105 -168q44 -6 108 -6
l2 174h-5z" />
    <glyph glyph-name="fivesuperior" unicode="&#x2075;" horiz-adv-x="339" 
d="M90 460q0 -27 1 -42q48 -27 84 -27t46 12q9 24 9 61t-23 64t-60 27t-59 -12l-8 6l6 122q1 20 1 38.5t-2 33.5l19 3q3 -9 7 -18q98 4 155 17l8 -6q-7 -20 -7 -44t5 -52l-17 -5q-6 22 -16 41q-52 -5 -97 -5l-19 7l-3 -3l-9 -99q21 17 46 25q69 0 106.5 -36.5t37.5 -105.5
q-13 -37 -51 -73t-78 -50q-71 0 -130 26v12q23 32 30 83h18z" />
    <glyph glyph-name="sixsuperior" unicode="&#x2076;" horiz-adv-x="335" 
d="M120 495q0 -108 69 -108q30 0 45 14q10 20 10 57t-21 64t-63 27q-10 0 -21 -3v8q21 17 36 34q71 0 105 -32t34 -101q-16 -34 -59 -69.5t-81 -46.5q-61 0 -93.5 35.5t-32.5 107.5t57.5 151t136.5 113l10 -15q-62 -42 -97 -103.5t-35 -132.5z" />
    <glyph glyph-name="sevensuperior" unicode="&#x2077;" horiz-adv-x="287" 
d="M203 674h-44.5t-77.5 5q-10 -17 -16 -42l-17 6q5 27 5 50.5t-7 45.5l9 6q90 -18 198 -18q7 8 13 19l17 -9q-37 -60 -70 -139q-53 -119 -54 -220q18 -3 50 -14l-2 -19q-34 7 -72.5 7t-76.5 -10l-4 19q19 6 32 13q8 101 94 239l41 66l-2 2q-8 -4 -16 -7z" />
    <glyph glyph-name="eightsuperior" unicode="&#x2078;" horiz-adv-x="367" 
d="M269.5 729q29.5 -17 29.5 -45.5t-23.5 -57.5t-50.5 -49q41 -24 64.5 -49.5t23.5 -64.5q-16 -39 -55 -74.5t-81 -48.5q-48 0 -85.5 28t-37.5 71q0 29 25 62.5t55 53.5q-65 45 -65 102q18 26 58.5 54t70.5 35q42 0 71.5 -17zM232 402q10 21 10 42t-16 41t-31 31t-41 27
q-38 -30 -38 -87q0 -28 23.5 -48.5t52 -20.5t40.5 15zM140 665q0 -40 63 -76q34 34 34 72t-54 38q-26 0 -39 -13q-4 -10 -4 -21z" />
    <glyph glyph-name="ninesuperior" unicode="&#x2079;" horiz-adv-x="335" 
d="M215 590q0 108 -69 108q-30 0 -45 -14q-10 -20 -10 -57t21 -64t63 -27q11 0 21 3v-8q-21 -17 -36 -34q-71 0 -105 32t-34 101q16 34 59 69.5t81 46.5q61 0 93.5 -35.5t32.5 -107.5t-57.5 -151t-136.5 -113l-10 15q62 42 97 103.5t35 132.5z" />
    <glyph glyph-name="Euro" unicode="&#x20ac;" horiz-adv-x="456" 
d="M187 96.5q26 -39.5 86.5 -39.5t129.5 63l10 -10q-60 -87 -156 -126q-91 0 -135.5 60t-46.5 160l-43 -5l-3 4q6 20 7 32l39 1q1 16 7 48q-29 -1 -50 -5l-3 4q6 20 7 32l53 2q23 80 75.5 139.5t126.5 81.5q71 0 131 -16v-14q-37 -48 -43 -113h-22q0 40 -3 64q-42 14 -86 14
t-75 -27q-26 -56 -36 -127l128 5q64 3 84 5q4 -20 9 -31v-5l-122 -2l-102 -3v-17v-16q-1 -16 0 -16l131 5q63 3 84 5q4 -20 9 -31v-5l-122 -2l-100 -3q5 -72 31 -111.5z" />
    <glyph glyph-name="trademark" unicode="&#x2122;" horiz-adv-x="718" 
d="M232 617q-21 10 -40.5 10t-27.5 -3q-4 -32 -4 -123.5t7 -154.5q21 -3 48 -9l-2 -16q-38 5 -78.5 5t-72.5 -4l-2 14q17 6 40 11q6 42 6 127v30q0 86 -5 120q-6 3 -25.5 3t-41.5 -8q-3 -11 -8 -53h-15q-2 52 -18 79l4 12q48 -6 141 -6t141 6l3 -12q-28 -25 -31 -79h-14
q-5 20 -5 51zM437 360q0 71 -53 255h-3l-14 -107q-9 -81 -9 -122t17 -52l-3 -11q-33 3 -61 3t-60 -5l-2 15q14 5 49 11l57 284q-23 3 -54 10l1 15q43 -5 82.5 -5t63.5 3l1 -10q-13 -3 -13 -14q0 -39 32 -158l13 -48l3 1q2 16 55 203q0 11 -17 16l1 10q24 -3 70 -3t76 5
l3 -15q-15 -5 -40 -10q-3 -13 -3 -42t8.5 -121t15.5 -123q25 -3 47 -9l-2 -15q-42 5 -81 5t-68 -4l-2 14q11 4 40 11q0 134 -11 266l-4 1q-60 -189 -66 -236q-48 -23 -62 -38l-8 4q1 6 1 16z" />
    <glyph glyph-name="Omega" unicode="&#x2126;" horiz-adv-x="701" 
d="M625 384q0 -82 -41 -169.5t-105 -143.5v-5h8q78 0 118 18q8 37 12 83h25q4 -106 33 -158l-6 -20q-87 11 -161.5 11t-95.5 -1l-1 42q62 47 91.5 128.5t29.5 173.5q0 105 -40 183q-20 39 -56 61.5t-80.5 22.5t-79.5 -16q-51 -42 -75 -109.5t-24 -150.5t29.5 -164.5
t91.5 -128.5l-1 -42q-21 1 -99.5 1t-165.5 -11l-6 20q29 52 33 158h25q4 -46 12 -83q40 -18 126 -18h7v5q-66 54 -105.5 132.5t-39.5 160.5q0 126 89.5 209t213.5 93q116 -10 177 -85t61 -197z" />
    <glyph glyph-name="partialdiff" unicode="&#x2202;" horiz-adv-x="471" 
d="M401.5 463q27.5 -93 27.5 -201t-61.5 -185.5t-173.5 -91.5q-71 12 -110 65.5t-39 137t57.5 147.5t149.5 84q48 -11 81 -65h5q-50 312 -195 312q-33 0 -52 -13q-5 -17 -5 -43t10 -37l-1 -7q-25 -15 -50 -42q-12 1 -19.5 10t-7.5 21q0 60 46.5 101.5t117.5 54.5
q77 -14 134.5 -84.5t85 -163.5zM349 231q0 33 -7 60q-43 69 -119 85q-47 0 -72 -45t-25 -119.5t33 -123t94 -48.5q31 0 53 14q43 60 43 177z" />
    <glyph glyph-name="Delta" unicode="&#x2206;" horiz-adv-x="550" 
d="M552 46l-9 -46h-558l-8 7q171 335 273 644l47 15q97 -296 255 -620zM59 64q79 -11 232.5 -11t175.5 6l-201 491l-5 -1z" />
    <glyph glyph-name="product" unicode="&#x220f;" horiz-adv-x="689" 
d="M25 666q138 -15 327 -15t327 15l3 -24q-40 -13 -110 -26q-13 -74 -13 -301v-59q0 -227 13 -301q53 -5 110 -19l-3 -24q-64 8 -142.5 8t-147.5 -6l-4 25q28 9 86 19q11 81 11 323.5t-10 310.5q-37 22 -129.5 22t-125.5 -5q-10 -68 -10 -313t13 -341q48 -5 100 -17l-3 -24
q-69 6 -153 6t-137 -8l-4 25q45 14 96 21q11 83 11 298v59q0 150 -13 298q-15 3 -96 28z" />
    <glyph glyph-name="summation" unicode="&#x2211;" horiz-adv-x="539" 
d="M325 0q58 0 83 19q12 42 19 112h25q4 -137 59 -223l-19 -15l-20 18q-148 23 -368 23q-82 0 -128 -27l-11 10l251 374l-163 255q-43 66 -89 104l13 14q53 -24 130 -24t224 13t170 13l3 -22q-31 -8 -47 -17q-9 -36 -9 -69t2 -71l-24 -4q-14 34 -25 91q-44 19 -107 19
l-159 1l-4 -3l151 -263v-4l-185 -320l3 -4h225z" />
    <glyph glyph-name="minus" unicode="&#x2212;" horiz-adv-x="550" 
d="M62 280q170 -9 279.5 -9t148.5 3l6 -6l-9 -46h-426l-8 7z" />
    <glyph glyph-name="radical" unicode="&#x221a;" horiz-adv-x="550" 
d="M144 485h7q10 -36 57.5 -166.5t97.5 -251.5l4 -1l83 414q29 143 38 216q32 4 57 14l4 -2q-21 -70 -51 -218l-98 -486l-67 -20l-175 431q-53 0 -100 -13l-6 21q96 26 149 62z" />
    <glyph glyph-name="infinity" unicode="&#x221e;" horiz-adv-x="550" 
d="M127 127q-45 0 -67.5 32t-22.5 83q12 41 47.5 85.5t70.5 59.5q68 0 130 -89q77 89 137 89q45 0 67.5 -32t22.5 -83q-12 -41 -47.5 -85.5t-70.5 -59.5q-41 0 -71 23t-59 66q-77 -89 -137 -89zM351 212.5q23 -22.5 47.5 -22.5t36.5 6q21 17 21 57q0 78 -58 78
q-52 0 -98 -51q28 -45 51 -67.5zM198 301.5q-23 22.5 -47.5 22.5t-36.5 -6q-21 -17 -21 -57q0 -78 58 -78q52 0 98 51q-28 45 -51 67.5z" />
    <glyph glyph-name="integral" unicode="&#x222b;" horiz-adv-x="365" 
d="M341 711q12 0 21 -7.5t10 -19.5q-27 -25 -42 -50l-7 -1q-11 10 -41 10t-44 -7q-28 -70 -28 -150v-16l19 -444q-11 -88 -70.5 -164.5t-134.5 -76.5q-12 0 -21 7.5t-10 19.5q27 25 42 50l7 1q11 -10 41 -10t44 7q28 69 28 154v11l-19 445q11 88 70.5 164.5t134.5 76.5z" />
    <glyph glyph-name="approxequal" unicode="&#x2248;" horiz-adv-x="590" 
d="M404 173q69 0 118 58l18 -11q-20 -38 -64 -71.5t-87 -45.5q-33 0 -110 33t-110 33q-66 0 -101 -54l-18 11q22 41 69.5 76.5t91.5 40.5q43 -29 96 -49.5t97 -20.5zM404 353q69 0 118 58l18 -11q-20 -38 -64 -71.5t-87 -45.5q-33 0 -110 33t-110 33q-66 0 -101 -54l-18 11
q22 41 69.5 76.5t91.5 40.5q43 -29 96 -49.5t97 -20.5z" />
    <glyph glyph-name="notequal" unicode="&#x2260;" horiz-adv-x="550" 
d="M405 348q46 0 85 3l6 -6l-9 -46h-136l-77 -94q44 -1 110.5 -1t105.5 3l6 -6l-9 -46h-254l-96 -118l-11 -1l-31 37q50 54 73 82h-107l-8 7l9 51q49 -3 149 -7l75 93h-225l-8 7l9 51q128 -7 262 -9q19 25 78 103l8 2l41 -32l-60 -73h14z" />
    <glyph glyph-name="lessequal" unicode="&#x2264;" horiz-adv-x="550" 
d="M487 80q-213 97 -429 153l15 65q62 16 188.5 60.5t225.5 93.5l21 -49l-5 -10l-362 -126v-4l362 -127l5 -10zM59 58q170 -9 279.5 -9t148.5 3l6 -6l-9 -46h-426l-8 7z" />
    <glyph glyph-name="greaterequal" unicode="&#x2265;" horiz-adv-x="550" 
d="M500 233q-216 -56 -429 -153l-21 46l5 10l362 127v4l-362 126l-5 10l21 49q99 -49 225.5 -93.5t188.5 -60.5zM71 52q39 -3 149 -3t279 9l9 -51l-8 -7h-426l-9 46z" />
    <glyph glyph-name="lozenge" unicode="&#x25ca;" horiz-adv-x="550" 
d="M299 -106l-44 -9q-33 88 -91 201t-106 188h1l-1 1q54 85 112 201t81 182l48 9q22 -73 84 -194t109 -197q-47 -74 -104.5 -186.5t-88.5 -195.5zM272 585l-148 -309l149 -315l5 1l148 312l-149 312z" />
    <glyph glyph-name="CR" horiz-adv-x="180" 
 />
    <glyph glyph-name="uacute.001" horiz-adv-x="542" 
d="M157 179q0 -112 46 -112q39 0 92 49t71 91q0 145 -11 233q-27 6 -63 19l2 19q56 -8 106 -8t101 6l3 -19q-30 -13 -59 -20q-9 -68 -9 -157v-84q0 -92 7 -163q24 -8 54 -8v-21q-64 -3 -135 -19l-7 2q11 69 11 158l-4 1q-34 -47 -88.5 -96.5t-98.5 -64.5q-61 0 -79 55
q-12 39 -12 96v20l5 281q-24 8 -54 8v21q64 3 135 19l7 -4q-16 -97 -19 -280q-1 -10 -1 -22zM383 694q10 1 21.5 1t21.5 -2q7 -8 15.5 -28.5t9.5 -30.5l-189 -109l-11 18q37 25 72.5 67t59.5 84z" />
    <glyph glyph-name="unoalternativo" horiz-adv-x="450" 
d="M194 190v84q0 53 -3 113h-76l-2 2q0 13 3 19q78 18 134 74q12 3 28 3l4 -2q-14 -82 -14 -209v-84q0 -104 7 -157q29 -7 59 -20l-3 -19q-51 6 -101 6t-106 -8l-2 19q35 13 63 19q9 74 9 160z" />
    <glyph glyph-name="Ealternate" horiz-adv-x="513" 
d="M397 566q-48 28 -115.5 28t-108.5 -34q-1 -14 -1 -27q0 -160 171 -160l-5 -37h-12q-79 0 -130.5 -31.5t-51.5 -101.5t48 -108.5t113 -38.5t102 24q7 14 7 44t-10 41l1 7q25 15 50 42q12 -1 19.5 -10t7.5 -21q0 -61 -57.5 -118.5t-125.5 -79.5q-107 0 -178 52t-71 148
q0 69 58 115t132 46v4q-68 4 -113.5 38t-45.5 94q36 64 95.5 115t127.5 69q72 0 141 -19q21 10 42 30l19 -13q-74 -81 -81 -191h-25q0 48 -3 93z" />
    <glyph glyph-name="aalternate" horiz-adv-x="473" 
d="M300 399q-42 24 -84.5 24t-64.5 -14q-7 -12 -7 -32t10 -29l-1 -7q-26 -16 -48 -40q-12 1 -19 9.5t-7 19.5q0 46 53 92.5t107 62.5q57 0 116 -21q14 21 23 53l21 -6q-22 -90 -22 -318q0 -102 7 -160q24 -8 54 -8v-21q-64 -3 -135 -19l-7 4q11 37 11 100l-4 1
q-47 -80 -133 -105q-59 0 -86 30t-27 91.5t26 101.5q56 17 223 46q-1 110 -6 145zM192 52q38 0 70.5 28t44.5 67v81q-103 -22 -161 -45q-8 -19 -8 -48q0 -83 54 -83z" />
    <glyph glyph-name="zero.tabonum" horiz-adv-x="450" 
d="M110.5 417q63.5 68 128.5 68t122.5 -62t79.5 -175q-21 -128 -83.5 -195.5t-127.5 -67.5t-123.5 62t-80.5 174q21 128 84.5 196zM125 235q0 -71 30 -136t80 -82q50 17 80 82t30 136t-30 136t-80 82q-50 -17 -80 -82t-30 -136z" />
    <glyph glyph-name="one.tabonum" horiz-adv-x="450" 
d="M331 -6q-51 6 -110 6t-112 -8l-2 19q40 13 78 22q9 74 9 157v84q0 101 -7 159q-47 13 -78 29l3 20q57 -12 118 -12t102 5l4 -20q-29 -8 -59 -21q-9 -67 -9 -160v-84q0 -102 7 -154q32 -9 59 -23z" />
    <glyph glyph-name="two.tabonum" horiz-adv-x="450" 
d="M168 85q14 1 55 1t132 -12q10 22 23 58l21 -7q-11 -39 -11 -71t7 -61l-12 -8q-159 36 -296 36q-13 -13 -31 -36l-19 10q33 66 143 177q39 38 69 87t30 88t-24 57.5t-61 18.5t-65 -14q-7 -12 -7 -32t10 -29l-1 -7q-26 -16 -48 -40q-12 1 -19 9.5t-7 19.5q0 46 53.5 92.5
t108.5 62.5q81 0 118.5 -39t37.5 -120q-95 -126 -236 -247l2 -4q15 7 27 10z" />
    <glyph glyph-name="three.tabonum" horiz-adv-x="450" 
d="M83 49q0 -39 2 -61q24 -17 63.5 -29t74.5 -12t55 24q15 38 15 85q0 71 -37 111.5t-105 40.5l-4 6l135 183l-2 4q-15 -7 -27 -10q-58 0 -147 7q-9 -22 -20 -61l-21 7q7 40 7 69.5t-10 62.5l11 9q120 -27 280 -27q25 16 36 27l17 -15q-38 -35 -177 -203q72 -12 112 -64.5
t40 -136.5q-20 -55 -73.5 -107.5t-108.5 -73.5q-41 0 -93 11t-88 28v13q38 43 43 112h22z" />
    <glyph glyph-name="four.tabonum" horiz-adv-x="450" 
d="M336 274q0 -130 1 -165q38 0 53.5 7.5t27.5 36.5l16 -3q-9 -45 -9 -92l-4 -2q-35 3 -83 3q0 -67 8 -126q21 -11 51 -18l-4 -20q-57 5 -103.5 5t-108.5 -12l-3 20q34 15 79 26q7 57 7 125h-253l-4 14q161 187 261 387q42 10 73 25l8 -4q-13 -77 -13 -207zM260 379
q-62 -136 -148 -259q62 -6 152 -8l3 267h-7z" />
    <glyph glyph-name="five.tabonum" horiz-adv-x="450" 
d="M108 49q0 -39 2 -61q24 -17 63.5 -29t74.5 -12t55 24q15 38 15 85q0 70 -36.5 111t-104.5 41q-39 0 -70 -17l-12 9l10 175q2 27 2 55t-4 52l21 4q5 -18 9 -27q128 4 229 26l11 -9q-12 -35 -12 -69t5 -64l-22 -5q-9 37 -18 60q-70 -7 -153 -7l-23 10l-4 -5l-11 -155
q45 25 65 30q98 -3 152 -56t54 -149q-20 -55 -73.5 -107.5t-108.5 -73.5q-41 0 -93 11t-88 28v13q38 43 43 112h22z" />
    <glyph glyph-name="six.tabonum" horiz-adv-x="450" 
d="M142 215q0 -168 106 -168q49 0 69 24q15 38 15 75q0 152 -131 152q-15 0 -30 -3v7q28 20 57 48q192 0 192 -194q-22 -51 -81 -103.5t-112 -67.5q-174 0 -174 197q0 124 78.5 239t194.5 164l13 -18q-90 -59 -143.5 -152t-53.5 -200z" />
    <glyph glyph-name="seven.tabonum" horiz-adv-x="450" 
d="M290 -106q-58 6 -108.5 6t-103.5 -11l-5 20q32 10 50 21q13 144 140 358l65 110l-3 4q-14 -7 -26 -11q-21 -1 -65 -1t-117 7q-9 -23 -18 -60l-22 5q5 30 5 63.5t-12 68.5l11 9q125 -26 287 -26q8 9 17 24l20 -10q-192 -329 -193 -535q48 -9 80 -22z" />
    <glyph glyph-name="eight.tabonum" horiz-adv-x="450" 
d="M384 485q0 -34 -35 -77t-74 -71q40 -25 64 -44t45 -53t21 -74q-22 -57 -76.5 -109.5t-112.5 -71.5q-66 0 -118.5 41.5t-52.5 103.5q0 43 36 92t81 80q-95 69 -95 152q23 37 79.5 78.5t98.5 52.5q58 0 98.5 -25.5t40.5 -74.5zM302 71q15 35 15 62.5t-6.5 41.5t-13.5 24
t-24 24.5t-26.5 21t-33 22t-32.5 21.5q-62 -48 -62 -132q0 -45 35.5 -77t81.5 -32t66 24zM161 500q-7 -12 -7 -40t25 -53.5t75 -56.5q56 51 56 109q0 64 -86 64q-42 0 -63 -23z" />
    <glyph glyph-name="nine.tabonum" horiz-adv-x="450" 
d="M323 255q0 168 -106 168q-49 0 -69 -24q-15 -38 -15 -75q0 -152 131 -152q15 0 30 3v-7q-28 -20 -57 -48q-192 0 -192 194q22 51 81 103.5t112 67.5q174 0 174 -197q0 -124 -78.5 -239t-194.5 -164l-13 18q90 59 143.5 152t53.5 200z" />
    <glyph glyph-name="quotesinglbase.001" horiz-adv-x="213" 
d="M160 46q0 -50 -34 -102t-80 -83l-10 10q21 25 38 61.5t18 63.5q-26 24 -40 50q6 12 23 27.5t31 22.5q13 -8 30 -23.5t24 -26.5z" />
    <glyph glyph-name="ornament" horiz-adv-x="436" 
d="M92 341l23 15q-17 34 -15 40h5.5t34.5 -15l14 23h4q11 -52 49 -101q-10 62 -35 106l2 2l26 -6q13 36 18 39q5 -2 18 -39l26 6l2 -2q-26 -42 -35 -105q39 53 49 100h3l15 -23q28 15 33.5 15h6.5q2 -6 -6 -22l-9 -18l23 -15v-3q-47 -10 -101 -50q63 9 106 36l2 -2
q0 -4 -3 -15l-3 -11q36 -13 39 -18q-2 -5 -39 -18l3 -11q3 -11 3 -15l-2 -2q-46 28 -107 36q54 -40 102 -50v-4l-23 -14q17 -33 15 -40h-5.5t-34.5 15l-15 -23h-3q-10 47 -49 100q9 -63 35 -105l-2 -2l-26 6q-13 -37 -18 -39q-5 3 -18 39l-26 -6l-2 2q25 42 35 105
q-38 -50 -49 -100h-4l-14 23q-30 -15 -38 -15t13 40l-23 14v4q50 11 101 50q-62 -8 -106 -36l-2 2q0 4 3 15l3 11q-37 13 -39 18q3 5 39 18l-3 11q-3 11 -3 15l2 2q41 -27 106 -36q-57 40 -101 50v3z" />
    <glyph glyph-name="paragraph.alt" horiz-adv-x="512" 
d="M201 658l290 -9v-25q-50 0 -98 -16q-11 -94 -11 -283v-199q-11 -87 -71.5 -164t-136.5 -77q-12 0 -21 7.5t-10 19.5q27 25 42 50l7 1q11 -10 41 -10t44 7q28 69 28 154v11v200q0 198 -9 292q-11 3 -24.5 3t-23.5 -3q-8 -57 -8 -162.5t22 -144.5l-2 -14q-7 -1 -22 -1
q-97 0 -170 55t-73 144q0 164 206 164z" />
    <glyph glyph-name="a_e.alternate" horiz-adv-x="661" 
d="M473 57q63 0 123 53l11 -10q-57 -78 -146 -115q-114 0 -154 105v-1l-4 1q-47 -80 -133 -105q-59 0 -86 30t-27 91.5t26 101.5q55 17 212 44q8 69 8 99.5t-3 47.5q-43 24 -85 24t-64 -14q-7 -12 -7 -32t10 -29l-1 -7q-26 -16 -48 -40q-12 1 -19 9.5t-7 19.5q0 46 53 92.5
t107 62.5q86 0 153 -48h4q39 33 91 48q67 0 94 -26.5t27 -93.5q0 -38 -10 -65q21 -8 49 -8l-1 -21h-13q-112 0 -268 -33q0 -133 51 -166q23 -15 57 -15zM192 52q32 0 60.5 20.5t44.5 51.5q-6 30 -6 59.5t1 41.5q-101 -24 -146 -42q-8 -19 -8 -48q0 -83 54 -83zM515.5 397
q-12.5 26 -53 26t-68.5 -24q-27 -56 -29 -135q82 27 163 41q0 66 -12.5 92z" />
    <glyph glyph-name="zero.numr" 
d="M83 610.5q53 55.5 106.5 55.5t100.5 -50.5t66 -142.5q-18 -104 -69 -159t-105 -55t-102.5 50.5t-65.5 141.5q16 104 69 159.5zM122 571.5q-24 -52.5 -24 -109t24 -109t64 -65.5q40 13 63.5 65.5t23.5 109.5t-23.5 109t-63.5 66q-40 -14 -64 -66.5z" />
    <glyph glyph-name="one.numr" 
d="M163 427v67q0 44 -3 91h-60l-2 2q0 11 2 17q72 20 110 60q12 2 26 2l3 -2q-11 -81 -11 -170v-67q0 -81 6 -127q24 -8 45 -17l-3 -17q-40 6 -85 6t-84 -7l-2 17q25 11 50 16q8 69 8 129z" />
    <glyph glyph-name="two.numr" 
d="M141 342q14 1 49.5 1t100.5 -9q10 19 20 47l17 -6q-9 -30 -9 -56t6 -53l-10 -7q-144 30 -242 30q-14 -14 -26 -30l-17 8q18 37 70 91.5t90.5 104.5t38.5 85q0 66 -70 66q-28 0 -51 -11q-5 -12 -5 -27.5t8 -20.5v-6q-12 -7 -40 -33q-23 2 -23 24q0 37 44.5 74.5t89.5 51.5
q66 0 97 -32t31 -98q-76 -99 -190 -198l2 -3q11 5 19 7z" />
    <glyph glyph-name="three.numr" 
d="M96 380q0 -27 1 -42q48 -27 84 -27t46 12q9 23 9 61t-23.5 64.5t-69.5 26.5l-3 4l85 119l-2 3q-11 -5 -19 -7q-45 0 -95 5q-10 -18 -16 -42l-17 6q5 28 5 51t-7 45l9 6q86 -18 203 -18q14 8 23 18l13 -11q-21 -19 -119 -134q104 -19 104 -138q-13 -37 -51 -73t-78 -50
q-71 0 -130 26v12q23 32 30 83h18z" />
    <glyph glyph-name="four.numr" 
d="M262 522v-107q55 0 66 32l14 -4q-5 -25 -5 -44.5v-28.5l-4 -2q-24 2 -70 2q0 -45 5 -70q13 -7 45 -16l-3 -18q-40 6 -89 6t-82 -8l-2 17q27 12 54 17q5 29 5 72h-189l-4 12q137 160 191 266q36 4 71 17l6 -2q-9 -48 -9 -141zM193 590q-33 -70 -105 -168q43 -6 108 -6
l2 174h-5z" />
    <glyph glyph-name="five.numr" 
d="M97 380q0 -27 1 -42q48 -27 84 -27t46 12q9 24 9 61t-23 64t-59.5 27t-59.5 -12l-8 6l6 122q1 20 1 38.5t-2 33.5l19 3q3 -9 7 -18q98 4 155 17l8 -6q-7 -20 -7 -44t5 -52l-17 -5q-6 22 -16 41q-52 -5 -97 -5l-19 7l-3 -3l-9 -99q21 17 46 25q69 0 106.5 -36.5
t37.5 -105.5q-13 -37 -51 -73t-78 -50q-71 0 -130 26v12q23 32 30 83h18z" />
    <glyph glyph-name="six.numr" 
d="M132 415q0 -108 69 -108q30 0 45 14q10 20 10 57t-21 64t-63 27q-10 0 -21 -3v8q21 17 36 34q71 0 105 -32t34 -101q-16 -34 -59 -69.5t-81 -46.5q-61 0 -93.5 35.5t-32.5 107.5t57.5 151t136.5 113l10 -15q-62 -42 -97 -103.5t-35 -132.5z" />
    <glyph glyph-name="seven.numr" 
d="M236 594h-44.5t-77.5 5q-10 -17 -16 -42l-17 6q5 27 5 50.5t-7 45.5l9 6q90 -18 198 -18q7 8 13 19l17 -9q-37 -60 -70 -139q-53 -119 -54 -220q18 -3 50 -14l-2 -19q-34 7 -72.5 7t-76.5 -10l-4 19q19 6 32 13q8 101 94 239l41 66l-2 2q-8 -4 -16 -7z" />
    <glyph glyph-name="eight.numr" 
d="M270.5 649q29.5 -17 29.5 -45.5t-23.5 -57.5t-50.5 -49q41 -24 64.5 -49.5t23.5 -64.5q-16 -39 -55 -74.5t-81 -48.5q-48 0 -85.5 28t-37.5 71q0 29 25 62.5t55 53.5q-65 45 -65 102q18 26 58.5 54t70.5 35q42 0 71.5 -17zM233 322q10 21 10 42t-16 41t-31 31t-41 27
q-38 -30 -38 -87q0 -28 23.5 -48.5t51.5 -20.5t41 15zM141 585q0 -40 63 -76q34 34 34 72t-54 38q-26 0 -39 -13q-4 -10 -4 -21z" />
    <glyph glyph-name="nine.numr" 
d="M238 510q0 108 -69 108q-30 0 -45 -14q-10 -20 -10 -57t21 -64t63 -27q10 0 21 3v-8q-21 -17 -36 -34q-71 0 -105 32t-34 101q16 34 59 69.5t81 46.5q61 0 93.5 -35.5t32.5 -107.5t-57.5 -151t-136.5 -113l-10 15q62 42 97 103.5t35 132.5z" />
    <glyph glyph-name="zero.dnum" 
d="M83 351.5q53 55.5 106.5 55.5t100.5 -50.5t66 -142.5q-18 -104 -69 -159t-105 -55t-102.5 50.5t-65.5 141.5q16 104 69 159.5zM122 312.5q-24 -52.5 -24 -109t24 -109t64 -65.5q40 13 63.5 65.5t23.5 109.5t-23.5 109t-63.5 66q-40 -14 -64 -66.5z" />
    <glyph glyph-name="one.dnum" 
d="M163 168v67q0 45 -3 91h-60l-2 2q0 11 2 17q72 20 110 60q12 2 26 2l3 -2q-11 -81 -11 -170v-67q0 -81 6 -127q24 -8 45 -17l-3 -17q-40 6 -85 6t-84 -7l-2 17q25 11 50 16q8 69 8 129z" />
    <glyph glyph-name="two.dnum" 
d="M141 83q14 1 49.5 1t100.5 -9q10 19 20 47l17 -6q-9 -30 -9 -56t6 -53l-10 -7q-144 30 -242 30q-14 -14 -26 -30l-17 8q18 37 70 91.5t90.5 104.5t38.5 86q0 65 -70 65q-28 0 -51 -11q-5 -12 -5 -27.5t8 -20.5v-6q-12 -7 -40 -33q-23 2 -23 24q0 37 44.5 74.5t89.5 51.5
q66 0 97 -32t31 -98q-76 -99 -190 -198l2 -3q11 5 19 7z" />
    <glyph glyph-name="three.dnum" 
d="M96 121q0 -27 1 -42q48 -27 84 -27t46 12q9 23 9 61t-23.5 64.5t-69.5 26.5l-3 4l85 119l-2 3q-11 -5 -19 -7q-45 0 -95 5q-10 -18 -16 -42l-17 6q5 28 5 51t-7 45l9 6q86 -18 203 -18q14 8 23 18l13 -11q-21 -19 -119 -134q104 -19 104 -138q-13 -37 -51 -73t-78 -50
q-71 0 -130 26v12q23 32 30 83h18z" />
    <glyph glyph-name="four.dnum" horiz-adv-x="380" 
d="M262 263v-107q55 0 66 32l14 -4q-5 -25 -5 -44.5v-28.5l-4 -2q-24 2 -70 2q0 -45 5 -70q13 -7 45 -16l-3 -18q-40 6 -89 6t-82 -8l-2 17q27 12 54 17q5 29 5 72h-189l-4 12q137 160 191 266q36 4 71 17l6 -2q-9 -48 -9 -141zM193 331q-33 -70 -105 -168q44 -6 108 -6
l2 174h-5z" />
    <glyph glyph-name="five.dnum" 
d="M97 121q0 -27 1 -42q48 -27 84 -27t46 12q9 24 9 61t-23 64t-59.5 27t-59.5 -12l-8 6l6 122q1 20 1 38.5t-2 33.5l19 3q3 -9 7 -18q98 4 155 17l8 -6q-7 -20 -7 -44t5 -52l-17 -5q-6 22 -16 41q-52 -5 -97 -5l-19 7l-3 -3l-9 -99q21 17 46 25q69 0 106.5 -36.5
t37.5 -105.5q-13 -37 -51 -73t-78 -50q-71 0 -130 26v12q23 32 30 83h18z" />
    <glyph glyph-name="six.dnum" 
d="M132 156q0 -108 69 -108q30 0 45 14q10 20 10 57t-21 64t-63 27q-10 0 -21 -3v8q21 17 36 34q71 0 105 -32t34 -101q-16 -34 -59 -69.5t-81 -46.5q-61 0 -93.5 35.5t-32.5 107.5t57.5 151t136.5 113l10 -15q-62 -42 -97 -103.5t-35 -132.5z" />
    <glyph glyph-name="seven.dnum" 
d="M236 335h-44.5t-77.5 5q-10 -16 -16 -42l-17 6q5 27 5 50.5t-7 45.5l9 6q90 -18 198 -18q7 8 13 19l17 -9q-37 -60 -70 -139q-53 -119 -54 -220q18 -3 50 -14l-2 -19q-34 7 -72.5 7t-76.5 -10l-4 19q19 6 32 13q8 101 94 239l41 66l-2 2q-8 -4 -16 -7z" />
    <glyph glyph-name="eight.dnum" 
d="M270.5 389q29.5 -17 29.5 -45.5t-23.5 -57.5t-50.5 -49q41 -24 64.5 -49.5t23.5 -64.5q-16 -39 -55 -74.5t-81 -48.5q-48 0 -85.5 28t-37.5 71q0 29 25 62.5t55 53.5q-65 45 -65 102q18 26 58.5 54t70.5 35q42 0 71.5 -17zM233 62q10 21 10 42t-16 41t-31 31t-41 27
q-38 -30 -38 -87q0 -28 23.5 -48.5t51.5 -20.5t41 15zM141 325q0 -40 63 -76q34 34 34 72t-54 38q-26 0 -39 -13q-4 -10 -4 -21z" />
    <glyph glyph-name="nine.dnum" 
d="M238 251q0 108 -69 108q-30 0 -45 -14q-10 -20 -10 -57t21 -64t63 -27q10 0 21 3v-8q-21 -17 -36 -34q-71 0 -105 32t-34 101q16 34 59 69.5t81 46.5q61 0 93.5 -35.5t32.5 -107.5t-57.5 -151t-136.5 -113l-10 15q62 42 97 103.5t35 132.5z" />
    <glyph glyph-name="ornament.002" horiz-adv-x="377" 
d="M250 559l5 -19l-2 -1q-25 17 -55 23q4 -30 23 -60l-2 -1q-2 0 -18 4q-6 -24 -13 -28q-6 5 -12 28q-16 -4 -19 -4l-1 1q19 33 23 60q-28 -6 -55 -23l-1 1l4 19q-25 7 -27 12q4 6 27 13l-4 18l1 2q25 -17 54 -21q-4 29 -22 58l2 1q2 0 18 -4q6 24 13 28q6 -5 12 -28
q16 4 19 4l1 -1q-19 -33 -23 -60q27 4 55 23l2 -2l-5 -18q24 -6 27 -13q-3 -6 -27 -12zM250 267l5 -19l-2 -1q-25 17 -55 23q4 -30 23 -60l-2 -1q-2 0 -18 4q-6 -24 -13 -28q-6 5 -12 28q-16 -4 -19 -4l-1 1q19 33 23 60q-28 -6 -55 -23l-1 1l4 19q-25 7 -27 12q4 6 27 13
l-4 18l1 2q28 -19 55 -23q-4 30 -23 60l2 1q2 0 18 -4q6 24 13 28q6 -5 12 -28q16 4 19 4l1 -1q-19 -33 -23 -60q27 4 55 23l2 -2l-5 -18q24 -6 27 -13q-3 -6 -27 -12zM250 -33l5 -19l-2 -1q-25 17 -55 23q4 -30 23 -60l-2 -1q-2 0 -18 4q-6 -24 -13 -28q-6 5 -12 28
q-16 -4 -19 -4l-1 1q19 33 23 60q-28 -6 -55 -23l-1 1l4 19q-25 7 -27 12q4 6 27 13l-4 18l1 2q28 -19 55 -23q-4 30 -23 60l2 1q2 0 18 -4q6 24 13 28q6 -5 12 -28q16 4 19 4l1 -1q-19 -33 -23 -60q27 4 55 23l2 -2l-5 -18q24 -6 27 -13q-3 -6 -27 -12z" />
    <glyph glyph-name="ornament.003" horiz-adv-x="359" 
d="M229 618v-5q-31 -25 -45 -54h-8q-16 30 -46 53v6q2 2 10 8t12.5 10t7 6.5t5.5 6.5q4 5 11 17h8q11 -21 45 -48zM229 401v-5q-31 -25 -45 -54h-8q-16 30 -46 53v6q2 2 10 8t12.5 10t7 6.5t5.5 6.5q4 5 11 17h8q11 -21 45 -48zM229 176v-5q-31 -25 -45 -54h-8
q-16 30 -46 53v6q2 2 10 8t12.5 10t7 6.5t5.5 6.5q4 5 11 17h8q11 -21 45 -48zM229 -56v-5q-31 -25 -45 -54h-8q-16 30 -46 53v6q2 2 10 8t12.5 10t7 6.5t5.5 6.5q4 5 11 17h8q11 -21 45 -48z" />
    <glyph glyph-name="ornament.004" horiz-adv-x="426" 
d="M134 350q5 -7 14 -22t15 -22q16 -21 45 -23q-1 19 -10.5 30.5t-30 24.5t-27.5 18q0 22 32.5 45t40.5 37h2q7 -14 39.5 -37t32.5 -45q-6 -4 -27.5 -17.5t-30 -25t-9.5 -30.5q19 2 30 10.5t24 29.5t18 27q22 0 45 -32.5t37 -39.5v-2q-14 -8 -37 -40.5t-45 -32.5
q-5 7 -18 27.5t-24 29.5t-30 10q1 -19 10 -30q9 -13 57 -42q0 -22 -32.5 -45.5t-39.5 -36.5h-2q-7 13 -40 36.5t-33 45.5q6 4 27.5 17t30.5 25t10 31q-20 -1 -31.5 -9.5t-25.5 -31.5t-17 -27q-22 0 -45.5 33t-36.5 40v2q13 7 36.5 39.5t45.5 32.5z" />
    <glyph glyph-name="ornament.005" horiz-adv-x="443" 
d="M123 353h5q45 -52 84 -69l2 2q-21 44 -70 82v5q0 21 10 36t30.5 15t35.5 -27h3q15 27 35.5 27t30 -14.5t9.5 -35.5v-5q-51 -42 -69 -83l2 -2q39 17 84 69h5q20 0 35 -10t15 -30t-28 -35v-3q28 -15 28 -35.5t-15 -30.5t-36 -10h-5q-42 52 -83 70l-2 -2q17 -39 69 -84v-4
q0 -21 -9.5 -35.5t-30 -14.5t-35.5 27h-3q-15 -27 -35.5 -27t-30.5 15t-10 36v4q50 40 70 83l-2 2q-41 -18 -83 -70h-5q-21 0 -36 10t-15 30.5t27 35.5v3q-27 15 -27 35.5t14.5 30t35.5 9.5z" />
    <glyph glyph-name="f_" horiz-adv-x="582" 
d="M485 274v-84q0 -108 7 -160q28 -6 63 -19l-2 -19q-56 8 -106 8t-101 -6l-3 19q30 13 59 20q9 67 9 193t-6 187q-20 11 -94 13l-134 2v-198q0 -134 12 -290q-14 2 -22.5 2h-12.5q-30 -55 -45 -142l-18 1q12 216 12 429v199h-54l-2 2q0 16 3 22q13 5 53 17q10 78 64 145
t128 96q44 0 90 -16v-14q-38 -47 -43 -115h-22q0 39 -2 61q-19 12 -56.5 12t-62.5 -24q-21 -56 -21 -145h146q110 0 167 15l7 -4q-13 -77 -13 -207zM511 694q10 1 21.5 1t21.5 -2q7 -8 15.5 -28.5t9.5 -30.5l-189 -109l-11 18q37 25 72.5 67t59.5 84z" />
    <glyph glyph-name="Lacute.may" horiz-adv-x="456" 
d="M313 797l-206 -75l-8 20q82 36 157 126q22 -2 42 -9q5 -9 10.5 -30.5t4.5 -31.5zM471 -11q-100 11 -228.5 11t-217.5 -10l-4 25q39 13 96 23q11 82 11 258v59q0 175 -11 258q-51 7 -96 21l4 25q53 -8 139.5 -8t160.5 8l3 -24q-60 -14 -110 -19q-13 -88 -13 -294t10 -280
q33 -5 89 -5t96 18q12 37 19 112h25q4 -106 33 -158z" />
    <glyph glyph-name="hungarumlaut.may" horiz-adv-x="541" 
d="M303 807l-191 -85l-8 20q82 36 157 126q8 -1 27 -5q15 -27 15 -56zM472 807l-191 -85l-8 20q82 36 157 126q8 -1 27 -5q15 -27 15 -56z" />
    <glyph glyph-name="dbar" horiz-adv-x="520" 
d="M56 176q0 104 56 190.5t150 118.5q54 0 98 -10q0 64 -1 91h-22q-72 -2 -118 -9l-3 4q6 20 7 32l135 4q-1 27 -5 66q-24 8 -54 8v21q64 3 135 19l7 -5q-9 -49 -12 -106q36 2 51 4q4 -20 9 -31v-5l-62 -1q-3 -50 -3 -191v-183q0 -102 7 -160q24 -8 54 -8v-21
q-64 -3 -135 -19l-7 4q11 69 11 156l-4 1q-35 -50 -83 -97t-91 -64q-55 0 -87.5 61t-32.5 130zM136 221q0 -50 17.5 -102t50.5 -52q35 0 85 50t65 90q0 149 -7 192q-53 24 -102.5 24t-75.5 -24q-33 -76 -33 -178z" />
    <glyph glyph-name="fleuron_001" horiz-adv-x="870" 
d="M301 561l-9 -94q0 -31 18.5 -49.5t38 -18.5t28.5 3.5t15 7t7.5 4.5t6.5 4.5t6.5 5.5t5 5.5t4.5 6.5t3 8q3 6 3 25.5t-15.5 37.5t-44 38.5t-44.5 39.5v7q0 31 14 52.5t42.5 21.5t51.5 -39h6q23 39 51.5 39t42.5 -21.5t14 -52.5v-7q-16 -19 -44.5 -39.5t-44 -38.5
t-15.5 -39t7.5 -33t12.5 -15.5t22 -14.5q18 -6 37.5 -6t36.5 17q20 20 20 51l-9 94q0 7 1 14q34 34 57.5 34t38 -14.5t14.5 -32.5t-4 -34l4 -4q16 4 34 4t32.5 -14.5t14.5 -37.5q0 -24 -34 -58q-7 -1 -14 -1l-94 9q-31 0 -49.5 -18.5t-18.5 -38t6 -37.5q19 -30 30.5 -36
t32.5 -6t39 15.5t38.5 44t39.5 44.5h7q31 0 52.5 -14t21.5 -42.5t-39 -51.5v-6q39 -23 39 -51.5t-21.5 -42.5t-52.5 -14h-7q-19 16 -39.5 44.5t-38.5 44t-39 15.5t-33 -8t-15.5 -12.5t-14.5 -22.5q-6 -17 -6 -36.5t17 -36.5q20 -20 51 -20l94 9q7 0 14 -1q34 -34 34 -57.5
t-14.5 -38t-32.5 -14.5t-34 4l-4 -4q4 -16 4 -34t-14.5 -32.5t-37.5 -14.5q-24 0 -58 34q-1 7 -1 14l9 94q0 39 -31 61q-16 11 -52 3q-11 -2 -17 -6.5t-8 -5.5t-6.5 -4t-6 -5t-5 -5.5t-4.5 -6.5t-3 -8q-3 -6 -3 -25.5t15.5 -37.5t44 -38.5t44.5 -39.5v-7q0 -31 -14 -52.5
t-42.5 -21.5t-51.5 39h-6q-23 -39 -51.5 -39t-42.5 21.5t-14 52.5v7q16 19 44.5 39.5t44 38.5t15.5 44q0 27 -20 41q-5 4 -7 6q-16 11 -27 13l-17 3q-6 1 -9 1t-8.5 -1t-9.5 -2q-8 -4 -22 -18q-16 -16 -16 -47l9 -94q0 -7 -1 -14q-34 -34 -57.5 -34t-38 14.5t-14.5 32.5
t4 34l-4 4q-16 -4 -34 -4t-32.5 14.5t-14.5 37.5q0 24 34 58q7 1 14 1l94 -9q39 0 59 30q9 12 9 20.5t-1 14.5q-5 28 -11.5 37t-10 14t-5.5 7t-6.5 5t-8.5 4q-9 4 -28 4t-37 -15.5t-38.5 -44t-39.5 -44.5h-7q-31 0 -52.5 14t-21.5 42.5t39 51.5v6q-39 23 -39 51.5t21.5 42.5
t52.5 14h7q19 -16 39.5 -44.5t38.5 -44t39 -15.5t33 7.5t14.5 12t9 14.5t8.5 19t2.5 11.5t1 9.5t0 11t-2.5 9q-2 10 -17 25q-17 17 -48 17l-94 -9q-7 0 -14 1q-34 34 -34 57.5t14.5 38t32.5 14.5t34 -4l4 4q-4 16 -4 34t14.5 32.5t37.5 14.5q24 0 58 -34q1 -7 1 -14z
M400 335.5q0 -10.5 2 -17.5l-2 -2q-5 1 -15 1t-28 -2q15 -23 30 -31v-2q-14 -7 -30 -32q15 -2 25.5 -2t17.5 2l2 -2q-1 -5 -1 -15t2 -28q24 18 31 30h2q7 -12 31 -30q2 18 2 28t-1 15l2 2q5 -1 15 -1t28 2q-22 27 -30 31v2q8 4 30 31q-18 2 -28 2t-15 -1l-2 2q1 5 1 15
t-2 28q-25 -19 -31 -30h-2q-5 10 -32 30q-2 -15 -2 -25.5z" />
    <glyph glyph-name="fleuron_003" horiz-adv-x="419" 
d="M218.5 183q-4.5 -7 -4.5 -23t11 -28.5t32 -27.5t32 -28v-6q0 -21 -10 -36.5t-30.5 -15.5t-37.5 29h-4q-14 -29 -35.5 -29t-31.5 15.5t-10 36.5v6q11 13 31.5 28t31 27.5t10.5 27t-3.5 22t-7.5 10.5t-12.5 9.5t-12.5 9.5q0 13 16 23.5t20 15.5q-4 5 -15 11q-21 14 -21 29
q21 14 25 18q11 11 11 29t-10.5 30.5t-31 27.5t-31.5 28v6q0 21 10 36.5t31.5 15.5t35.5 -29h4q17 29 37.5 29t30.5 -15.5t10 -36.5v-6q-12 -13 -32.5 -28t-31.5 -27.5t-11 -28t4.5 -22.5t18 -16t15.5 -11q0 -15 -16.5 -25.5t-20.5 -14.5q5 -5 15 -11q22 -14 22 -28
q-4 -3 -16.5 -11.5t-17 -15.5zM218.5 -51q-4.5 -7 -4.5 -22.5t11 -28t32 -27.5t32 -28v-6q0 -52 -40 -52q-19 0 -38 27h-4q-15 -27 -37 -27q-40 0 -40 52v6q11 13 31.5 28t31 27.5t10.5 26.5t-3.5 21t-7 10.5t-12.5 9.5t-13 9q0 12 18.5 25.5t22.5 21.5h2q4 -7 23 -21
t19 -26q-3 -2 -16 -10.5t-17.5 -15.5zM225 597.5q-11 -12.5 -11 -27.5t4.5 -22t17.5 -15t16 -11q0 -13 -19 -26.5t-23 -20.5h-2q-4 8 -22.5 21t-18.5 26q4 3 13 9t12 9q11 9 11 27t-10.5 30.5t-31 27.5t-31.5 28v6q0 52 40 52q22 0 37 -27h4q19 27 38 27q40 0 40 -52v-6
q-12 -13 -32.5 -28t-31.5 -27.5z" />
    <glyph glyph-name="commaaccent" horiz-adv-x="116" 
d="M116 -84q-5 -79 -106 -131l-10 13q42 31 48 68q-26 24 -40 50q6 12 23 27.5t31 22.5q13 -8 30 -23.5t24 -26.5z" />
    <glyph glyph-name="grave.cap" horiz-adv-x="215" 
d="M207 731l-206 75q-1 10 4.5 31.5t10.5 30.5q20 7 42 9q75 -90 157 -126z" />
    <glyph glyph-name="acute.cap" horiz-adv-x="215" 
d="M214 797l-206 -75l-8 20q82 36 157 126q22 -2 42 -9q5 -9 10.5 -30.5t4.5 -31.5z" />
    <glyph glyph-name="circumflex.cap" horiz-adv-x="342" 
d="M332 715l-161 75l-161 -75l-10 19q92 58 161 151h20q69 -93 161 -151z" />
    <glyph glyph-name="dieresis.cap" horiz-adv-x="293" 
d="M108 803q-7 -13 -24.5 -33t-29.5 -28q-12 8 -29.5 28t-24.5 33q6 12 23 27.5t31 22.5q13 -8 30 -23.5t24 -26.5zM293 803q-7 -13 -24.5 -33t-29.5 -28q-12 8 -29.5 28t-24.5 33q6 12 23 27.5t31 22.5q13 -8 30 -23.5t24 -26.5z" />
    <glyph glyph-name="caron.cap" horiz-adv-x="342" 
d="M171 810l161 75l10 -19q-92 -58 -161 -151h-20q-69 93 -161 151l10 19z" />
    <glyph glyph-name="ring.cap" horiz-adv-x="193" 
d="M28 723q-28 19 -28 56.5t29.5 67t72.5 38.5q91 0 91 -74q0 -39 -26.5 -66.5t-69.5 -40.5q-41 0 -69 19zM130.5 834q-15.5 16 -39 16t-33.5 -9q-11 -17 -11 -43t16 -42.5t38.5 -16.5t33.5 9q11 16 11 43t-15.5 43z" />
    <glyph glyph-name="tilde.cap" horiz-adv-x="330" 
d="M128 837q59 -31 111.5 -31t72.5 24l18 -11q-56 -61 -104 -82q-21 0 -72.5 15.5t-72.5 15.5q-43 0 -63 -24l-18 11q56 61 128 82z" />
    <glyph glyph-name="dotaccentcmb.cap" horiz-adv-x="108" 
d="M108 803q-7 -13 -24.5 -33t-29.5 -28q-12 8 -29.5 28t-24.5 33q6 12 23 27.5t31 22.5q13 -8 30 -23.5t24 -26.5z" />
    <glyph glyph-name="Ldotaccent.001" horiz-adv-x="456" 
d="M471 -11q-100 11 -228.5 11t-217.5 -10l-4 25q39 13 96 23q11 82 11 258v59q0 175 -11 258q-51 7 -96 21l4 25q53 -8 139.5 -8t160.5 8l3 -24q-60 -14 -110 -19q-13 -88 -13 -294t10 -280q33 -5 89 -5t96 18q12 37 19 112h25q4 -106 33 -158zM424 354q-7 -13 -24.5 -33
t-29.5 -28q-12 8 -29.5 28t-24.5 33q6 12 23 27.5t31 22.5q13 -8 30 -23.5t24 -26.5z" />
    </font>
</defs>
</svg>
